<svg width="278" height="73" viewBox="0 0 278 73" fill="none" xmlns="http://www.w3.org/2000/svg">
<rect x="0.5" y="0.5" width="277" height="72" rx="14.5" fill="black" stroke="white"/>
<path d="M44.3099 25.476C46.4699 25.8 47.0459 27.546 47.0459 29.166C47.0459 31.47 45.5879 33 42.2219 33H36.5159V18.438H42.0239C44.5619 18.438 46.1639 20.418 46.1639 22.542C46.1639 23.478 45.7139 24.99 44.3099 25.476ZM41.5919 19.878H37.9739V24.846C39.1439 24.846 40.6919 24.846 41.5739 24.846C43.5899 24.846 44.6699 24.234 44.6699 22.38C44.6699 20.922 43.6619 19.878 41.5919 19.878ZM42.4919 31.578C44.3279 31.578 45.5879 30.876 45.5879 29.058C45.5879 27.582 44.4359 26.268 42.4559 26.268H37.9739V31.578H42.4919ZM55.026 24.846C57.888 24.846 59.544 26.952 59.544 28.842C59.544 31.578 58.086 33 54.72 33H49.014V18.438H50.472V24.846L55.026 24.846ZM54.99 31.578C56.826 31.578 58.086 30.876 58.086 29.058C58.086 27.582 56.934 26.268 54.954 26.268H50.472V31.578H54.99ZM62.712 33H61.254V18.438H62.712V33ZM81.8828 31.632V19.842H76.1948V22.326C76.2488 24.972 75.6368 29.13 74.5928 31.632H81.8828ZM83.3048 31.65H86.2028V35.934H84.7808V33.018H71.8388V35.934H70.4348V31.65H72.6488C73.9808 30.372 74.7188 26.052 74.7548 22.488V18.456H83.3048V31.65ZM88.5814 19.86V24.486H95.5834V25.908L88.5814 25.872V31.596H96.8974V33L87.1234 33V18.438H96.8974V19.86H88.5814ZM104.23 18.15C102.502 18.15 100.972 16.908 100.972 14.964H102.142C102.142 15.882 102.79 16.998 104.23 16.998C105.652 16.998 106.282 15.882 106.282 14.964H107.452C107.452 16.908 105.94 18.15 104.23 18.15ZM108.406 18.438H110.35V33H108.874V20.13L100 33H98.0921V18.438H99.5681V31.308L108.406 18.438ZM123.85 27.69H125.362C124.624 31.776 121.564 33.288 118.684 33.288C114.508 33.288 111.826 30.318 111.826 25.71C111.826 23.37 112.528 21.408 113.842 20.058C115.066 18.816 116.776 18.132 118.684 18.132C122.104 18.132 124.516 20.094 125.272 23.388H123.76C122.986 20.634 120.79 19.608 118.684 19.608C116.038 19.608 113.302 21.336 113.302 25.71C113.302 30.228 116.038 31.812 118.684 31.812C121.42 31.812 123.274 30.354 123.85 27.69ZM138.853 19.86H132.751V33H131.275V19.86H125.191V18.438H138.853V19.86ZM147.581 25.476C149.741 25.8 150.317 27.546 150.317 29.166C150.317 31.47 148.859 33 145.493 33H139.787V18.438H145.295C147.833 18.438 149.435 20.418 149.435 22.542C149.435 23.478 148.985 24.99 147.581 25.476ZM144.863 19.878H141.245V24.846C142.415 24.846 143.963 24.846 144.845 24.846C146.861 24.846 147.941 24.234 147.941 22.38C147.941 20.922 146.933 19.878 144.863 19.878ZM145.763 31.578C147.599 31.578 148.859 30.876 148.859 29.058C148.859 27.582 147.707 26.268 145.727 26.268H141.245V31.578H145.763ZM163.067 20.13L154.193 33H152.285V18.438H153.761V31.308L162.599 18.438H164.543V33H163.067V20.13ZM179.142 19.86H173.04V33H171.564V19.86H165.48V18.438H179.142V19.86ZM181.534 19.86V24.486H188.536V25.908L181.534 25.872V31.596H189.85V33H180.076V18.438H189.85V19.86H181.534ZM200.309 19.842H194.549V20.67C194.549 23.766 194.531 26.178 194.171 29.058C193.793 32.226 193.091 33 190.247 33C190.247 33 190.247 31.866 190.247 31.596C192.407 31.596 192.551 31.416 192.911 28.158C193.055 26.898 193.217 24.9 193.217 22.488V18.438H201.731V33H200.309V19.842ZM209.749 24.846C212.611 24.846 214.267 26.952 214.267 28.842C214.267 31.578 212.809 33 209.443 33H203.737V18.438H205.195V24.846H209.749ZM209.713 31.578C211.549 31.578 212.809 30.876 212.809 29.058C212.809 27.582 211.657 26.268 209.677 26.268H205.195V31.578H209.713ZM225.288 33V25.89H217.008V33H215.532V18.438H217.008V24.486H225.288V18.438H226.764V33H225.288ZM235.087 18.132C239.245 18.132 241.945 21.03 241.945 25.71C241.945 31.308 238.399 33.288 235.087 33.288C230.911 33.288 228.229 30.318 228.229 25.71C228.229 23.37 228.931 21.408 230.245 20.058C231.469 18.816 233.179 18.132 235.087 18.132ZM235.087 31.812C238.453 31.812 240.451 29.616 240.451 25.71C240.451 21.174 237.715 19.608 235.087 19.608C232.441 19.608 229.705 21.336 229.705 25.71C229.705 30.228 232.441 31.812 235.087 31.812ZM23.7466 44.818L28.7506 52H26.9506L22.8466 46.096L18.7606 52H16.9606L21.9646 44.818L16.8346 37.438H18.6346L22.8466 43.522L27.0766 37.438H28.8586L23.7466 44.818ZM35.2059 37.132C39.3639 37.132 42.0639 40.03 42.0639 44.71C42.0639 50.308 38.5179 52.288 35.2059 52.288C31.0299 52.288 28.3479 49.318 28.3479 44.71C28.3479 42.37 29.0499 40.408 30.3639 39.058C31.5879 37.816 33.2979 37.132 35.2059 37.132ZM35.2059 50.812C38.5719 50.812 40.5699 48.616 40.5699 44.71C40.5699 40.174 37.8339 38.608 35.2059 38.608C32.5599 38.608 29.8239 40.336 29.8239 44.71C29.8239 49.228 32.5599 50.812 35.2059 50.812ZM55.4445 38.86H49.3425V52H47.8665V38.86H41.7825V37.438H55.4445V38.86ZM67.1612 39.13L58.2872 52H56.3792V37.438H57.8552V50.308L66.6932 37.438H68.6372V52H67.1612V39.13ZM83.2355 38.86H77.1335V52H75.6575V38.86H69.5735V37.438H83.2355V38.86ZM85.6282 38.86V43.486H92.6302V44.908L85.6282 44.872V50.596H93.9442V52H84.1702V37.438H93.9442V38.86H85.6282ZM110.421 37.402L111.987 37.438L104.913 52L103.365 51.964L105.669 47.338L100.881 37.438H102.447L106.425 45.682L110.421 37.402ZM121.504 50.632V38.842H115.816V41.326C115.87 43.972 115.258 48.13 114.214 50.632H121.504ZM122.926 50.65H125.824V54.934H124.402V52.018H111.46V54.934H110.056V50.65H112.27C113.602 49.372 114.34 45.052 114.376 41.488V37.456H122.926V50.65ZM135.715 47.824H129.289L127.795 52H126.247L131.683 37.438H133.339L138.793 52H137.209L135.715 47.824ZM132.511 38.806L129.793 46.402H135.211L132.511 38.806ZM149.174 38.842H143.414V39.67C143.414 42.766 143.396 45.178 143.036 48.058C142.658 51.226 141.956 52 139.112 52C139.112 52 139.112 50.866 139.112 50.596C141.272 50.596 141.416 50.416 141.776 47.158C141.92 45.898 142.082 43.9 142.082 41.488V37.438H150.596V52H149.174V38.842ZM163.384 39.13L154.51 52H152.602V37.438H154.078V50.308L162.916 37.438H164.86V52H163.384V39.13ZM179.458 38.86H173.356V52H171.88V38.86H165.796V37.438H179.458V38.86ZM186.405 43.846C189.267 43.846 190.923 45.952 190.923 47.842C190.923 50.578 189.465 52 186.099 52H180.393V37.438H181.851V43.846H186.405ZM186.369 50.578C188.205 50.578 189.465 49.876 189.465 48.058C189.465 46.582 188.313 45.268 186.333 45.268H181.851V50.578H186.369ZM206.785 39.166C206.785 39.166 213.823 39.058 213.823 44.764C213.823 50.362 206.785 50.272 206.785 50.272V52H205.309V50.272C205.309 50.272 198.271 50.362 198.271 44.764C198.271 39.058 205.309 39.166 205.309 39.166V37.438H206.785V39.166ZM205.309 48.832V40.462C205.309 40.462 199.567 40.336 199.567 44.764C199.567 49.084 205.309 48.832 205.309 48.832ZM206.785 48.85C206.785 48.85 212.509 49.066 212.509 44.764C212.509 40.336 206.785 40.462 206.785 40.462V48.85ZM222.639 47.824H216.213L214.719 52H213.171L218.607 37.438H220.263L225.717 52H224.133L222.639 47.824ZM219.435 38.806L216.717 46.402H222.135L219.435 38.806ZM232.832 37.15C231.104 37.15 229.574 35.908 229.574 33.964H230.744C230.744 34.882 231.392 35.998 232.832 35.998C234.254 35.998 234.884 34.882 234.884 33.964H236.054C236.054 35.908 234.542 37.15 232.832 37.15ZM237.008 37.438H238.952V52H237.476V39.13L228.602 52H226.694V37.438H228.17V50.308L237.008 37.438ZM249.932 38.842H244.172V39.67C244.172 42.766 244.154 45.178 243.794 48.058C243.416 51.226 242.714 52 239.87 52C239.87 52 239.87 50.866 239.87 50.596C242.03 50.596 242.174 50.416 242.534 47.158C242.678 45.898 242.84 43.9 242.84 41.488V37.438H251.354V52H249.932V38.842ZM257.676 52H255.732V50.02H257.676V52ZM257.118 37.15C259.71 37.15 261.186 38.734 261.186 40.642C261.186 45.412 257.478 44.35 257.478 47.932H255.948C255.948 43.612 259.71 44.332 259.71 41.128C259.71 39.598 258.954 38.608 257.172 38.608C256.146 38.608 254.472 38.914 254.202 41.254C253.608 41.254 252.834 41.236 252.744 41.236C252.888 39.238 253.842 37.15 257.118 37.15Z" fill="white"/>
</svg>
