<svg width="755" height="429" viewBox="0 0 755 429" fill="none" xmlns="http://www.w3.org/2000/svg">
<path d="M0.338017 0.338017H754.116V428.267H0.338017V0.338017Z" fill="url(#paint0_radial_1242_2)" stroke="white" stroke-width="0.676034"/>
<path d="M602.33 408.776H735.948V313.892M602.33 16H735.948V119.71M139.652 408.776H18V313.892M139.652 16H18V119.71" stroke="white" stroke-width="0.676034"/>
<path d="M377.313 147.151V181.087M377.313 278.977V245.018M443.226 213.064H409.672M311.399 213.064H344.953" stroke="white" stroke-width="0.676034"/>
<circle cx="377.312" cy="213.064" r="8.45042" fill="white"/>
<rect x="30.507" y="27.8307" width="46.2823" height="19.2922" rx="1.35207" stroke="white" stroke-width="0.676034"/>
<path d="M47.0154 41.8729V36.5323H40.7958V41.8729H39.6871V30.9347H40.7958V35.4776H47.0154V30.9347H48.124V41.8729H47.0154ZM58.7702 36.4106C58.7702 39.4257 56.4446 41.8729 53.5918 41.8729H49.6032V30.9347H53.5918C56.4446 30.9347 58.7702 33.3955 58.7702 36.4106ZM50.6984 31.9893V40.8183H53.4431C55.4441 40.8183 57.4181 39.1688 57.6345 36.8568V36.8162V36.8027C57.6345 36.7892 57.6345 36.7892 57.6345 36.7756V36.7621L57.648 36.7351C57.648 36.6404 57.648 36.5323 57.648 36.4106C57.648 36.3835 57.648 36.343 57.648 36.3159V36.2889V36.2754V36.2618C57.5804 33.8281 55.5658 31.9893 53.4431 31.9893H50.6984ZM65.4749 37.1001L68.1384 41.8864H66.8405L64.2039 37.1001H65.4749ZM67.9086 34.0174C67.9086 36.3159 66.2861 36.9784 65.4749 37.1001H61.7702H60.9319V41.8864H59.8097V30.9482L64.3256 30.9347C65.7047 30.9347 67.9086 31.7189 67.9086 34.0174ZM64.5419 35.9914C66.0427 35.9914 66.7999 35.41 66.7999 34.0174C66.7999 32.8411 65.7182 32.0704 64.5419 32.0704H60.9319V35.9914H64.5419Z" fill="white"/>
<path d="M644.684 399.649H726.822V397.114C726.822 396.461 726.292 395.931 725.639 395.931H725.47C724.91 395.931 724.456 396.385 724.456 396.945C724.456 397.505 724.002 397.959 723.442 397.959H722.089C721.343 397.959 720.737 397.354 720.737 396.607V387.819C720.737 387.259 720.283 386.805 719.723 386.805C719.163 386.805 718.709 386.351 718.709 385.79V370.242C718.709 369.495 718.104 368.89 717.357 368.89H716.681C715.934 368.89 715.329 369.495 715.329 370.242V395.931C715.329 396.678 714.724 397.283 713.977 397.283H712.963C712.216 397.283 711.611 396.678 711.611 395.931V393.058C711.611 392.591 711.233 392.213 710.766 392.213C710.299 392.213 709.921 391.834 709.921 391.368V388.833C709.921 388.086 709.315 387.481 708.569 387.481H707.893C707.146 387.481 706.541 386.875 706.541 386.129V380.382C706.541 379.822 706.087 379.368 705.527 379.368C704.967 379.368 704.513 378.914 704.513 378.354V375.65C704.513 374.903 703.907 374.298 703.161 374.298H702.484C701.738 374.298 701.132 374.903 701.132 375.65V377.34C701.132 377.9 700.678 378.354 700.118 378.354C699.558 378.354 699.104 378.808 699.104 379.368V382.072C699.104 382.819 698.499 383.424 697.752 383.424H697.076C696.329 383.424 695.724 384.03 695.724 384.776V387.819C695.724 388.565 695.119 389.171 694.372 389.171H691.668C690.921 389.171 690.316 389.776 690.316 390.523V390.861C690.316 391.607 689.711 392.213 688.964 392.213H687.612C687.052 392.213 686.598 392.667 686.598 393.227C686.598 393.787 686.144 394.241 685.584 394.241H681.189C680.443 394.241 679.837 394.846 679.837 395.593V396.607C679.837 397.354 679.232 397.959 678.485 397.959H677.471C676.725 397.959 676.119 397.354 676.119 396.607V394.917C676.119 394.17 675.514 393.565 674.767 393.565H673.584C672.931 393.565 672.401 394.095 672.401 394.748C672.401 395.401 671.871 395.931 671.218 395.931H669.697C669.137 395.931 668.683 396.385 668.683 396.945C668.683 397.505 668.229 397.959 667.669 397.959H667.331C666.771 397.959 666.317 397.505 666.317 396.945C666.317 396.385 665.863 395.931 665.303 395.931H663.613C663.052 395.931 662.598 396.385 662.598 396.945C662.598 397.505 662.144 397.959 661.584 397.959H661.415C660.762 397.959 660.232 397.429 660.232 396.776V394.917C660.232 394.17 659.627 393.565 658.88 393.565H657.528C656.782 393.565 656.176 394.17 656.176 394.917V396.607C656.176 397.354 655.571 397.959 654.824 397.959H653.472C652.912 397.959 652.458 397.505 652.458 396.945C652.458 396.385 652.004 395.931 651.444 395.931H646.036C645.289 395.931 644.684 396.536 644.684 397.283V399.649Z" fill="white"/>
<defs>
<radialGradient id="paint0_radial_1242_2" cx="0" cy="0" r="1" gradientUnits="userSpaceOnUse" gradientTransform="translate(377 214) rotate(89.9395) scale(214.605 377.76)">
<stop offset="0.342427" stop-opacity="0"/>
<stop offset="0.949983"/>
</radialGradient>
</defs>
</svg>
