<svg width="992" height="762" viewBox="0 0 992 762" fill="none" xmlns="http://www.w3.org/2000/svg">
<path d="M628.877 656.753H159.516C137.487 656.753 119.63 638.895 119.63 616.867V552.981L98.3586 533.395C90.1567 525.843 85.4902 515.202 85.4902 504.053V49.6061C85.4902 27.5777 103.348 9.72011 125.376 9.72011H366.382L374.678 5.44C380.332 2.52237 386.603 1 392.966 1H951.151C973.18 1 991.037 18.8575 991.037 40.886V540.813C991.037 562.841 973.18 580.699 951.151 580.699H762.006C753.774 580.699 745.744 583.246 739.017 587.991L651.866 649.461C645.139 654.206 637.109 656.753 628.877 656.753Z" fill="black"/>
<path d="M158.84 33.8561H311.53C316.922 33.8561 322.236 32.5659 327.029 30.0934L366.382 9.78857H124.7C103.045 9.78857 85.4902 27.3435 85.4902 48.9985V505.901C85.4902 515.916 89.6822 525.474 97.0499 532.258L119.63 553.05V73.066C119.63 51.411 137.185 33.8561 158.84 33.8561Z" fill="#FD4B28"/>
<path d="M366.044 9.72011L374.34 5.44C379.995 2.52237 386.265 1 392.628 1H950.813C972.842 1 990.699 18.8575 990.699 40.886V540.813C990.699 562.841 972.842 580.699 950.813 580.699H761.669C753.437 580.699 745.406 583.246 738.679 587.991L651.528 649.461C644.801 654.205 636.771 656.753 628.539 656.753H159.178C137.15 656.753 119.292 638.895 119.292 616.867V552.981M366.044 9.72011L328.003 29.3476C322.349 32.2653 316.078 33.7876 309.715 33.7876H159.178C137.15 33.7876 119.292 51.6452 119.292 73.6736V552.981M366.044 9.72011H125.038C103.01 9.72011 85.1523 27.5777 85.1523 49.6061V504.053C85.1523 515.202 89.8188 525.843 98.0207 533.395L119.292 552.981M966.362 58.1615V526.954C966.362 535.168 959.703 541.827 951.489 541.827H158.502C150.288 541.827 143.629 535.168 143.629 526.954V60.1163C143.629 51.9167 150.266 45.2638 158.465 45.2436L951.453 43.2889C959.681 43.2686 966.362 49.9332 966.362 58.1615Z" stroke="white" stroke-width="0.676034"/>
<circle cx="413.704" cy="22.2949" r="11.4926" stroke="white" stroke-width="0.676034"/>
<circle cx="471.167" cy="22.2949" r="11.4926" stroke="white" stroke-width="0.676034"/>
<circle cx="511.729" cy="22.2949" r="11.4926" stroke="white" stroke-width="0.676034"/>
<circle cx="552.292" cy="22.2949" r="11.4926" stroke="white" stroke-width="0.676034"/>
<path d="M151.742 552.982H213.937C218.604 552.982 222.387 556.765 222.387 561.432C222.387 566.099 218.604 569.882 213.937 569.882H151.742C147.075 569.882 143.291 566.099 143.291 561.432C143.291 556.765 147.075 552.982 151.742 552.982Z" stroke="white" stroke-width="0.676034"/>
<path d="M896.054 552.982H958.249C962.916 552.982 966.7 556.765 966.7 561.432C966.7 566.099 962.916 569.882 958.249 569.882H896.054C891.387 569.882 887.604 566.099 887.604 561.432C887.604 556.765 891.387 552.982 896.054 552.982Z" stroke="white" stroke-width="0.676034"/>
<path d="M815.607 552.982H862.253C866.92 552.982 870.704 556.765 870.704 561.432C870.704 566.099 866.92 569.882 862.253 569.882H815.607C810.94 569.882 807.156 566.099 807.156 561.432C807.156 556.765 810.94 552.982 815.607 552.982Z" stroke="white" stroke-width="0.676034"/>
<circle cx="588.121" cy="561.432" r="10.1405" fill="white"/>
<path d="M239.287 556.023V561.432M239.287 566.84V561.432M239.287 561.432H294.046M348.847 561.432V556.023M348.847 561.432V566.84M348.847 561.432H294.046M348.847 561.432H403.225M567.839 561.432V556.023M567.839 561.432H513.081M567.839 561.432V566.84M567.839 561.432H588.12M294.046 561.432V556.023V566.84M403.225 561.432V556.023V566.84M403.225 561.432H457.984M457.984 561.432V556.023V566.84M457.984 561.432H513.081M513.081 561.432V556.023V566.84" stroke="white" stroke-width="1.35207"/>
<path opacity="0.5" d="M790.255 566.84V556.023V561.432H732.116M588.121 566.84V556.023V561.432H622.599M622.599 561.432V556.023V566.84M622.599 561.432H677.358M677.358 561.432V556.023V566.84M677.358 561.432H732.116M732.116 561.432V556.023V566.84" stroke="white" stroke-width="1.35207"/>
<path d="M178.108 79.0817H931.885V507.011H178.108V79.0817Z" stroke="white" stroke-width="0.676034"/>
<path d="M780.351 489.096H913.969V394.212M780.351 96.3208H913.969V200.031M317.674 489.096H196.021V394.212M317.674 96.3208H196.021V200.031" stroke="white" stroke-width="0.676034"/>
<path d="M555.333 227.471V261.408M555.333 359.298V325.338M621.246 293.384H587.693M489.42 293.384H522.974" stroke="white" stroke-width="0.676034"/>
<circle cx="555.333" cy="293.384" r="8.45042" fill="white"/>
<path d="M461.825 60.6337H456.592V59.5656H461.825V60.6337ZM472.379 59.9712C472.379 59.9712 474.61 60.201 474.61 62.8646C474.61 65.1631 473.258 66.2989 471.014 66.2989C468.972 66.2989 467.634 65.1496 467.525 63.2297H468.607C468.972 64.7169 469.635 65.2172 471.311 65.2172C472.785 65.2172 473.502 64.1491 473.502 62.6888C473.502 61.7559 472.785 60.6742 471.054 60.485V59.5115C472.271 59.3357 472.839 58.7273 472.839 57.9296C472.839 56.5775 472.109 56.0231 470.919 56.0231C469.919 56.0231 469.405 56.4964 469.161 57.4022H468.066C468.174 55.9691 469.188 54.9144 470.919 54.9144C473.015 54.9144 473.961 56.2936 473.961 57.6591C473.961 59.7954 472.379 59.9712 472.379 59.9712ZM485.737 60.6337H480.504V59.5656H485.737V60.6337ZM495.223 54.9144C497.671 54.9144 498.766 56.3341 498.766 58.227C498.766 59.9441 497.792 61.0258 495.778 61.4855C493.885 61.9317 493.019 61.6748 493.019 64.9873H498.914V66.0825H491.911C491.911 65.5282 491.897 65.6093 491.897 64.9873C491.897 61.4044 492.898 60.9987 495.372 60.4444C497.373 59.9982 497.643 59.1194 497.643 58.0107C497.643 56.9831 496.886 56.0231 495.48 56.0231C494.196 56.0231 492.83 56.4964 492.695 57.9296H491.6C491.694 56.253 492.992 54.9144 495.223 54.9144ZM510.019 60.6337H504.786V59.5656H510.019V60.6337ZM522.398 66.0825H515.733V64.9738L518.802 64.9873V56.4152L515.909 58.2946L515.922 57.0237L518.829 55.1443H519.951V64.9738H522.398V66.0825ZM533.759 60.6337H528.527V59.5656H533.759V60.6337ZM543.813 54.9144C546.517 54.9144 547.951 57.0507 547.951 60.6066C547.951 64.2302 546.517 66.2989 543.813 66.2989C541.136 66.2989 539.676 64.2302 539.676 60.6066C539.676 57.1048 541.123 54.9144 543.813 54.9144ZM543.813 65.1902C545.544 65.1902 546.842 64.0409 546.842 60.6066C546.842 57.2265 545.544 56.0231 543.813 56.0231C542.123 56.0231 540.785 57.2535 540.785 60.6066C540.785 64.0544 542.123 65.1902 543.813 65.1902ZM559.11 60.6337H553.878V59.5656H559.11V60.6337ZM571.49 66.0825H564.824V64.9738L567.894 64.9873V56.4152L565 58.2946L565.014 57.0237L567.921 55.1443H569.043V64.9738H571.49V66.0825ZM582.851 60.6337H577.618V59.5656H582.851V60.6337ZM592.337 54.9144C594.784 54.9144 595.88 56.3341 595.88 58.227C595.88 59.9441 594.906 61.0258 592.891 61.4855C590.999 61.9317 590.133 61.6748 590.133 64.9873H596.028V66.0825H589.025C589.025 65.5282 589.011 65.6093 589.011 64.9873C589.011 61.4044 590.012 60.9987 592.486 60.4444C594.487 59.9982 594.757 59.1194 594.757 58.0107C594.757 56.9831 594 56.0231 592.594 56.0231C591.31 56.0231 589.944 56.4964 589.809 57.9296H588.714C588.808 56.253 590.106 54.9144 592.337 54.9144ZM607.133 60.6337H601.9V59.5656H607.133V60.6337ZM617.687 59.9712C617.687 59.9712 619.918 60.201 619.918 62.8646C619.918 65.1631 618.566 66.2989 616.321 66.2989C614.28 66.2989 612.941 65.1496 612.833 63.2297H613.915C614.28 64.7169 614.942 65.2172 616.619 65.2172C618.093 65.2172 618.809 64.1491 618.809 62.6888C618.809 61.7559 618.093 60.6742 616.362 60.485V59.5115C617.579 59.3357 618.147 58.7273 618.147 57.9296C618.147 56.5775 617.417 56.0231 616.227 56.0231C615.226 56.0231 614.712 56.4964 614.469 57.4022H613.374C613.482 55.9691 614.496 54.9144 616.227 54.9144C618.322 54.9144 619.269 56.2936 619.269 57.6591C619.269 59.7954 617.687 59.9712 617.687 59.9712Z" fill="white"/>
<path d="M181.826 528.706C180.136 528.828 178.337 527.773 178.337 526.043H179.5C179.5 526.637 180.136 527.638 181.691 527.584C183.245 527.543 184.03 526.475 184.03 524.812C184.03 523.474 183.232 522.541 181.772 522.527C180.325 522.514 179.811 523.122 179.689 523.717H178.635V517.538H184.706V518.647H179.676V522.324C179.676 522.324 180.136 521.5 181.88 521.5C183.84 521.5 185.071 522.919 185.071 524.812C185.071 527.679 183.435 528.584 181.826 528.706ZM190.277 517.322C192.981 517.322 194.415 519.458 194.415 523.014C194.415 526.637 192.981 528.706 190.277 528.706C187.6 528.706 186.14 526.637 186.14 523.014C186.14 519.512 187.587 517.322 190.277 517.322ZM190.277 527.597C192.008 527.597 193.306 526.448 193.306 523.014C193.306 519.634 192.008 518.43 190.277 518.43C188.587 518.43 187.249 519.661 187.249 523.014C187.249 526.462 188.587 527.597 190.277 527.597ZM199.625 517.322C202.33 517.322 203.763 519.458 203.763 523.014C203.763 526.637 202.33 528.706 199.625 528.706C196.948 528.706 195.488 526.637 195.488 523.014C195.488 519.512 196.935 517.322 199.625 517.322ZM199.625 527.597C201.356 527.597 202.654 526.448 202.654 523.014C202.654 519.634 201.356 518.43 199.625 518.43C197.935 518.43 196.597 519.661 196.597 523.014C196.597 526.462 197.935 527.597 199.625 527.597ZM215.017 528.49L211.231 518.822V528.49H210.123V517.552H211.894L215.531 526.921L219.141 517.552H220.926V528.49H219.804L219.817 518.822L216.031 528.49H215.017ZM233.624 523.149H228.581V528.49H227.486V517.552H234.692V518.62H228.581V522.094H233.624V523.149ZM239.969 517.552H241.186L235.885 528.49H234.669L239.969 517.552ZM248.904 528.49H242.238V527.381L245.307 527.395V518.822L242.414 520.702L242.427 519.431L245.334 517.552H246.456V527.381H248.904V528.49ZM251.436 528.49H249.989V527.002H251.436V528.49ZM258.131 522.216C259.253 522.771 259.916 523.839 259.916 525.245C259.916 527.8 257.928 528.706 256.09 528.706C253.764 528.706 252.263 527.354 252.263 525.245C252.263 524.177 252.642 523.284 253.385 522.662C253.588 522.487 253.818 522.338 254.075 522.216C253.426 521.729 253.034 520.986 253.034 520.066C253.034 519.228 253.345 518.525 253.94 518.038C254.481 517.579 255.238 517.322 256.09 517.322C257.928 517.322 259.132 518.403 259.132 520.066C259.132 520.972 258.794 521.716 258.158 522.189C258.145 522.203 258.131 522.203 258.131 522.216ZM256.09 518.403C255.251 518.403 254.143 518.85 254.143 520.066C254.143 521.567 255.562 521.729 256.09 521.729C257.198 521.729 258.023 521.148 258.023 520.066C258.023 518.566 256.603 518.403 256.09 518.403ZM256.09 527.624C257.698 527.624 258.807 526.773 258.807 525.245C258.807 524.677 258.402 522.865 256.09 522.865C254.873 522.865 253.372 523.487 253.372 525.245C253.372 527.449 255.495 527.624 256.09 527.624Z" fill="white"/>
<path d="M416.895 528.49H415.787V517.552H416.895V528.49ZM419.335 520.256C419.335 523.501 425.879 521.067 425.879 525.488C425.879 526.908 424.865 528.72 421.917 528.72C419.294 528.72 417.956 526.84 417.956 525.245H419.064C419.064 526.394 420.159 527.611 422.025 527.611C424.04 527.611 424.783 526.502 424.783 525.353C424.783 522.27 418.226 524.69 418.226 520.215C418.226 518.606 419.537 517.335 421.863 517.335C424.04 517.335 425.392 518.674 425.392 520.553H424.283C424.283 519.35 423.377 518.444 421.863 518.444C420.376 518.444 419.335 519.066 419.335 520.256ZM431.717 517.335C434.84 517.335 436.868 519.512 436.868 523.027C436.868 527.219 434.205 528.72 431.717 528.72C428.58 528.72 426.565 526.489 426.565 523.027C426.565 521.256 427.093 519.796 428.08 518.768C428.999 517.835 430.284 517.335 431.717 517.335ZM431.717 527.611C434.245 527.611 435.746 525.961 435.746 523.027C435.746 519.62 433.691 518.444 431.717 518.444C429.729 518.444 427.674 519.742 427.674 523.027C427.674 526.408 429.729 527.611 431.717 527.611ZM448.677 522.216C449.799 522.771 450.462 523.839 450.462 525.245C450.462 527.8 448.474 528.706 446.635 528.706C444.31 528.706 442.809 527.354 442.809 525.245C442.809 524.177 443.187 523.284 443.931 522.662C444.134 522.487 444.364 522.338 444.621 522.216C443.972 521.729 443.58 520.986 443.58 520.066C443.58 519.228 443.891 518.525 444.485 518.038C445.026 517.579 445.783 517.322 446.635 517.322C448.474 517.322 449.677 518.403 449.677 520.066C449.677 520.972 449.339 521.716 448.704 522.189C448.69 522.203 448.677 522.203 448.677 522.216ZM446.635 518.403C445.797 518.403 444.688 518.85 444.688 520.066C444.688 521.567 446.108 521.729 446.635 521.729C447.744 521.729 448.569 521.148 448.569 520.066C448.569 518.566 447.149 518.403 446.635 518.403ZM446.635 527.624C448.244 527.624 449.353 526.773 449.353 525.245C449.353 524.677 448.947 522.865 446.635 522.865C445.418 522.865 443.918 523.487 443.918 525.245C443.918 527.449 446.04 527.624 446.635 527.624ZM455.504 517.322C458.208 517.322 459.641 519.458 459.641 523.014C459.641 526.637 458.208 528.706 455.504 528.706C452.826 528.706 451.366 526.637 451.366 523.014C451.366 519.512 452.813 517.322 455.504 517.322ZM455.504 527.597C457.234 527.597 458.532 526.448 458.532 523.014C458.532 519.634 457.234 518.43 455.504 518.43C453.813 518.43 452.475 519.661 452.475 523.014C452.475 526.462 453.813 527.597 455.504 527.597ZM464.852 517.322C467.556 517.322 468.989 519.458 468.989 523.014C468.989 526.637 467.556 528.706 464.852 528.706C462.175 528.706 460.714 526.637 460.714 523.014C460.714 519.512 462.161 517.322 464.852 517.322ZM464.852 527.597C466.582 527.597 467.88 526.448 467.88 523.014C467.88 519.634 466.582 518.43 464.852 518.43C463.162 518.43 461.823 519.661 461.823 523.014C461.823 526.462 463.162 527.597 464.852 527.597Z" fill="white"/>
<path d="M630.292 522.216C631.415 522.771 632.077 523.839 632.077 525.245C632.077 527.8 630.09 528.706 628.251 528.706C625.925 528.706 624.424 527.354 624.424 525.245C624.424 524.177 624.803 523.284 625.547 522.662C625.749 522.487 625.979 522.338 626.236 522.216C625.587 521.729 625.195 520.986 625.195 520.066C625.195 519.228 625.506 518.525 626.101 518.038C626.642 517.579 627.399 517.322 628.251 517.322C630.09 517.322 631.293 518.403 631.293 520.066C631.293 520.972 630.955 521.716 630.319 522.189C630.306 522.203 630.292 522.203 630.292 522.216ZM628.251 518.403C627.412 518.403 626.304 518.85 626.304 520.066C626.304 521.567 627.723 521.729 628.251 521.729C629.359 521.729 630.184 521.148 630.184 520.066C630.184 518.566 628.765 518.403 628.251 518.403ZM628.251 527.624C629.86 527.624 630.968 526.773 630.968 525.245C630.968 524.677 630.563 522.865 628.251 522.865C627.034 522.865 625.533 523.487 625.533 525.245C625.533 527.449 627.656 527.624 628.251 527.624ZM636.485 517.322C638.932 517.322 640.028 518.741 640.028 520.634C640.028 522.351 639.054 523.433 637.04 523.893C635.147 524.339 634.281 524.082 634.281 527.395H640.176V528.49H633.173C633.173 527.935 633.159 528.017 633.159 527.395C633.159 523.812 634.16 523.406 636.634 522.852C638.635 522.405 638.905 521.527 638.905 520.418C638.905 519.39 638.148 518.43 636.742 518.43C635.458 518.43 634.092 518.904 633.957 520.337H632.862C632.956 518.66 634.254 517.322 636.485 517.322ZM644.486 528.706C642.796 528.828 640.997 527.773 640.997 526.043H642.16C642.16 526.637 642.796 527.638 644.35 527.584C645.905 527.543 646.69 526.475 646.69 524.812C646.69 523.474 645.892 522.541 644.432 522.527C642.985 522.514 642.471 523.122 642.349 523.717H641.295V517.538H647.366V518.647H642.336V522.324C642.336 522.324 642.796 521.5 644.54 521.5C646.5 521.5 647.731 522.919 647.731 524.812C647.731 527.679 646.095 528.584 644.486 528.706ZM652.315 517.322C654.154 517.322 654.938 518.336 655.128 519.688H654.073C653.816 518.741 653.072 518.376 652.302 518.43C651.017 518.511 650.314 519.323 650.03 521.175C649.814 522.541 649.868 523.325 649.868 523.325C649.868 523.325 650.314 521.783 652.613 521.783C654.857 521.783 655.547 523.906 655.547 525.028C655.547 527.57 653.938 528.679 652.64 528.706C650.72 528.76 648.854 527.935 648.854 523.487C648.854 521.54 649.111 520.039 649.638 518.998C650.22 517.862 651.085 517.322 652.315 517.322ZM652.491 522.879C651.017 522.879 650.111 523.758 650.084 524.853C650.03 526.813 650.801 527.651 652.572 527.57C653.924 527.503 654.614 526.286 654.533 524.92C654.465 523.852 653.748 522.879 652.491 522.879ZM665.095 517.552L661.241 523.095L665 528.503H663.648L660.579 524.068L657.496 528.503H656.144L659.903 523.095L656.063 517.552H657.401L660.579 522.122L663.743 517.552H665.095ZM666.415 520.256C666.415 523.501 672.959 521.067 672.959 525.488C672.959 526.908 671.944 528.72 668.997 528.72C666.374 528.72 665.035 526.84 665.035 525.245H666.144C666.144 526.394 667.239 527.611 669.105 527.611C671.12 527.611 671.863 526.502 671.863 525.353C671.863 522.27 665.306 524.69 665.306 520.215C665.306 518.606 666.617 517.335 668.943 517.335C671.12 517.335 672.472 518.674 672.472 520.553H671.363C671.363 519.35 670.457 518.444 668.943 518.444C667.456 518.444 666.415 519.066 666.415 520.256ZM674.984 520.256C674.984 523.501 681.528 521.067 681.528 525.488C681.528 526.908 680.514 528.72 677.566 528.72C674.943 528.72 673.605 526.84 673.605 525.245H674.713C674.713 526.394 675.809 527.611 677.674 527.611C679.689 527.611 680.433 526.502 680.433 525.353C680.433 522.27 673.875 524.69 673.875 520.215C673.875 518.606 675.187 517.335 677.512 517.335C679.689 517.335 681.041 518.674 681.041 520.553H679.932C679.932 519.35 679.026 518.444 677.512 518.444C676.025 518.444 674.984 519.066 674.984 520.256ZM686.528 517.322C689.232 517.322 690.665 519.458 690.665 523.014C690.665 526.637 689.232 528.706 686.528 528.706C683.851 528.706 682.39 526.637 682.39 523.014C682.39 519.512 683.837 517.322 686.528 517.322ZM686.528 527.597C688.258 527.597 689.556 526.448 689.556 523.014C689.556 519.634 688.258 518.43 686.528 518.43C684.838 518.43 683.499 519.661 683.499 523.014C683.499 526.462 684.838 527.597 686.528 527.597ZM699.601 525.326H698.046V528.49H696.938V525.326H691.638V524.001L696.519 517.552H698.046V524.217H699.601V525.326ZM696.938 524.217V518.417L692.53 524.217H696.938Z" fill="white"/>
<path d="M861.469 528.49H854.803V527.381L857.872 527.395V518.822L854.979 520.702L854.992 519.431L857.899 517.552H859.021V527.381H861.469V528.49ZM866.234 517.322C868.938 517.322 870.371 519.458 870.371 523.014C870.371 526.637 868.938 528.706 866.234 528.706C863.556 528.706 862.096 526.637 862.096 523.014C862.096 519.512 863.543 517.322 866.234 517.322ZM866.234 527.597C867.964 527.597 869.262 526.448 869.262 523.014C869.262 519.634 867.964 518.43 866.234 518.43C864.543 518.43 863.205 519.661 863.205 523.014C863.205 526.462 864.543 527.597 866.234 527.597ZM875.582 517.322C878.286 517.322 879.719 519.458 879.719 523.014C879.719 526.637 878.286 528.706 875.582 528.706C872.905 528.706 871.445 526.637 871.445 523.014C871.445 519.512 872.891 517.322 875.582 517.322ZM875.582 527.597C877.313 527.597 878.61 526.448 878.61 523.014C878.61 519.634 877.313 518.43 875.582 518.43C873.892 518.43 872.553 519.661 872.553 523.014C872.553 526.462 873.892 527.597 875.582 527.597ZM886.296 517.552H887.513L882.212 528.49H880.996L886.296 517.552ZM895.231 528.49H888.565V527.381L891.634 527.395V518.822L888.741 520.702L888.754 519.431L891.661 517.552H892.784V527.381H895.231V528.49ZM899.996 517.322C902.7 517.322 904.133 519.458 904.133 523.014C904.133 526.637 902.7 528.706 899.996 528.706C897.319 528.706 895.858 526.637 895.858 523.014C895.858 519.512 897.305 517.322 899.996 517.322ZM899.996 527.597C901.726 527.597 903.024 526.448 903.024 523.014C903.024 519.634 901.726 518.43 899.996 518.43C898.306 518.43 896.967 519.661 896.967 523.014C896.967 526.462 898.306 527.597 899.996 527.597ZM909.344 517.322C912.048 517.322 913.481 519.458 913.481 523.014C913.481 526.637 912.048 528.706 909.344 528.706C906.667 528.706 905.207 526.637 905.207 523.014C905.207 519.512 906.653 517.322 909.344 517.322ZM909.344 527.597C911.075 527.597 912.373 526.448 912.373 523.014C912.373 519.634 911.075 518.43 909.344 518.43C907.654 518.43 906.315 519.661 906.315 523.014C906.315 526.462 907.654 527.597 909.344 527.597ZM918.692 517.322C921.396 517.322 922.83 519.458 922.83 523.014C922.83 526.637 921.396 528.706 918.692 528.706C916.015 528.706 914.555 526.637 914.555 523.014C914.555 519.512 916.002 517.322 918.692 517.322ZM918.692 527.597C920.423 527.597 921.721 526.448 921.721 523.014C921.721 519.634 920.423 518.43 918.692 518.43C917.002 518.43 915.664 519.661 915.664 523.014C915.664 526.462 917.002 527.597 918.692 527.597ZM928.04 517.322C930.745 517.322 932.178 519.458 932.178 523.014C932.178 526.637 930.745 528.706 928.04 528.706C925.363 528.706 923.903 526.637 923.903 523.014C923.903 519.512 925.35 517.322 928.04 517.322ZM928.04 527.597C929.771 527.597 931.069 526.448 931.069 523.014C931.069 519.634 929.771 518.43 928.04 518.43C926.35 518.43 925.012 519.661 925.012 523.014C925.012 526.462 926.35 527.597 928.04 527.597Z" fill="white"/>
<path d="M903.775 605.558V600.217H897.556V605.558H896.447V594.619H897.556V599.162H903.775V594.619H904.884V605.558H903.775ZM907.418 605.558H905.971V604.07H907.418V605.558ZM911.869 594.39C914.316 594.39 915.411 595.809 915.411 597.702C915.411 599.419 914.438 600.501 912.423 600.961C910.53 601.407 909.665 601.15 909.665 604.462H915.56V605.558H908.556C908.556 605.003 908.543 605.084 908.543 604.462C908.543 600.879 909.543 600.474 912.017 599.919C914.018 599.473 914.289 598.594 914.289 597.486C914.289 596.458 913.532 595.498 912.126 595.498C910.841 595.498 909.475 595.971 909.34 597.405H908.245C908.34 595.728 909.638 594.39 911.869 594.39ZM920.093 594.39C921.932 594.39 922.716 595.404 922.906 596.756H921.851C921.594 595.809 920.85 595.444 920.08 595.498C918.795 595.579 918.092 596.391 917.808 598.243C917.592 599.609 917.646 600.393 917.646 600.393C917.646 600.393 918.092 598.851 920.391 598.851C922.635 598.851 923.325 600.974 923.325 602.096C923.325 604.638 921.716 605.747 920.418 605.774C918.498 605.828 916.632 605.003 916.632 600.555C916.632 598.608 916.889 597.107 917.416 596.066C917.998 594.93 918.863 594.39 920.093 594.39ZM920.269 599.947C918.795 599.947 917.889 600.825 917.862 601.921C917.808 603.881 918.579 604.719 920.35 604.638C921.702 604.571 922.392 603.354 922.311 601.988C922.243 600.92 921.526 599.947 920.269 599.947ZM927.752 605.774C926.062 605.896 924.263 604.841 924.263 603.11H925.426C925.426 603.705 926.062 604.706 927.617 604.652C929.171 604.611 929.956 603.543 929.956 601.88C929.956 600.541 929.158 599.609 927.698 599.595C926.251 599.581 925.737 600.19 925.616 600.785H924.561V594.606H930.632V595.715H925.602V599.392C925.602 599.392 926.062 598.567 927.806 598.567C929.766 598.567 930.997 599.987 930.997 601.88C930.997 604.746 929.361 605.652 927.752 605.774Z" fill="white"/>
<rect x="944.391" y="591.178" width="46.9583" height="19.9683" rx="1.69008" fill="white"/>
<path d="M961.521 605.558H954.856V604.449L957.925 604.463V595.891L955.032 597.77L955.045 596.499L957.952 594.62H959.074V604.449H961.521V605.558ZM966.311 594.39C968.15 594.39 968.934 595.404 969.124 596.756H968.069C967.812 595.81 967.069 595.445 966.298 595.499C965.013 595.58 964.31 596.391 964.026 598.243C963.81 599.609 963.864 600.393 963.864 600.393C963.864 600.393 964.31 598.852 966.609 598.852C968.853 598.852 969.543 600.975 969.543 602.097C969.543 604.639 967.934 605.747 966.636 605.774C964.716 605.829 962.85 605.004 962.85 600.555C962.85 598.608 963.107 597.108 963.634 596.067C964.216 594.931 965.081 594.39 966.311 594.39ZM966.487 599.947C965.013 599.947 964.107 600.826 964.08 601.921C964.026 603.882 964.797 604.72 966.568 604.639C967.92 604.571 968.61 603.354 968.529 601.989C968.461 600.921 967.745 599.947 966.487 599.947ZM971.938 605.558H970.492V604.071H971.938V605.558ZM971.938 599.988H970.492V598.5H971.938V599.988ZM976.209 605.774C974.303 605.774 973.505 604.774 973.302 603.422H974.397C974.654 604.355 975.425 604.733 976.223 604.679C977.548 604.585 978.278 603.787 978.562 601.935C978.778 600.555 978.737 599.771 978.737 599.771C978.737 599.771 978.278 601.313 975.898 601.313C973.586 601.313 972.883 599.203 972.883 598.068C972.883 595.539 974.533 594.431 975.871 594.39C977.859 594.349 979.792 595.174 979.792 599.623C979.792 601.556 979.508 603.07 978.967 604.111C978.372 605.234 977.48 605.774 976.209 605.774ZM976.02 600.231C977.548 600.231 978.481 599.339 978.508 598.257C978.562 596.296 977.778 595.445 975.952 595.539C974.546 595.593 973.843 596.824 973.924 598.189C973.992 599.257 974.735 600.231 976.02 600.231Z" fill="black"/>
<path d="M882.589 642.388C885.036 642.388 886.131 643.807 886.131 645.7C886.131 647.417 885.158 648.499 883.143 648.959C881.25 649.405 880.385 649.148 880.385 652.46H886.28V653.556H879.276C879.276 653.001 879.263 653.082 879.263 652.46C879.263 648.878 880.263 648.472 882.738 647.918C884.739 647.471 885.009 646.593 885.009 645.484C885.009 644.456 884.252 643.496 882.846 643.496C881.561 643.496 880.196 643.97 880.061 645.403H878.965C879.06 643.726 880.358 642.388 882.589 642.388ZM891.198 642.388C893.902 642.388 895.335 644.524 895.335 648.08C895.335 651.703 893.902 653.772 891.198 653.772C888.521 653.772 887.061 651.703 887.061 648.08C887.061 644.578 888.507 642.388 891.198 642.388ZM891.198 652.663C892.929 652.663 894.227 651.514 894.227 648.08C894.227 644.7 892.929 643.496 891.198 643.496C889.508 643.496 888.169 644.727 888.169 648.08C888.169 651.528 889.508 652.663 891.198 652.663ZM904.272 650.392H902.717V653.556H901.608V650.392H896.308V649.067L901.189 642.617H902.717V649.283H904.272V650.392ZM901.608 649.283V643.483L897.2 649.283H901.608ZM906.262 653.556H904.815V652.068H906.262V653.556ZM910.713 642.388C913.16 642.388 914.255 643.807 914.255 645.7C914.255 647.417 913.282 648.499 911.267 648.959C909.374 649.405 908.509 649.148 908.509 652.46H914.404V653.556H907.4C907.4 653.001 907.387 653.082 907.387 652.46C907.387 648.878 908.387 648.472 910.862 647.918C912.863 647.471 913.133 646.593 913.133 645.484C913.133 644.456 912.376 643.496 910.97 643.496C909.685 643.496 908.32 643.97 908.185 645.403H907.089C907.184 643.726 908.482 642.388 910.713 642.388ZM925.779 649.229V648.161H930.227V653.556H929.281L929.118 652.352C928.226 653.272 926.969 653.772 925.481 653.772C922.345 653.772 920.33 651.541 920.33 648.08C920.33 646.322 920.857 644.848 921.844 643.834C922.764 642.901 924.048 642.388 925.481 642.388C927.685 642.388 929.456 643.483 930.227 645.916H929.064C928.429 644.186 926.915 643.496 925.481 643.496C923.494 643.496 921.439 644.781 921.439 648.08C921.439 651.501 923.643 652.663 925.481 652.663C926.955 652.663 929.118 652.055 929.118 649.229H925.779ZM937.351 647.904C938.973 648.147 939.406 649.459 939.406 650.676C939.406 652.406 938.311 653.556 935.782 653.556H931.496V642.617H935.633C937.54 642.617 938.743 644.105 938.743 645.7C938.743 646.403 938.405 647.539 937.351 647.904ZM935.309 643.699H932.591V647.431C933.47 647.431 934.633 647.431 935.295 647.431C936.81 647.431 937.621 646.971 937.621 645.578C937.621 644.483 936.864 643.699 935.309 643.699ZM935.985 652.488C937.364 652.488 938.311 651.96 938.311 650.595C938.311 649.486 937.445 648.499 935.958 648.499H932.591V652.488H935.985Z" fill="white"/>
<rect x="208.529" y="108.151" width="46.2823" height="19.2922" rx="1.35207" stroke="white" stroke-width="0.676034"/>
<path d="M225.039 122.194V116.853H218.819V122.194H217.711V111.256H218.819V115.799H225.039V111.256H226.147V122.194H225.039ZM236.794 116.731C236.794 119.747 234.468 122.194 231.615 122.194H227.627V111.256H231.615C234.468 111.256 236.794 113.716 236.794 116.731ZM228.722 112.31V121.139H231.466C233.468 121.139 235.442 119.49 235.658 117.178V117.137V117.124C235.658 117.11 235.658 117.11 235.658 117.097V117.083L235.671 117.056C235.671 116.961 235.671 116.853 235.671 116.731C235.671 116.704 235.671 116.664 235.671 116.637V116.61V116.596V116.583C235.604 114.149 233.589 112.31 231.466 112.31H228.722ZM243.498 117.421L246.162 122.207H244.864L242.227 117.421H243.498ZM245.932 114.338C245.932 116.637 244.31 117.299 243.498 117.421H239.794H238.955V122.207H237.833V111.269L242.349 111.256C243.728 111.256 245.932 112.04 245.932 114.338ZM242.565 116.312C244.066 116.312 244.823 115.731 244.823 114.338C244.823 113.162 243.742 112.391 242.565 112.391H238.955V116.312H242.565Z" fill="white"/>
<path opacity="0.5" d="M953.167 648.783L955.83 653.569H954.532L951.896 648.783H953.167ZM955.6 645.7C955.6 647.999 953.978 648.661 953.167 648.783H949.462H948.624V653.569H947.502V642.631L952.018 642.617C953.397 642.617 955.6 643.402 955.6 645.7ZM952.234 647.674C953.735 647.674 954.492 647.093 954.492 645.7C954.492 644.524 953.41 643.753 952.234 643.753H948.624V647.674H952.234ZM957.932 653.556H956.823V642.617H957.932V653.556ZM964.482 649.229V648.161H968.93V653.556H967.984L967.821 652.352C966.929 653.272 965.671 653.772 964.184 653.772C961.047 653.772 959.033 651.541 959.033 648.08C959.033 646.322 959.56 644.848 960.547 643.834C961.467 642.901 962.751 642.388 964.184 642.388C966.388 642.388 968.159 643.483 968.93 645.916H967.767C967.132 644.186 965.617 643.496 964.184 643.496C962.197 643.496 960.142 644.781 960.142 648.08C960.142 651.501 962.345 652.663 964.184 652.663C965.658 652.663 967.821 652.055 967.821 649.229H964.482ZM977.527 653.556V648.215H971.308V653.556H970.199V642.617H971.308V647.16H977.527V642.617H978.636V653.556H977.527ZM989.863 643.686H985.28V653.556H984.171V643.686H979.601V642.617H989.863V643.686Z" fill="white"/>
<path d="M822.705 479.97H904.843V477.435C904.843 476.781 904.313 476.252 903.66 476.252H903.491C902.931 476.252 902.477 476.706 902.477 477.266C902.477 477.826 902.023 478.28 901.463 478.28H900.111C899.364 478.28 898.759 477.675 898.759 476.928V468.139C898.759 467.579 898.305 467.125 897.745 467.125C897.185 467.125 896.731 466.671 896.731 466.111V450.563C896.731 449.816 896.125 449.21 895.379 449.21H894.703C893.956 449.21 893.351 449.816 893.351 450.563V476.252C893.351 476.999 892.745 477.604 891.999 477.604H890.984C890.238 477.604 889.632 476.999 889.632 476.252V473.379C889.632 472.912 889.254 472.534 888.787 472.534C888.321 472.534 887.942 472.155 887.942 471.689V469.153C887.942 468.407 887.337 467.801 886.59 467.801H885.914C885.167 467.801 884.562 467.196 884.562 466.449V460.703C884.562 460.143 884.108 459.689 883.548 459.689C882.988 459.689 882.534 459.235 882.534 458.675V455.971C882.534 455.224 881.929 454.619 881.182 454.619H880.506C879.759 454.619 879.154 455.224 879.154 455.971V457.661C879.154 458.221 878.7 458.675 878.14 458.675C877.58 458.675 877.126 459.129 877.126 459.689V462.393C877.126 463.14 876.52 463.745 875.774 463.745H875.098C874.351 463.745 873.746 464.351 873.746 465.097V468.139C873.746 468.886 873.14 469.491 872.394 469.491H869.689C868.943 469.491 868.337 470.097 868.337 470.844V471.182C868.337 471.928 867.732 472.534 866.985 472.534H865.633C865.073 472.534 864.619 472.988 864.619 473.548C864.619 474.108 864.165 474.562 863.605 474.562H859.211C858.464 474.562 857.859 475.167 857.859 475.914V476.928C857.859 477.675 857.253 478.28 856.507 478.28H855.493C854.746 478.28 854.141 477.675 854.141 476.928V475.238C854.141 474.491 853.535 473.886 852.789 473.886H851.606C850.952 473.886 850.422 474.415 850.422 475.069C850.422 475.722 849.893 476.252 849.239 476.252H847.718C847.158 476.252 846.704 476.706 846.704 477.266C846.704 477.826 846.25 478.28 845.69 478.28H845.352C844.792 478.28 844.338 477.826 844.338 477.266C844.338 476.706 843.884 476.252 843.324 476.252H841.634C841.074 476.252 840.62 476.706 840.62 477.266C840.62 477.826 840.166 478.28 839.606 478.28H839.437C838.784 478.28 838.254 477.75 838.254 477.097V475.238C838.254 474.491 837.649 473.886 836.902 473.886H835.55C834.803 473.886 834.198 474.491 834.198 475.238V476.928C834.198 477.675 833.592 478.28 832.846 478.28H831.494C830.933 478.28 830.479 477.826 830.479 477.266C830.479 476.706 830.025 476.252 829.465 476.252H824.057C823.31 476.252 822.705 476.857 822.705 477.604V479.97Z" fill="white"/>
<path d="M807.177 594.619V595.728C804.202 598.54 803.256 603.151 803.256 605.449V605.558H802.161V605.449C802.161 603.002 803.215 598.311 805.595 595.728H799.605V594.619H807.177ZM811.355 605.774C809.665 605.896 807.867 604.841 807.867 603.11H809.03C809.03 603.705 809.665 604.706 811.22 604.652C812.775 604.611 813.559 603.543 813.559 601.88C813.559 600.541 812.761 599.609 811.301 599.595C809.854 599.581 809.341 600.19 809.219 600.785H808.164V594.606H814.235V595.715H809.205V599.392C809.205 599.392 809.665 598.567 811.409 598.567C813.37 598.567 814.6 599.987 814.6 601.88C814.6 604.746 812.964 605.652 811.355 605.774ZM823.363 594.606H824.593L819.293 605.558H818.063L823.363 594.606ZM820.537 597.161C820.537 599.068 819.252 599.919 817.981 599.919C816.71 599.919 815.426 599.068 815.426 597.161C815.426 595.525 816.467 594.39 817.981 594.39C819.509 594.39 820.537 595.498 820.537 597.161ZM817.981 598.824C818.455 598.824 819.266 598.608 819.252 597.148C819.252 596.391 819.036 595.485 817.981 595.485C817.116 595.485 816.697 596.026 816.697 597.148C816.697 597.918 816.913 598.824 817.981 598.824ZM824.647 600.258C826.175 600.258 827.203 601.366 827.203 603.016C827.203 604.922 825.918 605.774 824.647 605.774C823.376 605.774 822.092 604.922 822.092 603.016C822.092 601.393 823.146 600.258 824.647 600.258ZM824.647 604.692C825.134 604.692 825.932 604.476 825.932 603.016C825.932 602.259 825.715 601.353 824.647 601.353C823.795 601.353 823.363 601.894 823.363 603.016C823.363 603.786 823.592 604.692 824.647 604.692Z" fill="white"/>
<path d="M792.115 597.938V603.588M755.609 596.376V605.584C755.609 608.082 757.634 610.106 760.132 610.106H784.157C786.654 610.106 788.679 608.082 788.679 605.584V596.376C788.679 593.878 786.654 591.854 784.157 591.854H760.132C757.634 591.854 755.609 593.878 755.609 596.376Z" stroke="white" stroke-width="1.80907" stroke-linecap="round"/>
<path d="M757.637 604.698V597.262C757.637 595.395 759.15 593.882 761.017 593.882H779.27C781.137 593.882 782.65 595.395 782.65 597.262V604.698C782.65 606.565 781.137 608.079 779.27 608.079H761.017C759.15 608.079 757.637 606.565 757.637 604.698Z" fill="white"/>
<circle cx="619.35" cy="614.35" r="27.8504" stroke="white"/>
<path d="M624.5 604.5V609M624.5 623.5V619.25M614 623.5V619.25M614 604.5V609M614 609H624.5M614 609V619.25M614 609H609.5M629.5 609H624.5M624.5 609V619.25M624.5 619.25H629.5M624.5 619.25H614M609.5 619.25H614" stroke="white" stroke-linecap="round"/>
<circle cx="542.35" cy="614.35" r="28.3504" fill="white"/>
<path d="M553 614C553 607.925 548.075 603 542 603C536.965 603 532.72 606.383 531.414 611M553 614L555.5 611M553 614L550 611M531 614C531 620.075 535.925 625 542 625C547.035 625 551.28 621.617 552.586 617M531 614L534 617M531 614L528.5 617" stroke="black"/>
<path d="M55 168.14V180.503H37.1279M55 168.14H2M55 168.14V155.852M2 168.14V180.503H19.2558M2 168.14V155.852M19.2558 142.294H2V155.852M19.2558 142.294V180.503M19.2558 142.294H37.1279M19.2558 180.503H37.1279M37.1279 180.503V142.294M37.1279 142.294H55V143.452V155.852M2 155.852H55" stroke="white" stroke-width="1.23256"/>
<path d="M14 26.478L35.5148 1L27.0221 21.9486H44.0074L20.7941 46.2943L30.4192 26.478H14Z" stroke="white"/>
<path d="M55 427.161V426.003H37.1279H19.2558H2V439.562V451.85V464.213H19.2558H37.1279H55V451.85V439.562V427.161Z" stroke="white" stroke-width="1.23256"/>
<circle cx="29.1165" cy="444.491" r="10.4767" stroke="white" stroke-width="1.23256"/>
<path d="M33.1227 561.071L33.9126 566.601C33.9662 566.976 34.227 567.289 34.5863 567.408L38.0118 568.55C38.3182 568.652 38.655 568.6 38.9162 568.41L43.3364 565.195C43.7222 564.915 44.2524 564.946 44.6029 565.269L49.8365 570.1C50.2134 570.448 50.266 571.025 49.9582 571.435L46.3522 576.243C46.1348 576.533 46.0912 576.918 46.2384 577.249L47.7728 580.702C47.914 581.019 48.2099 581.241 48.5545 581.287L54.6322 582.097C55.129 582.163 55.5 582.587 55.5 583.088V590.337C55.5 590.839 55.129 591.262 54.6322 591.329L48.5545 592.139C48.2099 592.185 47.914 592.406 47.7728 592.724L46.2501 596.15C46.0967 596.495 46.1508 596.897 46.39 597.19L49.9269 601.512C50.2523 601.91 50.2234 602.49 49.8601 602.853L44.5797 608.133C44.2426 608.47 43.7145 608.523 43.3179 608.258L38.4829 605.035C38.1843 604.836 37.8019 604.812 37.4809 604.972L34.4213 606.502C34.1545 606.636 33.9612 606.881 33.8941 607.172L32.6789 612.438C32.5742 612.891 32.1701 613.213 31.7045 613.213H24.8673C24.3696 613.213 23.9477 612.847 23.8773 612.354L23.0874 606.825C23.0338 606.45 22.773 606.137 22.4137 606.017L18.9293 604.856C18.6564 604.765 18.3576 604.796 18.1092 604.941L13.1938 607.808C12.7886 608.045 12.2734 607.967 11.9552 607.623L7.0831 602.345C6.7478 601.981 6.72822 601.428 7.03703 601.042L10.12 597.188C10.3534 596.896 10.4047 596.499 10.253 596.157L8.70268 592.669C8.57507 592.382 8.31991 592.171 8.01373 592.101L2.77514 590.892C2.32141 590.787 2 590.383 2 589.917V583.071C2 582.577 2.36011 582.157 2.84794 582.082L7.9601 581.296C8.29657 581.244 8.58359 581.025 8.72185 580.714L10.2765 577.216C10.4157 576.903 10.3848 576.54 10.1947 576.255L6.9736 571.423C6.70081 571.014 6.76602 570.467 7.12737 570.134L12.3971 565.269C12.7476 564.946 13.2778 564.915 13.6636 565.195L18.0838 568.41C18.345 568.6 18.6818 568.652 18.9882 568.55L22.4137 567.408C22.773 567.289 23.0338 566.976 23.0874 566.601L23.8773 561.071C23.9477 560.579 24.3696 560.213 24.8673 560.213H32.1327C32.6304 560.213 33.0523 560.579 33.1227 561.071Z" stroke="white" stroke-linecap="round"/>
<circle cx="28.5" cy="586.713" r="10" stroke="white"/>
<path d="M28.5 283.503V276.503M28.5 323.003V330.003M48 303.503H56M9.5 303.503H1M42.5 317.503L48.5 323.503M14.5 289.503L8 283.503M42.5 289.503L48.5 283.503M14.5 317.503L8 323.503" stroke="white" stroke-linecap="round"/>
<circle cx="28.5" cy="303.003" r="10" stroke="white"/>
<circle cx="28.1967" cy="724.306" r="14.6022" stroke="white" stroke-width="0.982143"/>
<circle cx="16.0932" cy="745.942" r="14.6022" stroke="white" stroke-width="0.982143"/>
<circle cx="40.9077" cy="745.942" r="14.6022" stroke="white" stroke-width="0.982143"/>
<path d="M114.825 693.062V702.945H121.004V704H113.73V693.062H114.825ZM122.8 694.13V697.605H128.06V698.673L122.8 698.646V702.945H129.047V704H121.705V693.062H129.047V694.13H122.8ZM138.286 704L131.634 694.333V704H130.525V693.062H131.986L138.624 702.729V693.062H139.733V704H138.286ZM142.167 695.766C142.167 699.011 148.711 696.577 148.711 700.998C148.711 702.418 147.697 704.23 144.75 704.23C142.127 704.23 140.788 702.35 140.788 700.755H141.897C141.897 701.904 142.992 703.121 144.858 703.121C146.872 703.121 147.616 702.012 147.616 700.863C147.616 697.78 141.058 700.201 141.058 695.725C141.058 694.116 142.37 692.845 144.696 692.845C146.872 692.845 148.224 694.184 148.224 696.063H147.116C147.116 694.86 146.21 693.954 144.696 693.954C143.208 693.954 142.167 694.576 142.167 695.766Z" fill="white"/>
<path d="M288.839 704H287.73V693.062H288.839V704ZM291.278 695.766C291.278 699.011 297.822 696.577 297.822 700.998C297.822 702.418 296.808 704.23 293.86 704.23C291.237 704.23 289.899 702.35 289.899 700.755H291.008C291.008 701.904 292.103 703.121 293.969 703.121C295.983 703.121 296.727 702.012 296.727 700.863C296.727 697.78 290.169 700.201 290.169 695.725C290.169 694.116 291.481 692.845 293.806 692.845C295.983 692.845 297.335 694.184 297.335 696.063H296.227C296.227 694.86 295.321 693.954 293.806 693.954C292.319 693.954 291.278 694.576 291.278 695.766ZM303.66 692.845C306.783 692.845 308.811 695.022 308.811 698.538C308.811 702.729 306.148 704.23 303.66 704.23C300.523 704.23 298.509 701.999 298.509 698.538C298.509 696.766 299.036 695.306 300.023 694.279C300.942 693.346 302.227 692.845 303.66 692.845ZM303.66 703.121C306.188 703.121 307.689 701.472 307.689 698.538C307.689 695.13 305.634 693.954 303.66 693.954C301.673 693.954 299.617 695.252 299.617 698.538C299.617 701.918 301.673 703.121 303.66 703.121Z" fill="white"/>
<path d="M418.69 695.766C418.69 699.011 425.234 696.577 425.234 700.998C425.234 702.418 424.22 704.23 421.273 704.23C418.65 704.23 417.311 702.35 417.311 700.755H418.42C418.42 701.904 419.515 703.121 421.381 703.121C423.395 703.121 424.139 702.012 424.139 700.863C424.139 697.78 417.581 700.201 417.581 695.725C417.581 694.116 418.893 692.845 421.218 692.845C423.395 692.845 424.747 694.184 424.747 696.063H423.639C423.639 694.86 422.733 693.954 421.218 693.954C419.731 693.954 418.69 694.576 418.69 695.766ZM433.628 704V698.659H427.408V704H426.299V693.062H427.408V697.605H433.628V693.062H434.736V704H433.628ZM443.584 699.957V693.048H444.706V699.755C444.706 701.296 444.179 704.216 440.393 704.216C436.621 704.216 436.094 701.296 436.094 699.755V693.048H437.202V699.957C437.202 701.904 438.271 703.108 440.393 703.108C442.53 703.108 443.584 701.891 443.584 699.957ZM455.801 694.13H451.217V704H450.108V694.13H445.538V693.062H455.801V694.13ZM466.258 694.13H461.675V704H460.566V694.13H455.996V693.062H466.258V694.13ZM468.062 694.13V697.605H473.322V698.673L468.062 698.646V702.945H474.309V704H466.967V693.062H474.309V694.13H468.062ZM481.452 699.227L484.116 704.014H482.818L480.181 699.227H481.452ZM483.886 696.144C483.886 698.443 482.264 699.106 481.452 699.227H477.748H476.909V704.014H475.787V693.075L480.303 693.062C481.682 693.062 483.886 693.846 483.886 696.144ZM480.519 698.119C482.02 698.119 482.777 697.537 482.777 696.144C482.777 694.968 481.696 694.198 480.519 694.198H476.909V698.119H480.519Z" fill="white"/>
</svg>
