<svg width="433" height="102" viewBox="0 0 433 102" fill="none" xmlns="http://www.w3.org/2000/svg">
<rect x="0.449954" y="0.449954" width="431.727" height="100.268" rx="4.04959" fill="white" stroke="white" stroke-width="0.899908"/>
<path d="M124.174 47.6884H110.214V62.4724H107.182V32.1933H127.131V35.1501H110.214V44.769H124.174V47.6884ZM149.62 51.2815V32.1559H152.727V50.7201C152.727 54.9868 151.267 63.0713 140.787 63.0713C130.345 63.0713 128.885 54.9868 128.885 50.7201V32.1559H131.954V51.2815C131.954 56.6711 134.911 60.0022 140.787 60.0022C146.701 60.0022 149.62 56.6337 149.62 51.2815ZM159.484 32.1933V59.553H176.589V62.4724H156.452V32.1933H159.484ZM181.561 32.1933V59.553H198.665V62.4724H178.529V32.1933H181.561ZM228.227 62.4724L217.747 35.7115V62.4724H214.678V32.1933H219.581L229.649 58.1308L239.642 32.1933H244.582V62.4724H241.476L241.513 35.7115L231.034 62.4724H228.227ZM251.701 35.1501V44.769H266.261V47.7258L251.701 47.651V59.553H268.993V62.4724H248.67V32.1933H268.993V35.1501H251.701ZM294.569 62.4724L276.155 35.7115V62.4724H273.086V32.1933H277.128L295.505 58.9542V32.1933H298.574V62.4724H294.569ZM323.053 51.2815V32.1559H326.16V50.7201C326.16 54.9868 324.7 63.0713 314.22 63.0713C303.778 63.0713 302.318 54.9868 302.318 50.7201V32.1559H305.387V51.2815C305.387 56.6711 308.344 60.0022 314.22 60.0022C320.134 60.0022 323.053 56.6337 323.053 51.2815Z" fill="black"/>
</svg>
