<svg width="1917" height="1344" viewBox="0 0 1917 1344" fill="none" xmlns="http://www.w3.org/2000/svg">
<g opacity="0.5">
<rect width="958.434" height="106.493" transform="matrix(8.74228e-08 -1 -1 -2.44655e-08 1916.87 1343.14)" fill="url(#paint0_linear_1233_235743)"/>
<rect width="958.434" height="106.493" transform="matrix(8.74228e-08 -1 -1 -2.21046e-08 1810.38 1320.51)" fill="url(#paint1_linear_1233_235743)"/>
<rect width="958.434" height="106.493" transform="matrix(8.74228e-08 -1 -1 -2.21046e-08 1703.88 1297.88)" fill="url(#paint2_linear_1233_235743)"/>
<rect width="958.434" height="106.493" transform="matrix(8.74228e-08 -1 -1 -2.21046e-08 1490.9 1252.62)" fill="url(#paint3_linear_1233_235743)"/>
<rect width="958.434" height="106.493" transform="matrix(8.74228e-08 -1 -1 -2.21046e-08 1171.42 1184.73)" fill="url(#paint4_linear_1233_235743)"/>
<rect width="958.434" height="106.493" transform="matrix(8.74228e-08 -1 -1 -2.21046e-08 851.941 1116.84)" fill="url(#paint5_linear_1233_235743)"/>
<rect width="958.434" height="106.493" transform="matrix(8.74228e-08 -1 -1 -2.21046e-08 425.971 1026.32)" fill="url(#paint6_linear_1233_235743)"/>
<rect width="958.434" height="106.493" transform="matrix(8.74228e-08 -1 -1 -2.21046e-08 106.492 958.434)" fill="url(#paint7_linear_1233_235743)"/>
<rect width="958.434" height="106.493" transform="matrix(8.74228e-08 -1 -1 -2.21046e-08 1597.39 1275.25)" fill="url(#paint8_linear_1233_235743)"/>
<rect width="958.434" height="106.493" transform="matrix(8.74228e-08 -1 -1 -2.21046e-08 1277.91 1207.36)" fill="url(#paint9_linear_1233_235743)"/>
<rect width="958.434" height="106.493" transform="matrix(8.74228e-08 -1 -1 -2.21046e-08 958.435 1139.47)" fill="url(#paint10_linear_1233_235743)"/>
<rect width="958.434" height="106.493" transform="matrix(8.74228e-08 -1 -1 -2.21046e-08 532.463 1048.95)" fill="url(#paint11_linear_1233_235743)"/>
<rect width="958.434" height="106.493" transform="matrix(8.74228e-08 -1 -1 -2.21046e-08 212.986 981.063)" fill="url(#paint12_linear_1233_235743)"/>
<rect width="958.434" height="106.493" transform="matrix(8.74228e-08 -1 -1 -2.21046e-08 1384.41 1229.99)" fill="url(#paint13_linear_1233_235743)"/>
<rect width="958.434" height="106.493" transform="matrix(8.74228e-08 -1 -1 -2.21046e-08 1064.93 1162.1)" fill="url(#paint14_linear_1233_235743)"/>
<rect width="958.434" height="106.493" transform="matrix(8.74228e-08 -1 -1 -2.21046e-08 638.957 1071.58)" fill="url(#paint15_linear_1233_235743)"/>
<rect width="958.434" height="106.493" transform="matrix(8.74228e-08 -1 -1 -2.21046e-08 745.449 1094.21)" fill="url(#paint16_linear_1233_235743)"/>
<rect width="958.434" height="106.493" transform="matrix(8.74228e-08 -1 -1 -2.21046e-08 319.479 1003.69)" fill="url(#paint17_linear_1233_235743)"/>
</g>
<defs>
<linearGradient id="paint0_linear_1233_235743" x1="958.434" y1="52.605" x2="-1.23771e-05" y2="52.6048" gradientUnits="userSpaceOnUse">
<stop stop-color="#FD4B28" stop-opacity="0"/>
<stop offset="0.488585" stop-color="#FD4B28"/>
<stop offset="1" stop-color="#FD4B28" stop-opacity="0"/>
</linearGradient>
<linearGradient id="paint1_linear_1233_235743" x1="958.434" y1="52.605" x2="-1.23771e-05" y2="52.6048" gradientUnits="userSpaceOnUse">
<stop stop-color="#FD4B28" stop-opacity="0"/>
<stop offset="0.488585" stop-color="#FD4B28"/>
<stop offset="1" stop-color="#FD4B28" stop-opacity="0"/>
</linearGradient>
<linearGradient id="paint2_linear_1233_235743" x1="958.434" y1="52.605" x2="-1.23771e-05" y2="52.6048" gradientUnits="userSpaceOnUse">
<stop stop-color="#FD4B28" stop-opacity="0"/>
<stop offset="0.488585" stop-color="#FD4B28"/>
<stop offset="1" stop-color="#FD4B28" stop-opacity="0"/>
</linearGradient>
<linearGradient id="paint3_linear_1233_235743" x1="958.434" y1="52.605" x2="-1.23771e-05" y2="52.6048" gradientUnits="userSpaceOnUse">
<stop stop-color="#FD4B28" stop-opacity="0"/>
<stop offset="0.488585" stop-color="#FD4B28"/>
<stop offset="1" stop-color="#FD4B28" stop-opacity="0"/>
</linearGradient>
<linearGradient id="paint4_linear_1233_235743" x1="958.434" y1="52.605" x2="-1.23771e-05" y2="52.6048" gradientUnits="userSpaceOnUse">
<stop stop-color="#FD4B28" stop-opacity="0"/>
<stop offset="0.488585" stop-color="#FD4B28"/>
<stop offset="1" stop-color="#FD4B28" stop-opacity="0"/>
</linearGradient>
<linearGradient id="paint5_linear_1233_235743" x1="958.434" y1="52.605" x2="-1.23771e-05" y2="52.6048" gradientUnits="userSpaceOnUse">
<stop stop-color="#FD4B28" stop-opacity="0"/>
<stop offset="0.488585" stop-color="#FD4B28"/>
<stop offset="1" stop-color="#FD4B28" stop-opacity="0"/>
</linearGradient>
<linearGradient id="paint6_linear_1233_235743" x1="958.434" y1="52.605" x2="-1.23771e-05" y2="52.6048" gradientUnits="userSpaceOnUse">
<stop stop-color="#FD4B28" stop-opacity="0"/>
<stop offset="0.488585" stop-color="#FD4B28"/>
<stop offset="1" stop-color="#FD4B28" stop-opacity="0"/>
</linearGradient>
<linearGradient id="paint7_linear_1233_235743" x1="958.434" y1="52.605" x2="-1.23771e-05" y2="52.6048" gradientUnits="userSpaceOnUse">
<stop stop-color="#FD4B28" stop-opacity="0"/>
<stop offset="0.488585" stop-color="#FD4B28"/>
<stop offset="1" stop-color="#FD4B28" stop-opacity="0"/>
</linearGradient>
<linearGradient id="paint8_linear_1233_235743" x1="958.434" y1="52.605" x2="-1.23771e-05" y2="52.6048" gradientUnits="userSpaceOnUse">
<stop stop-color="#FD4B28" stop-opacity="0"/>
<stop offset="0.488585" stop-color="#FD4B28"/>
<stop offset="1" stop-color="#FD4B28" stop-opacity="0"/>
</linearGradient>
<linearGradient id="paint9_linear_1233_235743" x1="958.434" y1="52.605" x2="-1.23771e-05" y2="52.6048" gradientUnits="userSpaceOnUse">
<stop stop-color="#FD4B28" stop-opacity="0"/>
<stop offset="0.488585" stop-color="#FD4B28"/>
<stop offset="1" stop-color="#FD4B28" stop-opacity="0"/>
</linearGradient>
<linearGradient id="paint10_linear_1233_235743" x1="958.434" y1="52.605" x2="-1.23771e-05" y2="52.6048" gradientUnits="userSpaceOnUse">
<stop stop-color="#FD4B28" stop-opacity="0"/>
<stop offset="0.488585" stop-color="#FD4B28"/>
<stop offset="1" stop-color="#FD4B28" stop-opacity="0"/>
</linearGradient>
<linearGradient id="paint11_linear_1233_235743" x1="958.434" y1="52.605" x2="-1.23771e-05" y2="52.6048" gradientUnits="userSpaceOnUse">
<stop stop-color="#FD4B28" stop-opacity="0"/>
<stop offset="0.488585" stop-color="#FD4B28"/>
<stop offset="1" stop-color="#FD4B28" stop-opacity="0"/>
</linearGradient>
<linearGradient id="paint12_linear_1233_235743" x1="958.434" y1="52.605" x2="-1.23771e-05" y2="52.6048" gradientUnits="userSpaceOnUse">
<stop stop-color="#FD4B28" stop-opacity="0"/>
<stop offset="0.488585" stop-color="#FD4B28"/>
<stop offset="1" stop-color="#FD4B28" stop-opacity="0"/>
</linearGradient>
<linearGradient id="paint13_linear_1233_235743" x1="958.434" y1="52.605" x2="-1.23771e-05" y2="52.6048" gradientUnits="userSpaceOnUse">
<stop stop-color="#FD4B28" stop-opacity="0"/>
<stop offset="0.488585" stop-color="#FD4B28"/>
<stop offset="1" stop-color="#FD4B28" stop-opacity="0"/>
</linearGradient>
<linearGradient id="paint14_linear_1233_235743" x1="958.434" y1="52.605" x2="-1.23771e-05" y2="52.6048" gradientUnits="userSpaceOnUse">
<stop stop-color="#FD4B28" stop-opacity="0"/>
<stop offset="0.488585" stop-color="#FD4B28"/>
<stop offset="1" stop-color="#FD4B28" stop-opacity="0"/>
</linearGradient>
<linearGradient id="paint15_linear_1233_235743" x1="958.434" y1="52.605" x2="-1.23771e-05" y2="52.6048" gradientUnits="userSpaceOnUse">
<stop stop-color="#FD4B28" stop-opacity="0"/>
<stop offset="0.488585" stop-color="#FD4B28"/>
<stop offset="1" stop-color="#FD4B28" stop-opacity="0"/>
</linearGradient>
<linearGradient id="paint16_linear_1233_235743" x1="958.434" y1="52.605" x2="-1.23771e-05" y2="52.6048" gradientUnits="userSpaceOnUse">
<stop stop-color="#FD4B28" stop-opacity="0"/>
<stop offset="0.488585" stop-color="#FD4B28"/>
<stop offset="1" stop-color="#FD4B28" stop-opacity="0"/>
</linearGradient>
<linearGradient id="paint17_linear_1233_235743" x1="958.434" y1="52.605" x2="-1.23771e-05" y2="52.6048" gradientUnits="userSpaceOnUse">
<stop stop-color="#FD4B28" stop-opacity="0"/>
<stop offset="0.488585" stop-color="#FD4B28"/>
<stop offset="1" stop-color="#FD4B28" stop-opacity="0"/>
</linearGradient>
</defs>
</svg>
