<svg width="193" height="236" viewBox="0 0 193 236" fill="none" xmlns="http://www.w3.org/2000/svg">
<rect x="141" y="1" width="52" height="218" fill="black"/>
<path d="M3.50008 0.999994L137.25 1C138.631 1 139.75 2.11929 139.75 3.5L139.75 13.5L139.75 205.5L139.75 215.5C139.75 216.881 138.631 218 137.25 218L91.6634 218L91.6634 233C91.6634 234.381 90.5441 235.5 89.1634 235.5L46.0767 235.5C44.696 235.5 43.5768 234.381 43.5768 233L43.5768 218L3.50007 218C2.11936 218 1.00007 216.881 1.00007 215.5L1.00007 205.5L1.00007 194.5L1.00008 22L1.00008 13.5L1.00008 3.49999C1.00008 2.11928 2.11937 0.999994 3.50008 0.999994Z" fill="black"/>
<path d="M139.75 205.5L139.75 215.5C139.75 216.881 138.631 218 137.25 218L91.6634 218M139.75 205.5L139.75 13.5M139.75 205.5L102.683 205.5M1.00007 205.5L1.00007 215.5C1.00007 216.881 2.11936 218 3.50007 218L43.5768 218M1.00007 205.5L29.5515 205.5M1.00007 205.5L1.00007 194.5L1.00008 22L1.00008 13.5M139.75 13.5L139.75 3.5C139.75 2.11929 138.631 1 137.25 1L3.50008 0.999994C2.11936 0.999994 1.00008 2.11928 1.00008 3.49999L1.00008 13.5M139.75 13.5L102.683 13.5M1.00008 13.5L29.5515 13.5M102.683 13.5L102.683 205.5M102.683 13.5L29.5515 13.5M102.683 205.5L29.5515 205.5M29.5515 205.5L29.5515 13.5M91.6634 218L91.6634 233C91.6634 234.381 90.5441 235.5 89.1634 235.5L46.0768 235.5C44.696 235.5 43.5768 234.381 43.5768 233L43.5768 218M91.6634 218L43.5768 218" stroke="white"/>
<rect x="1.75" y="62" width="23" height="2" fill="white"/>
<rect x="1.75" y="95" width="23" height="2" fill="white"/>
<rect x="1.75" y="128" width="23" height="2" fill="white"/>
<rect x="1.75" y="67" width="23" height="4" fill="white"/>
<rect x="1.75" y="100" width="23" height="4" fill="white"/>
<rect x="1.75" y="133" width="23" height="4" fill="white"/>
<rect x="1.75" y="88" width="23" height="4" fill="white"/>
<rect x="1.75" y="121" width="23" height="4" fill="white"/>
<rect x="1.75" y="154" width="23" height="4" fill="white"/>
<rect x="1.75" y="74" width="23" height="2" fill="white"/>
<rect x="1.75" y="107" width="23" height="2" fill="white"/>
<rect x="1.75" y="140" width="23" height="2" fill="white"/>
<rect x="1.75" y="79" width="23" height="2" fill="white"/>
<rect x="1.75" y="112" width="23" height="2" fill="white"/>
<rect x="1.75" y="145" width="23" height="2" fill="white"/>
<rect x="1.75" y="84" width="23" height="1" fill="white"/>
<rect x="1.75" y="117" width="23" height="1" fill="white"/>
<rect x="1.75" y="150" width="23" height="1" fill="white"/>
<rect x="30.25" y="13.5" width="72" height="192" fill="#48E2DC" stroke="white"/>
<path d="M91.458 26.584C91.458 28.648 89.982 29.764 88.59 29.764C87.198 29.764 85.782 28.672 85.782 26.596L85.782 23.644L81.75 23.644L81.75 22.648L91.458 22.648L91.458 26.584ZM86.766 26.776C86.766 27.724 87.366 28.792 88.59 28.792C89.838 28.792 90.474 27.712 90.474 26.776L90.474 23.644L86.766 23.644L86.766 26.776ZM84.534 35.1675L84.534 30.8835L81.75 29.8875L81.75 28.8555L91.458 32.4795L91.458 33.5835L81.75 37.2195L81.75 36.1635L84.534 35.1675ZM90.546 33.0315L85.482 31.2195L85.482 34.8315L90.546 33.0315ZM84.414 44.5067C82.458 44.5067 81.558 43.3187 81.558 41.0627C81.558 37.4867 83.766 37.4027 84.654 37.4027L84.654 38.3147C84.15 38.3147 82.494 38.4347 82.494 40.9307C82.494 43.1147 83.538 43.6907 84.654 43.5587C85.494 43.4627 86.214 42.4907 86.214 40.7627L87.114 40.7627C87.114 43.1627 88.506 43.3067 89.022 43.3067C90.186 43.3067 90.702 42.1907 90.702 41.1947C90.702 39.5987 89.814 38.8907 88.818 38.7467L88.818 37.7627C90.282 37.8707 91.65 38.9387 91.65 41.0507C91.65 43.2947 90.51 44.2667 88.794 44.2667C87.126 44.2667 86.682 42.7907 86.682 42.7907C86.682 42.7907 86.442 44.5067 84.414 44.5067ZM91.458 49.4942C91.458 51.5582 89.982 52.6742 88.59 52.6742C87.198 52.6742 85.782 51.5822 85.782 49.5062L85.782 46.5542L81.75 46.5542L81.75 45.5582L91.458 45.5582L91.458 49.4942ZM86.766 49.6862C86.766 50.6342 87.366 51.7022 88.59 51.7022C89.838 51.7022 90.474 50.6222 90.474 49.6862L90.474 46.5542L86.766 46.5542L86.766 49.6862ZM84.534 58.0776L84.534 53.7936L81.75 52.7976L81.75 51.7656L91.458 55.3896L91.458 56.4936L81.75 60.1296L81.75 59.0736L84.534 58.0776ZM90.546 55.9416L85.482 54.1296L85.482 57.7416L90.546 55.9416ZM87.186 64.7888C87.186 66.8288 85.782 67.8008 84.522 67.8008C82.542 67.8008 81.75 66.8288 81.75 64.5848L81.75 60.7808L91.458 60.7808L91.458 66.8648L90.498 66.8648L90.498 61.7528L87.186 61.7528L87.186 64.7888ZM82.698 64.7648C82.698 65.9888 83.166 66.8288 84.378 66.8288C85.362 66.8288 86.238 66.0608 86.238 64.7408L86.238 61.7528L82.698 61.7528L82.698 64.7648ZM91.662 72.9153C91.662 75.6873 89.73 77.4873 86.61 77.4873C82.878 77.4873 81.558 75.1232 81.558 72.9152C81.558 70.1312 83.538 68.3432 86.61 68.3432C88.17 68.3432 89.478 68.8112 90.378 69.6873C91.206 70.5033 91.662 71.6433 91.662 72.9153ZM82.542 72.9152C82.542 75.1593 84.006 76.4913 86.61 76.4913C89.634 76.4913 90.678 74.6673 90.678 72.9153C90.678 71.1513 89.526 69.3272 86.61 69.3272C83.598 69.3272 82.542 71.1512 82.542 72.9152ZM90.51 86.4077L90.51 82.3397L81.75 82.3397L81.75 81.3557L90.51 81.3557L90.51 77.2997L91.458 77.2997L91.458 86.4077L90.51 86.4077ZM84.534 91.4761L84.534 87.1921L81.75 86.1961L81.75 85.1641L91.458 88.7881L91.458 89.8921L81.75 93.5281L81.75 92.4721L84.534 91.4761ZM90.546 89.3401L85.482 87.5281L85.482 91.1401L90.546 89.3401ZM81.75 100.683L86.49 100.683L86.49 95.1632L81.75 95.1632L81.75 94.1792L91.458 94.1793L91.458 95.1633L87.426 95.1632L87.426 100.683L91.458 100.683L91.458 101.667L81.75 101.667L81.75 100.683ZM91.662 107.216C91.662 109.988 89.73 111.788 86.61 111.788C82.878 111.788 81.558 109.424 81.558 107.216C81.558 104.432 83.538 102.644 86.61 102.644C88.17 102.644 89.478 103.112 90.378 103.988C91.206 104.804 91.662 105.944 91.662 107.216ZM82.542 107.216C82.542 109.46 84.006 110.792 86.61 110.792C89.634 110.792 90.678 108.968 90.678 107.216C90.678 105.452 89.526 103.628 86.61 103.628C83.598 103.628 82.542 105.452 82.542 107.216ZM78.522 28.648L78.522 24.808L77.97 24.808C75.906 24.808 74.298 24.796 72.378 24.556C70.266 24.304 69.75 23.836 69.75 21.94C69.75 21.94 70.506 21.94 70.686 21.94C70.686 23.38 70.806 23.476 72.978 23.716C73.818 23.812 75.15 23.92 76.758 23.92L79.458 23.92L79.458 29.596L69.75 29.596L69.75 28.648L78.522 28.648ZM72.534 36.5972L72.534 32.3132L69.75 31.3172L69.75 30.2852L79.458 33.9092L79.458 35.0132L69.75 38.6492L69.75 37.5932L72.534 36.5972ZM78.546 34.4612L73.482 32.6492L73.482 36.2612L78.546 34.4612ZM75.186 43.3083C75.186 45.3483 73.782 46.3203 72.522 46.3203C70.542 46.3203 69.75 45.3483 69.75 43.1043L69.75 39.3003L79.458 39.3003L79.458 45.3843L78.498 45.3843L78.498 40.2723L75.186 40.2723L75.186 43.3083ZM70.698 43.2843C70.698 44.5083 71.166 45.3483 72.378 45.3483C73.362 45.3483 74.238 44.5803 74.238 43.2603L74.238 40.2723L70.698 40.2723L70.698 43.2843ZM79.662 51.4348C79.662 54.2068 77.73 56.0068 74.61 56.0068C70.878 56.0068 69.558 53.6428 69.558 51.4348C69.558 48.6508 71.538 46.8628 74.61 46.8628C76.17 46.8628 77.478 47.3308 78.378 48.2068C79.206 49.0228 79.662 50.1628 79.662 51.4348ZM70.542 51.4348C70.542 53.6788 72.006 55.0108 74.61 55.0108C77.634 55.0108 78.678 53.1868 78.678 51.4348C78.678 49.6708 77.526 47.8468 74.61 47.8468C71.598 47.8468 70.542 49.6708 70.542 51.4348ZM79.458 60.9317C79.458 62.9957 77.982 64.1117 76.59 64.1117C75.198 64.1117 73.782 63.0197 73.782 60.9437L73.782 57.9917L69.75 57.9917L69.75 56.9957L79.458 56.9957L79.458 60.9317ZM74.766 61.1237C74.766 62.0717 75.366 63.1397 76.59 63.1397C77.838 63.1397 78.474 62.0597 78.474 61.1237L78.474 57.9917L74.766 57.9917L74.766 61.1237ZM72.534 69.5151L72.534 65.2311L69.75 64.2351L69.75 63.2031L79.458 66.8271L79.458 67.9311L69.75 71.5671L69.75 70.5111L72.534 69.5151ZM78.546 67.3791L73.482 65.5671L73.482 69.1791L78.546 67.3791ZM78.51 79.4233L78.51 75.3553L69.75 75.3553L69.75 74.3713L78.51 74.3713L78.51 70.3153L79.458 70.3153L79.458 79.4233L78.51 79.4233ZM79.662 83.7902C79.662 86.5622 77.73 88.3622 74.61 88.3622C70.878 88.3622 69.558 85.9982 69.558 83.7902C69.558 81.0062 71.538 79.2182 74.61 79.2182C76.17 79.2182 77.478 79.6862 78.378 80.5622C79.206 81.3782 79.662 82.5182 79.662 83.7902ZM70.542 83.7902C70.542 86.0342 72.006 87.3662 74.61 87.3662C77.634 87.3662 78.678 85.5422 78.678 83.7902C78.678 82.0262 77.526 80.2022 74.61 80.2022C71.598 80.2022 70.542 82.0262 70.542 83.7902ZM79.458 93.2871C79.458 95.3511 77.982 96.4671 76.59 96.4671C75.198 96.4671 73.782 95.3751 73.782 93.2991L73.782 90.3471L69.75 90.3471L69.75 89.3511L79.458 89.3511L79.458 93.2871ZM74.766 93.4791C74.766 94.4271 75.366 95.4951 76.59 95.4951C77.838 95.4951 78.474 94.4151 78.474 93.4791L78.474 90.3471L74.766 90.3471L74.766 93.4791ZM78.33 104.461L69.75 98.545L69.75 97.273L79.458 97.273L79.458 98.257L70.878 98.257L79.458 104.149L79.458 105.445L69.75 105.445L69.75 104.461L78.33 104.461ZM78.51 107.737L75.426 107.737L75.426 112.405L74.478 112.405L74.502 107.737L70.686 107.737L70.686 113.281L69.75 113.281L69.75 106.765L79.458 106.765L79.458 113.281L78.51 113.281L78.51 107.737ZM79.65 118.17C79.65 117.018 80.478 115.998 81.774 115.998L81.774 116.778C81.162 116.778 80.418 117.21 80.418 118.17C80.418 119.118 81.162 119.538 81.774 119.538L81.774 120.318C80.478 120.318 79.65 119.31 79.65 118.17ZM79.458 120.954L79.458 122.25L69.75 122.25L69.75 121.266L78.33 121.266L69.75 115.35L69.75 114.078L79.458 114.078L79.458 115.062L70.878 115.062L79.458 120.954ZM57.75 29.152L66.51 29.152L66.51 23.632L57.75 23.632L57.75 22.648L67.458 22.648L67.458 30.136L57.75 30.136L57.75 29.152ZM66.51 32.4208L63.426 32.4208L63.426 37.0888L62.478 37.0888L62.502 32.4208L58.686 32.4208L58.686 37.9648L57.75 37.9648L57.75 31.4488L67.458 31.4488L67.458 37.9648L66.51 37.9648L66.51 32.4208ZM67.458 42.6973C67.458 44.7613 65.982 45.8773 64.59 45.8773C63.198 45.8773 61.782 44.7853 61.782 42.7093L61.782 39.7573L57.75 39.7573L57.75 38.7613L67.458 38.7613L67.458 42.6973ZM62.766 42.8893C62.766 43.8373 63.366 44.9053 64.59 44.9053C65.838 44.9053 66.474 43.8253 66.474 42.8893L66.474 39.7573L62.766 39.7573L62.766 42.8893ZM66.51 47.6552L63.426 47.6552L63.426 52.3232L62.478 52.3232L62.502 47.6552L58.686 47.6552L58.686 53.1992L57.75 53.1992L57.75 46.6832L67.458 46.6832L67.458 53.1992L66.51 53.1992L66.51 47.6552ZM57.75 58.3397L66.33 54.9797L57.75 54.9797L57.75 53.9957L67.458 53.9957L67.458 55.5677L59.142 58.7957L67.458 61.9997L67.458 63.5837L57.75 63.5837L57.75 62.5877L66.33 62.5997L57.75 59.2397L57.75 58.3397ZM67.662 69.1301C67.662 71.9021 65.73 73.7021 62.61 73.7021C58.878 73.7021 57.558 71.3381 57.558 69.1301C57.558 66.3461 59.538 64.5581 62.61 64.5581C64.17 64.5581 65.478 65.0261 66.378 65.9021C67.206 66.7181 67.662 67.8581 67.662 69.1301ZM58.542 69.1301C58.542 71.3741 60.006 72.7061 62.61 72.7061C65.634 72.7061 66.678 70.8821 66.678 69.1301C66.678 67.3661 65.526 65.5421 62.61 65.5421C59.598 65.5421 58.542 67.3661 58.542 69.1301ZM66.51 82.6225L66.51 78.5545L57.75 78.5545L57.75 77.5705L66.51 77.5705L66.51 73.5145L67.458 73.5145L67.458 82.6225L66.51 82.6225ZM62.082 84.2177L67.458 89.1377L67.458 90.4697L63.534 86.8817L57.75 90.9137L57.75 89.7257L62.802 86.2097L60.63 84.2177L57.75 84.2177L57.75 83.2457L67.458 83.2457L67.458 84.2177L62.082 84.2177ZM66.33 98.754L57.75 92.838L57.75 91.566L67.458 91.566L67.458 92.55L58.878 92.55L67.458 98.442L67.458 99.738L57.75 99.738L57.75 98.754L66.33 98.754Z" fill="black"/>
<path d="M78.6451 189.462L78.6442 189.463C77.4729 190.644 76.8984 192.232 76.8984 194.197C76.8984 196.162 77.4729 197.748 78.6447 198.923L78.6451 198.924C79.8279 200.105 81.4148 200.684 83.3769 200.684L83.3774 200.684L83.4179 200.684L83.6674 200.684V200.434V197.597V197.346L83.4166 197.347L83.3769 197.347C83.3767 197.347 83.3766 197.347 83.3765 197.347C82.3258 197.347 81.4756 197.062 80.8069 196.506L80.8067 196.506C80.1581 195.969 79.8239 195.208 79.8239 194.189C79.8239 193.17 80.1581 192.409 80.8067 191.872C81.4677 191.324 82.3574 191.039 83.4174 191.039H83.6674V190.789V188.193V187.943L83.4179 187.943L83.3774 187.943H83.3769C81.4451 187.943 79.8429 188.267 78.6451 189.462Z" stroke="black" stroke-width="0.5"/>
<path d="M83.9973 199.334C85.9457 199.326 87.5166 198.746 88.6805 197.573C89.8583 196.403 90.4355 194.817 90.4355 192.847C90.4355 190.876 89.8583 189.288 88.6808 188.112C87.5168 186.939 85.9458 186.36 83.9972 186.352L83.9967 186.352L83.7462 186.351V186.602V189.439V189.687L83.9562 189.689L83.9562 189.689L83.9946 189.689C83.9948 189.689 83.9949 189.689 83.995 189.689C85.0407 189.696 85.8811 189.979 86.5356 190.521C87.1842 191.059 87.5185 191.819 87.5185 192.839C87.5185 193.858 87.1842 194.618 86.5356 195.156L86.5355 195.156C85.8748 195.705 85.034 195.99 83.9947 195.996L83.9562 195.997L83.9562 195.997L83.7463 195.998V196.246V199.084V199.335L83.9973 199.334Z" stroke="black" stroke-width="0.5"/>
<path d="M43.532 152.121C43.532 153.388 42.797 153.955 41.817 153.955C40.928 153.955 40.368 153.451 40.13 152.408C39.899 151.428 40.032 150.98 38.317 150.98L38.317 154.032L37.75 154.032L37.75 150.406C38.037 150.406 37.995 150.399 38.317 150.399C40.172 150.399 40.382 150.917 40.669 152.198C40.9 153.234 41.355 153.374 41.929 153.374C42.461 153.374 42.958 152.982 42.958 152.254C42.958 151.589 42.713 150.882 41.971 150.812L41.971 150.245C42.839 150.294 43.532 150.966 43.532 152.121ZM43.532 156.578C43.532 157.978 42.426 158.72 40.585 158.72C38.709 158.72 37.638 157.978 37.638 156.578C37.638 155.192 38.709 154.436 40.585 154.436C42.398 154.436 43.532 155.185 43.532 156.578ZM38.212 156.578C38.212 157.474 38.807 158.146 40.585 158.146C42.335 158.146 42.958 157.474 42.958 156.578C42.958 155.703 42.321 155.01 40.585 155.01C38.8 155.01 38.212 155.703 38.212 156.578ZM43.532 161.418C43.532 162.818 42.426 163.56 40.585 163.56C38.709 163.56 37.638 162.818 37.638 161.418C37.638 160.032 38.709 159.276 40.585 159.276C42.398 159.276 43.532 160.025 43.532 161.418ZM38.212 161.418C38.212 162.314 38.807 162.986 40.585 162.986C42.335 162.986 42.958 162.314 42.958 161.418C42.958 160.543 42.321 159.85 40.585 159.85C38.8 159.85 38.212 160.543 38.212 161.418ZM40.914 177.044C40.914 177.044 40.795 178.199 39.416 178.199C38.226 178.199 37.638 177.499 37.638 176.337C37.638 175.28 38.233 174.587 39.227 174.531L39.227 175.091C38.457 175.28 38.198 175.623 38.198 176.491C38.198 177.254 38.751 177.625 39.507 177.625C39.99 177.625 40.55 177.254 40.648 176.358L41.152 176.358C41.243 176.988 41.558 177.282 41.971 177.282C42.671 177.282 42.958 176.904 42.958 176.288C42.958 175.77 42.713 175.504 42.244 175.378L42.244 174.811C42.986 174.867 43.532 175.392 43.532 176.288C43.532 177.373 42.818 177.863 42.111 177.863C41.005 177.863 40.914 177.044 40.914 177.044ZM43.532 180.558C43.532 181.51 43.007 181.916 42.307 182.014L42.307 181.468C42.797 181.335 42.986 180.95 42.958 180.551C42.916 179.886 42.496 179.522 41.537 179.375C40.83 179.263 40.424 179.291 40.424 179.291C40.424 179.291 41.222 179.522 41.222 180.712C41.222 181.874 40.123 182.231 39.542 182.231C38.226 182.231 37.652 181.398 37.638 180.726C37.61 179.732 38.037 178.766 40.34 178.766C41.348 178.766 42.125 178.899 42.664 179.172C43.252 179.473 43.532 179.921 43.532 180.558ZM40.655 180.649C40.655 179.886 40.2 179.417 39.633 179.403C38.618 179.375 38.184 179.774 38.226 180.691C38.261 181.391 38.891 181.748 39.598 181.706C40.151 181.671 40.655 181.3 40.655 180.649ZM42.86 186.075L41.061 186.075L41.061 188.798L40.508 188.798L40.522 186.075L38.296 186.075L38.296 189.309L37.75 189.309L37.75 185.508L43.413 185.508L43.413 189.309L42.86 189.309L42.86 186.075ZM43.413 194.372L40.543 192.377L37.743 194.323L37.743 193.623L40.039 192.034L37.743 190.438L37.743 189.738L40.543 191.684L43.413 189.696L43.413 190.389L41.047 192.034L43.413 193.672L43.413 194.372ZM43.413 197.053C43.413 198.257 42.552 198.908 41.74 198.908C40.928 198.908 40.095 198.271 40.095 197.06L40.095 195.338L37.743 195.338L37.743 194.757L43.413 194.757L43.413 197.053ZM40.676 197.165C40.676 197.718 41.026 198.341 41.74 198.341C42.461 198.341 42.839 197.711 42.839 197.165L42.839 195.338L40.676 195.338L40.676 197.165ZM37.75 199.459L37.75 198.71L38.52 198.71L38.52 199.459L37.75 199.459Z" fill="black"/>
<path d="M40.914 24.674C40.914 24.674 40.795 25.829 39.416 25.829C38.226 25.829 37.638 25.129 37.638 23.967C37.638 22.91 38.233 22.217 39.227 22.161L39.227 22.721C38.457 22.91 38.198 23.253 38.198 24.121C38.198 24.884 38.751 25.255 39.507 25.255C39.99 25.255 40.55 24.884 40.648 23.988L41.152 23.988C41.243 24.618 41.558 24.912 41.971 24.912C42.671 24.912 42.958 24.534 42.958 23.918C42.958 23.4 42.713 23.134 42.244 23.008L42.244 22.441C42.986 22.497 43.532 23.022 43.532 23.918C43.532 25.003 42.818 25.493 42.111 25.493C41.005 25.493 40.914 24.674 40.914 24.674ZM37.638 28.1332C37.575 27.2582 38.121 26.3272 39.017 26.3272L39.017 26.9292C38.709 26.9292 38.191 27.2582 38.219 28.0632C38.24 28.8682 38.793 29.2742 39.654 29.2742C40.347 29.2742 40.83 28.8612 40.837 28.1052C40.844 27.3562 40.529 27.0902 40.221 27.0272L40.221 26.4812L43.42 26.4812L43.42 29.6242L42.846 29.6242L42.846 27.0202L40.942 27.0202C40.942 27.0202 41.369 27.2582 41.369 28.1612C41.369 29.1762 40.634 29.8132 39.654 29.8132C38.17 29.8132 37.701 28.9662 37.638 28.1332ZM37.75 35.6376L42.755 33.6776L37.75 33.6776L37.75 33.1036L43.413 33.1036L43.413 34.0206L38.562 35.9036L43.413 37.7726L43.413 38.6966L37.75 38.6966L37.75 38.1156L42.755 38.1226L37.75 36.1626L37.75 35.6376ZM37.75 41.995L42.755 40.035L37.75 40.035L37.75 39.461L43.413 39.461L43.413 40.378L38.562 42.261L43.413 44.13L43.413 45.054L37.75 45.054L37.75 44.473L42.755 44.48L37.75 42.52L37.75 41.995ZM39.815 52.9303L39.815 53.5183C38.219 53.2313 37.631 52.0413 37.631 50.9213C37.631 49.2973 38.793 48.2543 40.585 48.2543C41.495 48.2543 42.258 48.5273 42.783 49.0383C43.266 49.5143 43.532 50.1793 43.532 50.9213C43.532 52.2513 42.769 53.1893 41.488 53.4833L41.488 52.8953C42.559 52.5943 42.958 51.7403 42.958 50.9143C42.958 49.8923 42.279 48.8283 40.585 48.8283C38.828 48.8283 38.205 49.8923 38.205 50.9143C38.205 51.9853 38.779 52.7063 39.815 52.9303ZM43.525 56.5131C43.525 58.1301 42.398 59.1801 40.578 59.1801C38.408 59.1801 37.631 57.8011 37.631 56.5131C37.631 54.8891 38.786 53.8461 40.578 53.8461C41.495 53.8461 42.251 54.1191 42.783 54.6301C43.266 55.1061 43.525 55.7711 43.525 56.5131ZM38.205 56.5131C38.205 57.8221 39.059 58.5991 40.578 58.5991C42.342 58.5991 42.951 57.5351 42.951 56.5131C42.951 55.4841 42.279 54.4201 40.578 54.4201C38.828 54.4201 38.205 55.4841 38.205 56.5131ZM43.413 60.3239L38.296 60.3239L38.296 63.5229L37.75 63.5229L37.75 59.7569L43.413 59.7569L43.413 60.3239ZM43.525 66.0697C43.525 67.6867 42.398 68.7367 40.578 68.7367C38.408 68.7367 37.631 67.3577 37.631 66.0697C37.631 64.4457 38.786 63.4027 40.578 63.4027C41.495 63.4027 42.251 63.6757 42.783 64.1867C43.266 64.6627 43.525 65.3277 43.525 66.0697ZM38.205 66.0697C38.205 67.3787 39.059 68.1557 40.578 68.1557C42.342 68.1557 42.951 67.0917 42.951 66.0697C42.951 65.0407 42.279 63.9767 40.578 63.9767C38.828 63.9767 38.205 65.0407 38.205 66.0697ZM40.221 72.2465L37.743 73.6255L37.743 72.9535L40.221 71.5885L40.221 72.2465ZM41.817 73.5065C40.627 73.5065 40.284 72.6665 40.221 72.2465L40.221 70.3285L40.221 69.8945L37.743 69.8945L37.743 69.3135L43.406 69.3135L43.413 71.6515C43.413 72.3655 43.007 73.5065 41.817 73.5065ZM40.795 71.7635C40.795 72.5405 41.096 72.9325 41.817 72.9325C42.426 72.9325 42.825 72.3725 42.825 71.7635L42.825 69.8945L40.795 69.8945L40.795 71.7635ZM43.413 79.0676C43.413 80.2716 42.552 80.9226 41.74 80.9226C40.928 80.9226 40.095 80.2856 40.095 79.0746L40.095 77.3526L37.743 77.3526L37.743 76.7716L43.413 76.7716L43.413 79.0676ZM40.676 79.1796C40.676 79.7326 41.026 80.3556 41.74 80.3556C42.461 80.3556 42.839 79.7256 42.839 79.1796L42.839 77.3526L40.676 77.3526L40.676 79.1796ZM40.221 84.3256L37.743 85.7046L37.743 85.0326L40.221 83.6676L40.221 84.3256ZM41.817 85.5856C40.627 85.5856 40.284 84.7456 40.221 84.3256L40.221 82.4076L40.221 81.9736L37.743 81.9736L37.743 81.3926L43.406 81.3926L43.413 83.7306C43.413 84.4446 43.007 85.5856 41.817 85.5856ZM40.795 83.8426C40.795 84.6196 41.096 85.0116 41.817 85.0116C42.426 85.0116 42.825 84.4516 42.825 83.8426L42.825 81.9736L40.795 81.9736L40.795 83.8426ZM37.75 86.7928L37.75 86.2188L43.413 86.2188L43.413 86.7928L37.75 86.7928ZM37.75 91.5767L42.755 88.1327L37.75 88.1327L37.75 87.5587L43.413 87.5587L43.413 88.3147L38.408 91.7517L43.413 91.7517L43.413 92.3257L37.75 92.3257L37.75 91.5767ZM42.86 98.1359L42.86 95.7629L37.75 95.7629L37.75 95.1889L42.86 95.1889L42.86 92.8229L43.413 92.8229L43.413 98.1359L42.86 98.1359ZM40.515 104.313L40.515 101.702L37.75 101.702L37.75 101.135L43.413 101.135L43.413 104.866L42.86 104.866L42.86 101.702L41.061 101.702L41.061 104.313L40.515 104.313ZM37.75 105.831L37.75 105.257L43.413 105.257L43.413 105.831L37.75 105.831ZM43.413 107.164L38.296 107.164L38.296 110.363L37.75 110.363L37.75 106.597L43.413 106.597L43.413 107.164ZM37.75 113.26L42.755 111.3L37.75 111.3L37.75 110.726L43.413 110.726L43.413 111.643L38.562 113.526L43.413 115.395L43.413 116.319L37.75 116.319L37.75 115.738L42.755 115.745L37.75 113.785L37.75 113.26Z" fill="black"/>
<path d="M121.382 49.2237C120.608 50.4837 119.474 51.1857 118.178 51.1857C115.316 51.1857 113.48 48.9357 113.48 45.4437C113.48 42.2217 115.406 39.3777 118.178 39.3777L118.466 39.3777L118.466 42.4197L118.178 42.4197C116.882 42.4017 116.342 44.0577 116.36 45.2997C116.36 46.6137 117.152 47.9997 118.16 47.9637C119.384 47.9097 120.068 47.2797 120.068 44.6157L122.498 44.6157C122.57 46.8117 123.308 47.6577 124.172 47.6577C125.108 47.6577 125.684 46.3257 125.684 45.4437C125.684 44.1117 125.018 43.0317 123.92 43.0317L123.632 43.0317L123.632 39.9897L123.92 39.9897C126.692 39.9897 128.618 41.9157 128.618 45.1377C128.618 48.6297 126.764 50.8797 123.92 50.8797C122.894 50.8797 122.03 50.2497 121.382 49.2237ZM113.75 61.9449L116.756 60.8109L116.756 55.4469L113.75 54.3129L113.75 51.2529L128.312 56.5989L128.312 59.9829L113.75 65.0049L113.75 61.9449ZM119.438 56.4549L119.438 59.8029L123.866 58.1289L119.438 56.4549ZM128.312 65.7245L128.312 78.0185L113.75 78.0185L113.75 74.7785L125.396 74.7785L125.396 68.9465L113.75 68.9465L113.75 65.7245L128.312 65.7245ZM128.312 79.6991L128.312 82.7591L118.79 82.7591L128.312 89.8151L128.312 92.8751L113.75 92.8751L113.75 89.8151L123.344 89.8151L113.75 82.7591L113.75 79.6991L128.312 79.6991ZM119.618 104.543L119.618 107.837C115.55 107.279 113.48 104.399 113.48 100.979C113.48 97.1806 116.072 94.0486 121.04 94.0486C125.9 94.0486 128.618 97.1806 128.618 100.979C128.618 104.417 126.512 107.081 122.894 107.765L122.894 104.399C124.712 104.021 125.594 102.653 125.594 100.979C125.594 98.8366 124.154 97.1806 121.04 97.1806C117.908 97.1806 116.486 98.8186 116.486 100.979C116.486 102.797 117.494 104.309 119.618 104.543ZM122.444 114.926C122.444 119.282 120.464 120.722 118.016 120.722C114.236 120.722 113.75 117.266 113.75 114.206L113.75 108.896L128.312 108.896L128.312 112.118L122.444 112.118L122.444 114.926ZM118.07 117.68L118.466 117.68C119.42 117.68 120.194 116.744 120.194 115.304L120.194 112.172L116.342 112.172L116.342 115.304C116.342 116.744 117.116 117.68 118.07 117.68ZM113.75 128.223L126.602 128.223L126.602 131.121L117.458 135.567L117.458 135.729C117.758 135.705 118.112 135.675 118.52 135.639C118.94 135.603 119.366 135.573 119.798 135.549C120.242 135.525 120.644 135.513 121.004 135.513L126.602 135.513L126.602 137.853L113.75 137.853L113.75 134.973L122.948 130.491L122.948 130.365C122.624 130.401 122.234 130.431 121.778 130.455C121.334 130.491 120.89 130.521 120.446 130.545C120.002 130.569 119.612 130.581 119.276 130.581L113.75 130.581L113.75 128.223ZM113.75 139.077L115.406 139.077L115.406 144.693L113.75 144.693L113.75 139.077ZM116.162 141.867C116.162 141.291 116.288 140.781 116.54 140.337C116.792 139.893 117.152 139.539 117.62 139.275C118.1 139.023 118.682 138.897 119.366 138.897C120.386 138.897 121.172 139.167 121.724 139.707C122.276 140.247 122.552 140.979 122.552 141.903C122.552 142.467 122.426 142.971 122.174 143.415C121.934 143.871 121.574 144.225 121.094 144.477C120.626 144.741 120.05 144.873 119.366 144.873C118.346 144.873 117.554 144.603 116.99 144.063C116.438 143.523 116.162 142.791 116.162 141.867ZM117.602 141.885C117.602 142.305 117.746 142.605 118.034 142.785C118.334 142.977 118.778 143.073 119.366 143.073C119.954 143.073 120.392 142.977 120.68 142.785C120.968 142.605 121.112 142.305 121.112 141.885C121.112 141.465 120.968 141.159 120.68 140.967C120.392 140.775 119.954 140.679 119.366 140.679C118.778 140.679 118.334 140.775 118.034 140.967C117.746 141.159 117.602 141.465 117.602 141.885ZM122.066 153.897C121.634 155.067 120.41 156.201 118.502 156.201C115.424 156.201 113.48 154.365 113.48 151.053C113.48 147.705 115.586 145.923 118.502 145.923L118.502 148.839C116.918 148.839 116.09 149.847 116.09 151.071C116.09 152.295 116.9 153.303 118.502 153.303C120.176 153.303 120.878 152.349 120.878 150.585L122.678 150.585C122.678 152.331 123.704 152.619 124.298 152.619C125.378 152.619 126.008 151.953 126.008 151.053C126.008 150.189 125.396 149.487 124.298 149.487L124.298 146.733C124.406 146.715 124.514 146.715 124.622 146.715C126.764 146.715 128.618 148.263 128.618 151.053C128.618 153.843 126.746 155.409 124.622 155.409C123.326 155.409 122.282 154.635 122.066 153.897ZM128.618 163.476C128.618 167.346 125.738 169.74 121.04 169.74C116.198 169.74 113.48 167.13 113.48 163.476C113.48 159.894 116.162 157.212 121.04 157.212C125.702 157.212 128.618 159.696 128.618 163.476ZM116.63 163.476C116.63 165.276 118.412 166.464 121.04 166.464C123.686 166.464 125.468 165.438 125.468 163.476C125.468 161.334 123.974 160.488 121.04 160.488C118.448 160.488 116.63 161.568 116.63 163.476ZM116.648 177.07L116.648 179.914L113.75 179.914L113.75 170.536L116.648 170.536L116.648 174.172L124.802 174.172L122.696 170.752L125.846 170.752L128.312 174.172L128.312 177.07L116.648 177.07Z" fill="white"/>
</svg>
