<svg width="326" height="552" viewBox="0 0 326 552" fill="none" xmlns="http://www.w3.org/2000/svg">
<rect x="0.37122" y="0.338017" width="324.324" height="75.324" rx="3.04215" stroke="white" stroke-width="0.676034"/>
<rect x="161.308" y="7.27528" width="155.449" height="61.4494" rx="2.47749" stroke="white" stroke-width="0.550553"/>
<circle cx="65.6446" cy="157.832" r="59.2226" stroke="white" stroke-width="0.676034"/>
<circle cx="259.166" cy="157.67" r="59.2226" stroke="white" stroke-width="0.676034"/>
<circle cx="259.405" cy="157.371" r="65.0334" stroke="white" stroke-width="0.676034"/>
<circle cx="65.3714" cy="157.533" r="65.0334" stroke="white" stroke-width="0.676034"/>
<circle cx="162.114" cy="400.133" r="150.743" stroke="white" stroke-width="0.676034"/>
<circle cx="162.115" cy="400.133" r="72.2969" stroke="white" stroke-width="0.676034"/>
<circle cx="162.335" cy="400.458" r="18.2529" fill="#FD4B28"/>
<path d="M139.911 303.447H184.5C187.063 303.447 188.472 300.465 186.844 298.485L165.136 272.084C163.943 270.633 161.73 270.604 160.499 272.024L137.618 298.425C135.915 300.39 137.311 303.447 139.911 303.447Z" fill="white"/>
<path d="M184.28 495.779L139.691 495.779C137.128 495.779 135.719 498.761 137.347 500.741L159.055 527.142C160.249 528.594 162.461 528.623 163.692 527.202L186.573 500.801C188.276 498.836 186.881 495.779 184.28 495.779Z" fill="white"/>
<path d="M255.841 377.978C261.066 376.983 272.413 376.784 275.996 383.95C279.579 391.116 289.433 386.936 293.912 383.95V412.317C287.94 413.561 275.996 414.556 275.996 408.584C275.996 402.612 262.559 406.096 255.841 408.584V422.767H253.602V377.978H255.841Z" fill="white"/>
<path d="M35.2422 402.951L56.757 377.473L48.2643 398.422H65.2496L42.0363 422.767L51.6614 402.951H35.2422Z" fill="white"/>
<path d="M249.007 31.4683H250.978C253.476 31.4683 255.501 33.4931 255.501 35.9909V55.8907C255.501 58.3885 253.476 60.4134 250.978 60.4134H226.556C224.058 60.4134 222.033 58.3885 222.033 55.8907V35.9909C222.033 33.4931 224.058 31.4683 226.556 31.4683H228.527M249.007 31.4683C249.007 23.3275 246.437 15.1191 238.477 15.1191C230.517 15.1191 228.527 24.232 228.527 31.4683M249.007 31.4683H228.527" stroke="white" stroke-width="1.80907"/>
<path d="M255.501 55.8907V35.9909C255.501 33.4931 253.476 31.4683 250.978 31.4683H249.007H228.527H226.556C224.058 31.4683 222.033 33.4931 222.033 35.9909V55.8907C222.033 58.3885 224.058 60.4134 226.556 60.4134H250.978C253.476 60.4134 255.501 58.3885 255.501 55.8907Z" fill="white"/>
</svg>
