<svg width="328" height="551" viewBox="0 0 328 551" fill="none" xmlns="http://www.w3.org/2000/svg">
<rect x="0.5" y="0.5" width="327" height="550" rx="3.5" fill="black" stroke="white"/>
<path d="M29.728 36V22.86H21.448V36H19.972V21.438H31.204V36H29.728ZM41.6692 31.824H35.2432L33.7492 36H32.2012L37.6372 21.438H39.2932L44.7472 36H43.1632L41.6692 31.824ZM38.4652 22.806L35.7472 30.402H41.1652L38.4652 22.806ZM52.24 36L47.2 23.13V36H45.724V21.438H48.082L52.924 33.912L57.73 21.438H60.106V36H58.612L58.63 23.13L53.59 36H52.24ZM63.1516 36H61.4236L64.9516 29.646H66.6616L63.1516 36ZM66.4996 21.438H72.5116V36H70.9996V29.646H69.9016H64.9516C63.8896 29.466 61.7296 28.602 61.7296 25.542C61.7296 22.482 64.6636 21.438 66.4996 21.438ZM70.9996 28.17V22.95H66.2116C64.6456 22.95 63.2056 23.976 63.2056 25.542C63.2056 27.396 64.2136 28.17 66.2116 28.17H70.9996ZM87.0998 22.86H80.9978V36H79.5218V22.86H73.4378V21.438H87.0998V22.86ZM94.0465 27.846C96.9085 27.846 98.5645 29.952 98.5645 31.842C98.5645 34.578 97.1065 36 93.7405 36H88.0345V21.438H89.4925V27.846H94.0465ZM94.0105 34.578C95.8465 34.578 97.1065 33.876 97.1065 32.058C97.1065 30.582 95.9545 29.268 93.9745 29.268H89.4925V34.578H94.0105ZM111.061 29.286C108.235 29.286 105.931 28.134 105.931 25.596V21.438H107.407V24.876C107.407 26.91 108.847 27.828 111.061 27.828C113.347 27.828 114.697 26.91 114.697 24.876V21.438H116.191V36H114.697V28.098C114.697 28.098 113.941 29.286 111.061 29.286ZM119.604 22.86V27.486H126.606V28.908L119.604 28.872V34.596H127.92V36H118.146V21.438H127.92V22.86H119.604ZM138.378 22.842H132.618V23.67C132.618 26.766 132.6 29.178 132.24 32.058C131.862 35.226 131.16 36 128.316 36C128.316 36 128.316 34.866 128.316 34.596C130.476 34.596 130.62 34.416 130.98 31.158C131.124 29.898 131.286 27.9 131.286 25.488V21.438H139.8V36H138.378V22.842ZM148.16 21.132C152.318 21.132 155.018 24.03 155.018 28.71C155.018 34.308 151.472 36.288 148.16 36.288C143.984 36.288 141.302 33.318 141.302 28.71C141.302 26.37 142.004 24.408 143.318 23.058C144.542 21.816 146.252 21.132 148.16 21.132ZM148.16 34.812C151.526 34.812 153.524 32.616 153.524 28.71C153.524 24.174 150.788 22.608 148.16 22.608C145.514 22.608 142.778 24.336 142.778 28.71C142.778 33.228 145.514 34.812 148.16 34.812ZM164.295 28.476C166.455 28.8 167.031 30.546 167.031 32.166C167.031 34.47 165.573 36 162.207 36H156.501V21.438H162.009C164.547 21.438 166.149 23.418 166.149 25.542C166.149 26.478 165.699 27.99 164.295 28.476ZM161.577 22.878H157.959V27.846C159.129 27.846 160.677 27.846 161.559 27.846C163.575 27.846 164.655 27.234 164.655 25.38C164.655 23.922 163.647 22.878 161.577 22.878ZM162.477 34.578C164.313 34.578 165.573 33.876 165.573 32.058C165.573 30.582 164.421 29.268 162.441 29.268H157.959V34.578H162.477ZM170.457 22.86V27.486H177.459V28.908L170.457 28.872V34.596H178.773V36H168.999V21.438H178.773V22.86H170.457ZM181.426 29.502L188.806 21.438H190.804L185.422 27.324L191.47 36H189.688L184.414 28.422L181.426 31.68V36H179.968V21.438H181.426V29.502ZM201.366 31.824H194.94L193.446 36H191.898L197.334 21.438H198.99L204.444 36H202.86L201.366 31.824ZM198.162 22.806L195.444 30.402H200.862L198.162 22.806ZM221.189 22.842H215.429V23.67C215.429 26.766 215.411 29.178 215.051 32.058C214.673 35.226 213.971 36 211.127 36C211.127 36 211.127 34.866 211.127 34.596C213.287 34.596 213.431 34.416 213.791 31.158C213.935 29.898 214.097 27.9 214.097 25.488V21.438H222.611V36H221.189V22.842ZM226.075 22.86V27.486H233.077V28.908L226.075 28.872V34.596H234.391V36H224.617V21.438H234.391V22.86H226.075ZM244.999 21.438V22.86H237.403V36H235.945V21.438H244.999ZM247.379 29.502L254.759 21.438H256.757L251.375 27.324L257.423 36H255.641L250.367 28.422L247.379 31.68V36H245.921V21.438H247.379V29.502ZM263.613 21.132C267.771 21.132 270.471 24.03 270.471 28.71C270.471 34.308 266.925 36.288 263.613 36.288C259.437 36.288 256.755 33.318 256.755 28.71C256.755 26.37 257.457 24.408 258.771 23.058C259.995 21.816 261.705 21.132 263.613 21.132ZM263.613 34.812C266.979 34.812 268.977 32.616 268.977 28.71C268.977 24.174 266.241 22.608 263.613 22.608C260.967 22.608 258.231 24.336 258.231 28.71C258.231 33.228 260.967 34.812 263.613 34.812ZM30.754 42.13L21.88 55H19.972V40.438H21.448V53.308L30.286 40.438H32.23V55H30.754V42.13ZM44.1643 51.004C44.1643 53.938 42.3823 55.288 38.9983 55.288C33.6343 55.288 33.5083 51.976 33.5083 50.644H34.8763C34.8763 51.4 35.0563 53.884 38.8003 53.884C42.0763 53.884 42.9403 52.318 42.7423 50.644C42.5983 49.384 41.1403 48.304 38.5483 48.304V46.954C42.1483 46.954 42.3643 44.866 42.3643 44.092C42.3643 42.346 40.6903 41.572 39.1963 41.572C36.8023 41.572 35.7403 42.904 35.5243 44.398H34.0483C34.2103 42.202 35.8123 40.15 38.9803 40.15C42.3463 40.15 43.8043 41.86 43.8043 44.434C43.8043 46.936 41.5903 47.602 41.5903 47.602C41.5903 47.602 44.1643 47.962 44.1643 51.004ZM52.2575 55L47.2175 42.13V55H45.7415V40.438H48.0995L52.9415 52.912L57.7475 40.438H60.1235V55H58.6295L58.6475 42.13L53.6075 55H52.2575ZM63.5472 41.86V46.486H70.5492V47.908L63.5472 47.872V53.596H71.8632V55H62.0892V40.438H71.8632V41.86H63.5472ZM82.8139 55V47.89H74.5339V55H73.0579V40.438H74.5339V46.486H82.8139V40.438H84.2899V55H82.8139ZM87.3391 55H85.6111L89.1391 48.646H90.8491L87.3391 55ZM90.6871 40.438H96.6991V55H95.1871V48.646H94.0891H89.1391C88.0771 48.466 85.9171 47.602 85.9171 44.542C85.9171 41.482 88.8511 40.438 90.6871 40.438ZM95.1871 47.17V41.95H90.3991C88.8331 41.95 87.3931 42.976 87.3931 44.542C87.3931 46.396 88.4011 47.17 90.3991 47.17H95.1871ZM100.127 41.86V46.486H107.129V47.908L100.127 47.872V53.596H108.443V55H98.6693V40.438H108.443V41.86H100.127ZM116.154 55L111.114 42.13V55H109.638V40.438H111.996L116.838 52.912L121.644 40.438H124.02V55H122.526L122.544 42.13L117.504 55H116.154ZM134.482 50.824H128.056L126.562 55H125.014L130.45 40.438H132.106L137.56 55H135.976L134.482 50.824ZM131.278 41.806L128.56 49.402H133.978L131.278 41.806ZM138.824 53.02H140.75V55C140.75 56.296 139.634 56.998 138.536 56.746V56.116C139.364 56.332 140.048 55.792 140.102 55H138.824V53.02ZM160.27 42.13L151.396 55H149.488V40.438H150.964V53.308L159.802 40.438H161.746V55H160.27V42.13ZM179.493 41.842H173.733V42.67C173.733 45.766 173.715 48.178 173.355 51.058C172.977 54.226 172.275 55 169.431 55C169.431 55 169.431 53.866 169.431 53.596C171.591 53.596 171.735 53.416 172.095 50.158C172.239 48.898 172.401 46.9 172.401 44.488V40.438H180.915V55H179.493V41.842ZM191.417 50.824H184.991L183.497 55H181.949L187.385 40.438H189.041L194.495 55H192.911L191.417 50.824ZM188.213 41.806L185.495 49.402H190.913L188.213 41.806ZM201.484 46.846C204.544 46.846 206.002 48.952 206.002 50.842C206.002 53.812 204.544 55 201.178 55H195.472V40.438H204.598V41.878H196.93V46.846H201.484ZM201.448 53.578C203.284 53.578 204.544 52.876 204.544 51.058C204.544 49.582 203.392 48.268 201.412 48.268H196.93V53.578H201.448ZM213.674 40.132C217.832 40.132 220.532 43.03 220.532 47.71C220.532 53.308 216.986 55.288 213.674 55.288C209.498 55.288 206.816 52.318 206.816 47.71C206.816 45.37 207.518 43.408 208.832 42.058C210.056 40.816 211.766 40.132 213.674 40.132ZM213.674 53.812C217.04 53.812 219.038 51.616 219.038 47.71C219.038 43.174 216.302 41.608 213.674 41.608C211.028 41.608 208.292 43.336 208.292 47.71C208.292 52.228 211.028 53.812 213.674 53.812ZM227.919 40.438C231.015 40.438 232.689 42.652 232.689 44.74C232.689 46.828 231.051 48.952 227.937 48.952H223.509V55H222.015V40.438H227.919ZM228.207 47.476C229.629 47.476 231.231 46.576 231.231 44.74C231.231 42.868 229.611 41.914 228.207 41.914H223.509V47.476H228.207ZM240.794 50.824H234.368L232.874 55H231.326L236.762 40.438H238.418L243.872 55H242.288L240.794 50.824ZM237.59 41.806L234.872 49.402H240.29L237.59 41.806ZM255.656 41.86H249.554V55H248.078V41.86H241.994V40.438H255.656V41.86ZM262.207 40.132C266.365 40.132 269.065 43.03 269.065 47.71C269.065 53.308 265.519 55.288 262.207 55.288C258.031 55.288 255.349 52.318 255.349 47.71C255.349 45.37 256.051 43.408 257.365 42.058C258.589 40.816 260.299 40.132 262.207 40.132ZM262.207 53.812C265.573 53.812 267.571 51.616 267.571 47.71C267.571 43.174 264.835 41.608 262.207 41.608C259.561 41.608 256.825 43.336 256.825 47.71C256.825 52.228 259.561 53.812 262.207 53.812ZM276.452 40.438C279.548 40.438 281.222 42.652 281.222 44.74C281.222 46.828 279.584 48.952 276.47 48.952H272.042V55H270.548V40.438H276.452ZM276.74 47.476C278.162 47.476 279.764 46.576 279.764 44.74C279.764 42.868 278.144 41.914 276.74 41.914H272.042V47.476H276.74ZM293.213 42.13L284.339 55H282.431V40.438H283.907V53.308L292.745 40.438H294.689V55H293.213V42.13ZM297.749 55H296.021L299.549 48.646H301.259L297.749 55ZM301.097 40.438H307.109V55H305.597V48.646H304.499H299.549C298.487 48.466 296.327 47.602 296.327 44.542C296.327 41.482 299.261 40.438 301.097 40.438ZM305.597 47.17V41.95H300.809C299.243 41.95 297.803 42.976 297.803 44.542C297.803 46.396 298.811 47.17 300.809 47.17H305.597ZM29.728 74V60.86H21.448V74H19.972V59.438H31.204V74H29.728ZM41.6692 69.824H35.2432L33.7492 74H32.2012L37.6372 59.438H39.2932L44.7472 74H43.1632L41.6692 69.824ZM38.4652 60.806L35.7472 68.402H41.1652L38.4652 60.806ZM52.24 74L47.2 61.13V74H45.724V59.438H48.082L52.924 71.912L57.73 59.438H60.106V74H58.612L58.63 61.13L53.59 74H52.24ZM63.1516 74H61.4236L64.9516 67.646H66.6616L63.1516 74ZM66.4996 59.438H72.5116V74H70.9996V67.646H69.9016H64.9516C63.8896 67.466 61.7296 66.602 61.7296 63.542C61.7296 60.482 64.6636 59.438 66.4996 59.438ZM70.9996 66.17V60.95H66.2116C64.6456 60.95 63.2056 61.976 63.2056 63.542C63.2056 65.396 64.2136 66.17 66.2116 66.17H70.9996ZM87.0998 60.86H80.9978V74H79.5218V60.86H73.4378V59.438H87.0998V60.86ZM98.8165 61.13L89.9425 74H88.0345V59.438H89.5105V72.308L98.3485 59.438H100.293V74H98.8165V61.13ZM102.561 72.02H104.487V74C104.487 75.296 103.371 75.998 102.273 75.746V75.116C103.101 75.332 103.785 74.792 103.839 74H102.561V72.02ZM119.128 59.438C122.224 59.438 123.898 61.652 123.898 63.74C123.898 65.828 122.26 67.952 119.146 67.952H114.718V74H113.224V59.438H119.128ZM119.416 66.476C120.838 66.476 122.44 65.576 122.44 63.74C122.44 61.868 120.82 60.914 119.416 60.914H114.718V66.476H119.416ZM132.003 69.824H125.577L124.083 74H122.535L127.971 59.438H129.627L135.081 74H133.497L132.003 69.824ZM128.799 60.806L126.081 68.402H131.499L128.799 60.806ZM146.822 68.69H148.334C147.596 72.776 144.536 74.288 141.656 74.288C137.48 74.288 134.798 71.318 134.798 66.71C134.798 64.37 135.5 62.408 136.814 61.058C138.038 59.816 139.748 59.132 141.656 59.132C145.076 59.132 147.488 61.094 148.244 64.388H146.732C145.958 61.634 143.762 60.608 141.656 60.608C139.01 60.608 136.274 62.336 136.274 66.71C136.274 71.228 139.01 72.812 141.656 72.812C144.392 72.812 146.246 71.354 146.822 68.69ZM159.437 74V60.86H151.157V74H149.681V59.438H160.913V74H159.437ZM169.236 59.132C173.394 59.132 176.094 62.03 176.094 66.71C176.094 72.308 172.548 74.288 169.236 74.288C165.06 74.288 162.378 71.318 162.378 66.71C162.378 64.37 163.08 62.408 164.394 61.058C165.618 59.816 167.328 59.132 169.236 59.132ZM169.236 72.812C172.602 72.812 174.6 70.616 174.6 66.71C174.6 62.174 171.864 60.608 169.236 60.608C166.59 60.608 163.854 62.336 163.854 66.71C163.854 71.228 166.59 72.812 169.236 72.812ZM185.663 60.842H179.903V61.67C179.903 64.766 179.885 67.178 179.525 70.058C179.147 73.226 178.445 74 175.601 74C175.601 74 175.601 72.866 175.601 72.596C177.761 72.596 177.905 72.416 178.265 69.158C178.409 67.898 178.571 65.9 178.571 63.488V59.438H187.085V74H185.663V60.842ZM195.445 59.132C199.603 59.132 202.303 62.03 202.303 66.71C202.303 72.308 198.757 74.288 195.445 74.288C191.269 74.288 188.587 71.318 188.587 66.71C188.587 64.37 189.289 62.408 190.603 61.058C191.827 59.816 193.537 59.132 195.445 59.132ZM195.445 72.812C198.811 72.812 200.809 70.616 200.809 66.71C200.809 62.174 198.073 60.608 195.445 60.608C192.799 60.608 190.063 62.336 190.063 66.71C190.063 71.228 192.799 72.812 195.445 72.812ZM213.908 66.44L217.976 74H216.374L212.522 67.052H210.668V74H209.246V67.052H207.41L203.558 74H201.956L206.024 66.44L202.064 59.438H203.702L207.41 65.81H209.246V59.438H210.668V65.81H212.522L216.23 59.438H217.868L213.908 66.44ZM220.555 60.86V65.486H227.557V66.908L220.555 66.872V72.596H228.871V74H219.097V59.438H228.871V60.86H220.555ZM239.822 74V66.89H231.542V74H230.066V59.438H231.542V65.486H239.822V59.438H241.298V74H239.822ZM253.023 74V66.89H244.743V74H243.267V59.438H244.743V65.486H253.023V59.438H254.499V74H253.023ZM264.964 69.824H258.538L257.044 74H255.496L260.932 59.438H262.588L268.042 74H266.458L264.964 69.824ZM261.76 60.806L259.042 68.402H264.46L261.76 60.806ZM270.099 74H268.371L271.899 67.646H273.609L270.099 74ZM273.447 59.438H279.459V74H277.947V67.646H276.849H271.899C270.837 67.466 268.677 66.602 268.677 63.542C268.677 60.482 271.611 59.438 273.447 59.438ZM277.947 66.17V60.95H273.159C271.593 60.95 270.153 61.976 270.153 63.542C270.153 65.396 271.161 66.17 273.159 66.17H277.947ZM27.766 85.476C29.926 85.8 30.502 87.546 30.502 89.166C30.502 91.47 29.044 93 25.678 93H19.972V78.438H25.48C28.018 78.438 29.62 80.418 29.62 82.542C29.62 83.478 29.17 84.99 27.766 85.476ZM25.048 79.878H21.43V84.846C22.6 84.846 24.148 84.846 25.03 84.846C27.046 84.846 28.126 84.234 28.126 82.38C28.126 80.922 27.118 79.878 25.048 79.878ZM25.948 91.578C27.784 91.578 29.044 90.876 29.044 89.058C29.044 87.582 27.892 86.268 25.912 86.268H21.43V91.578H25.948ZM50.7936 91.596H53.2236V95.916H51.7656V93.018H39.2376V78.438H40.7136V91.596H49.3176V78.438H50.7936V91.596ZM55.7073 79.86V84.486H62.7093V85.908L55.7073 85.872V91.596H64.0233V93H54.2493V78.438H64.0233V79.86H55.7073ZM74.9741 93V85.89H66.6941V93H65.2181V78.438H66.6941V84.486H74.9741V78.438H76.4501V93H74.9741ZM91.0373 79.86H84.9353V93H83.4593V79.86H77.3753V78.438H91.0373V79.86ZM97.876 78.438C100.972 78.438 102.646 80.652 102.646 82.74C102.646 84.828 101.008 86.952 97.894 86.952H93.466V93H91.972V78.438H97.876ZM98.164 85.476C99.586 85.476 101.188 84.576 101.188 82.74C101.188 80.868 99.568 79.914 98.164 79.914H93.466V85.476H98.164ZM105.313 79.86V84.486H112.315V85.908L105.313 85.872V91.596H113.629V93H103.855V78.438H113.629V79.86H105.313ZM115.112 91.02H117.038V93C117.038 94.296 115.922 94.998 114.824 94.746V94.116C115.652 94.332 116.336 93.792 116.39 93H115.112V91.02ZM136.557 80.13L127.683 93H125.775V78.438H127.251V91.308L136.089 78.438H138.033V93H136.557V80.13ZM149.967 89.004C149.967 91.938 148.185 93.288 144.801 93.288C139.437 93.288 139.311 89.976 139.311 88.644H140.679C140.679 89.4 140.859 91.884 144.603 91.884C147.879 91.884 148.743 90.318 148.545 88.644C148.401 87.384 146.943 86.304 144.351 86.304V84.954C147.951 84.954 148.167 82.866 148.167 82.092C148.167 80.346 146.493 79.572 144.999 79.572C142.605 79.572 141.543 80.904 141.327 82.398H139.851C140.013 80.202 141.615 78.15 144.783 78.15C148.149 78.15 149.607 79.86 149.607 82.434C149.607 84.936 147.393 85.602 147.393 85.602C147.393 85.602 149.967 85.962 149.967 89.004ZM159.461 78.402L161.027 78.438L153.953 93L152.405 92.964L154.709 88.338L149.921 78.438H151.487L155.465 86.682L159.461 78.402ZM166.415 86.286C163.589 86.286 161.285 85.134 161.285 82.596V78.438H162.761V81.876C162.761 83.91 164.201 84.828 166.415 84.828C168.701 84.828 170.051 83.91 170.051 81.876V78.438H171.545V93H170.051V85.098C170.051 85.098 169.295 86.286 166.415 86.286ZM181.995 88.824H175.569L174.075 93H172.527L177.963 78.438H179.619L185.073 93H183.489L181.995 88.824ZM178.791 79.806L176.073 87.402H181.491L178.791 79.806ZM187.508 79.86V84.486H194.51V85.908L187.508 85.872V91.596H195.824V93H186.05V78.438H195.824V79.86H187.508ZM209.637 79.86H203.535V93H202.059V79.86H195.975V78.438H209.637V79.86ZM29.728 112V98.86H21.448V112H19.972V97.438H31.204V112H29.728ZM39.0772 97.438C42.1732 97.438 43.8472 99.652 43.8472 101.74C43.8472 103.828 42.2092 105.952 39.0952 105.952H34.6672V112H33.1732V97.438H39.0772ZM39.3652 104.476C40.7872 104.476 42.3892 103.576 42.3892 101.74C42.3892 99.868 40.7692 98.914 39.3652 98.914H34.6672V104.476H39.3652ZM51.41 97.132C55.568 97.132 58.268 100.03 58.268 104.71C58.268 110.308 54.722 112.288 51.41 112.288C47.234 112.288 44.552 109.318 44.552 104.71C44.552 102.37 45.254 100.408 46.568 99.058C47.792 97.816 49.502 97.132 51.41 97.132ZM51.41 110.812C54.776 110.812 56.774 108.616 56.774 104.71C56.774 100.174 54.038 98.608 51.41 98.608C48.764 98.608 46.028 100.336 46.028 104.71C46.028 109.228 48.764 110.812 51.41 110.812ZM71.3073 110.596H73.7373V114.916H72.2793V112.018H59.7513V97.438H61.2273V110.596H69.8313V97.438H71.3073V110.596ZM76.221 98.86V103.486H83.223V104.908L76.221 104.872V110.596H84.537V112H74.763V97.438H84.537V98.86H76.221ZM96.4256 106.69H97.9376C97.1996 110.776 94.1396 112.288 91.2596 112.288C87.0836 112.288 84.4016 109.318 84.4016 104.71C84.4016 102.37 85.1036 100.408 86.4176 99.058C87.6416 97.816 89.3516 97.132 91.2596 97.132C94.6796 97.132 97.0916 99.094 97.8476 102.388H96.3356C95.5616 99.634 93.3656 98.608 91.2596 98.608C88.6136 98.608 85.8776 100.336 85.8776 104.71C85.8776 109.228 88.6136 110.812 91.2596 110.812C93.9956 110.812 95.8496 109.354 96.4256 106.69ZM110.805 106.69H112.317C111.579 110.776 108.519 112.288 105.639 112.288C101.463 112.288 98.7805 109.318 98.7805 104.71C98.7805 102.37 99.4825 100.408 100.797 99.058C102.021 97.816 103.731 97.132 105.639 97.132C109.059 97.132 111.471 99.094 112.227 102.388H110.715C109.941 99.634 107.745 98.608 105.639 98.608C102.993 98.608 100.257 100.336 100.257 104.71C100.257 109.228 102.993 110.812 105.639 110.812C108.375 110.812 110.229 109.354 110.805 106.69ZM119.675 103.846C122.537 103.846 124.193 105.952 124.193 107.842C124.193 110.578 122.735 112 119.369 112H113.663V97.438H115.121V103.846H119.675ZM119.639 110.578C121.475 110.578 122.735 109.876 122.735 108.058C122.735 106.582 121.583 105.268 119.603 105.268H115.121V110.578H119.639ZM127.361 112H125.903V97.438H127.361V112ZM140.592 105.286C137.766 105.286 135.462 104.134 135.462 101.596V97.438H136.938V100.876C136.938 102.91 138.378 103.828 140.592 103.828C142.878 103.828 144.228 102.91 144.228 100.876V97.438H145.722V112H144.228V104.098C144.228 104.098 143.472 105.286 140.592 105.286ZM149.135 98.86V103.486H156.137V104.908L149.135 104.872V110.596H157.451V112H147.677V97.438H157.451V98.86H149.135ZM167.91 98.842H162.15V99.67C162.15 102.766 162.132 105.178 161.772 108.058C161.394 111.226 160.692 112 157.847 112C157.847 112 157.847 110.866 157.847 110.596C160.008 110.596 160.152 110.416 160.512 107.158C160.656 105.898 160.818 103.9 160.818 101.488V97.438H169.332V112H167.91V98.842ZM177.691 97.132C181.849 97.132 184.549 100.03 184.549 104.71C184.549 110.308 181.003 112.288 177.691 112.288C173.515 112.288 170.833 109.318 170.833 104.71C170.833 102.37 171.535 100.408 172.849 99.058C174.073 97.816 175.783 97.132 177.691 97.132ZM177.691 110.812C181.057 110.812 183.055 108.616 183.055 104.71C183.055 100.174 180.319 98.608 177.691 98.608C175.045 98.608 172.309 100.336 172.309 104.71C172.309 109.228 175.045 110.812 177.691 110.812ZM193.827 104.476C195.987 104.8 196.563 106.546 196.563 108.166C196.563 110.47 195.105 112 191.739 112H186.033V97.438H191.541C194.079 97.438 195.681 99.418 195.681 101.542C195.681 102.478 195.231 103.99 193.827 104.476ZM191.109 98.878H187.491V103.846C188.661 103.846 190.209 103.846 191.091 103.846C193.107 103.846 194.187 103.234 194.187 101.38C194.187 99.922 193.179 98.878 191.109 98.878ZM192.009 110.578C193.845 110.578 195.105 109.876 195.105 108.058C195.105 106.582 193.953 105.268 191.973 105.268H187.491V110.578H192.009ZM199.989 98.86V103.486H206.991V104.908L199.989 104.872V110.596H208.305V112H198.531V97.438H208.305V98.86H199.989ZM213.963 105.286C211.137 105.286 208.833 104.134 208.833 101.596V97.438H210.309V100.876C210.309 102.91 211.749 103.828 213.963 103.828C216.249 103.828 217.599 102.91 217.599 100.876V97.438H219.093V112H217.599V104.098C217.599 104.098 216.843 105.286 213.963 105.286ZM222.506 98.86V103.486H229.508V104.908L222.506 104.872V110.596H230.822V112H221.048V97.438H230.822V98.86H222.506ZM242.711 106.69H244.223C243.485 110.776 240.425 112.288 237.545 112.288C233.369 112.288 230.687 109.318 230.687 104.71C230.687 102.37 231.389 100.408 232.703 99.058C233.927 97.816 235.637 97.132 237.545 97.132C240.965 97.132 243.377 99.094 244.133 102.388H242.621C241.847 99.634 239.651 98.608 237.545 98.608C234.899 98.608 232.163 100.336 232.163 104.71C232.163 109.228 234.899 110.812 237.545 110.812C240.281 110.812 242.135 109.354 242.711 106.69ZM247.028 105.502L254.408 97.438H256.406L251.024 103.324L257.072 112H255.29L250.016 104.422L247.028 107.68V112H245.57V97.438H247.028V105.502ZM263.262 97.132C267.42 97.132 270.12 100.03 270.12 104.71C270.12 110.308 266.574 112.288 263.262 112.288C259.086 112.288 256.404 109.318 256.404 104.71C256.404 102.37 257.106 100.408 258.42 99.058C259.644 97.816 261.354 97.132 263.262 97.132ZM263.262 110.812C266.628 110.812 268.626 108.616 268.626 104.71C268.626 100.174 265.89 98.608 263.262 98.608C260.616 98.608 257.88 100.336 257.88 104.71C257.88 109.228 260.616 110.812 263.262 110.812ZM281.017 97.438V98.86H273.421V112H271.963V97.438H281.017ZM287.555 97.132C291.713 97.132 294.413 100.03 294.413 104.71C294.413 110.308 290.867 112.288 287.555 112.288C283.379 112.288 280.697 109.318 280.697 104.71C280.697 102.37 281.399 100.408 282.713 99.058C283.937 97.816 285.647 97.132 287.555 97.132ZM287.555 110.812C290.921 110.812 292.919 108.616 292.919 104.71C292.919 100.174 290.183 98.608 287.555 98.608C284.909 98.608 282.173 100.336 282.173 104.71C282.173 109.228 284.909 110.812 287.555 110.812ZM26.488 131L21.448 118.13V131H19.972V116.438H22.33L27.172 128.912L31.978 116.438H34.354V131H32.86L32.878 118.13L27.838 131H26.488ZM42.6737 116.132C46.8317 116.132 49.5317 119.03 49.5317 123.71C49.5317 129.308 45.9857 131.288 42.6737 131.288C38.4977 131.288 35.8157 128.318 35.8157 123.71C35.8157 121.37 36.5177 119.408 37.8317 118.058C39.0557 116.816 40.7657 116.132 42.6737 116.132ZM42.6737 129.812C46.0397 129.812 48.0377 127.616 48.0377 123.71C48.0377 119.174 45.3017 117.608 42.6737 117.608C40.0277 117.608 37.2917 119.336 37.2917 123.71C37.2917 128.228 40.0277 129.812 42.6737 129.812ZM60.969 127.004C60.969 129.938 59.187 131.288 55.803 131.288C50.439 131.288 50.313 127.976 50.313 126.644H51.681C51.681 127.4 51.861 129.884 55.605 129.884C58.881 129.884 59.745 128.318 59.547 126.644C59.403 125.384 57.945 124.304 55.353 124.304V122.954C58.953 122.954 59.169 120.866 59.169 120.092C59.169 118.346 57.495 117.572 56.001 117.572C53.607 117.572 52.545 118.904 52.329 120.398H50.853C51.015 118.202 52.617 116.15 55.785 116.15C59.151 116.15 60.609 117.86 60.609 120.434C60.609 122.936 58.395 123.602 58.395 123.602C58.395 123.602 60.969 123.962 60.969 127.004ZM71.9602 116.438V117.86H64.3642V131H62.9062V116.438H71.9602ZM79.2864 126.824H72.8604L71.3664 131H69.8184L75.2544 116.438H76.9104L82.3644 131H80.7804L79.2864 126.824ZM76.0824 117.806L73.3644 125.402H78.7824L76.0824 117.806ZM84.7451 131H82.8191V129.02H84.7451V131ZM29.926 165.004C29.926 167.938 28.144 169.288 24.76 169.288C19.396 169.288 19.27 165.976 19.27 164.644H20.638C20.638 165.4 20.818 167.884 24.562 167.884C27.838 167.884 28.702 166.318 28.504 164.644C28.36 163.384 26.902 162.304 24.31 162.304V160.954C27.91 160.954 28.126 158.866 28.126 158.092C28.126 156.346 26.452 155.572 24.958 155.572C22.564 155.572 21.502 156.904 21.286 158.398H19.81C19.972 156.202 21.574 154.15 24.742 154.15C28.108 154.15 29.566 155.86 29.566 158.434C29.566 160.936 27.352 161.602 27.352 161.602C27.352 161.602 29.926 161.962 29.926 165.004ZM41.9073 167.632V155.842H36.2193V158.326C36.2733 160.972 35.6613 165.13 34.6173 167.632H41.9073ZM43.3293 167.65H46.2273V171.934H44.8053V169.018H31.8633V171.934H30.4592V167.65H32.6733C34.0053 166.372 34.7433 162.052 34.7793 158.488V154.456H43.3293V167.65ZM48.6058 155.86V160.486H55.6078V161.908L48.6058 161.872V167.596H56.9218V169H47.1478V154.438H56.9218V155.86H48.6058ZM68.8104 163.69H70.3224C69.5844 167.776 66.5244 169.288 63.6444 169.288C59.4684 169.288 56.7864 166.318 56.7864 161.71C56.7864 159.37 57.4884 157.408 58.8024 156.058C60.0264 154.816 61.7364 154.132 63.6444 154.132C67.0644 154.132 69.4764 156.094 70.2324 159.388H68.7204C67.9464 156.634 65.7504 155.608 63.6444 155.608C60.9984 155.608 58.2624 157.336 58.2624 161.71C58.2624 166.228 60.9984 167.812 63.6444 167.812C66.3804 167.812 68.2344 166.354 68.8104 163.69ZM77.6813 160.846C80.5433 160.846 82.1993 162.952 82.1993 164.842C82.1993 167.578 80.7413 169 77.3753 169H71.6693V154.438H73.1273V160.846H77.6813ZM77.6453 167.578C79.4813 167.578 80.7413 166.876 80.7413 165.058C80.7413 163.582 79.5893 162.268 77.6093 162.268H73.1273V167.578H77.6453ZM98.0258 161.476C100.186 161.8 100.762 163.546 100.762 165.166C100.762 167.47 99.3038 169 95.9378 169H90.2318V154.438H95.7398C98.2778 154.438 99.8798 156.418 99.8798 158.542C99.8798 159.478 99.4298 160.99 98.0258 161.476ZM95.3078 155.878H91.6898V160.846C92.8598 160.846 94.4078 160.846 95.2898 160.846C97.3058 160.846 98.3858 160.234 98.3858 158.38C98.3858 156.922 97.3778 155.878 95.3078 155.878ZM96.2078 167.578C98.0438 167.578 99.3038 166.876 99.3038 165.058C99.3038 163.582 98.1518 162.268 96.1718 162.268H91.6898V167.578H96.2078ZM108.742 160.846C111.604 160.846 113.26 162.952 113.26 164.842C113.26 167.578 111.802 169 108.436 169H102.73V154.438H104.188V160.846H108.742ZM108.706 167.578C110.542 167.578 111.802 166.876 111.802 165.058C111.802 163.582 110.65 162.268 108.67 162.268H104.188V167.578H108.706ZM116.428 169H114.97V154.438H116.428V169ZM131.711 169L126.671 156.13V169H125.195V154.438H127.553L132.395 166.912L137.201 154.438H139.577V169H138.083L138.101 156.13L133.061 169H131.711ZM147.896 154.132C152.054 154.132 154.754 157.03 154.754 161.71C154.754 167.308 151.208 169.288 147.896 169.288C143.72 169.288 141.038 166.318 141.038 161.71C141.038 159.37 141.74 157.408 143.054 156.058C144.278 154.816 145.988 154.132 147.896 154.132ZM147.896 167.812C151.262 167.812 153.26 165.616 153.26 161.71C153.26 157.174 150.524 155.608 147.896 155.608C145.25 155.608 142.514 157.336 142.514 161.71C142.514 166.228 145.25 167.812 147.896 167.812ZM166.359 161.44L170.427 169H168.825L164.973 162.052H163.119V169H161.697V162.052H159.861L156.009 169H154.407L158.475 161.44L154.515 154.438H156.153L159.861 160.81H161.697V154.438H163.119V160.81H164.973L168.681 154.438H170.319L166.359 161.44ZM173.006 155.86V160.486H180.008V161.908L173.006 161.872V167.596H181.322V169H171.548V154.438H181.322V155.86H173.006ZM195.135 155.86H189.033V169H187.557V155.86H181.473V154.438H195.135V155.86ZM197.528 155.86V160.486H204.53V161.908L197.528 161.872V167.596H205.844V169H196.07V154.438H205.844V155.86H197.528ZM29.728 188V174.86H21.448V188H19.972V173.438H31.204V188H29.728ZM39.5272 173.132C43.6852 173.132 46.3852 176.03 46.3852 180.71C46.3852 186.308 42.8392 188.288 39.5272 188.288C35.3512 188.288 32.6692 185.318 32.6692 180.71C32.6692 178.37 33.3712 176.408 34.6852 175.058C35.9092 173.816 37.6192 173.132 39.5272 173.132ZM39.5272 186.812C42.8932 186.812 44.8912 184.616 44.8912 180.71C44.8912 176.174 42.1552 174.608 39.5272 174.608C36.8812 174.608 34.1452 176.336 34.1452 180.71C34.1452 185.228 36.8812 186.812 39.5272 186.812ZM52.3325 181.286C49.5065 181.286 47.2025 180.134 47.2025 177.596V173.438H48.6785V176.876C48.6785 178.91 50.1185 179.828 52.3325 179.828C54.6185 179.828 55.9685 178.91 55.9685 176.876V173.438H57.4625V188H55.9685V180.098C55.9685 180.098 55.2125 181.286 52.3325 181.286ZM67.9313 173.402L69.4973 173.438L62.4233 188L60.8753 187.964L63.1793 183.338L58.3913 173.438H59.9573L63.9353 181.682L67.9313 173.402ZM78.2152 180.476C80.3752 180.8 80.9512 182.546 80.9512 184.166C80.9512 186.47 79.4932 188 76.1272 188H70.4212V173.438H75.9292C78.4672 173.438 80.0692 175.418 80.0692 177.542C80.0692 178.478 79.6192 179.99 78.2152 180.476ZM75.4972 174.878H71.8792V179.846C73.0492 179.846 74.5972 179.846 75.4792 179.846C77.4952 179.846 78.5752 179.234 78.5752 177.38C78.5752 175.922 77.5672 174.878 75.4972 174.878ZM76.3972 186.578C78.2332 186.578 79.4932 185.876 79.4932 184.058C79.4932 182.582 78.3412 181.268 76.3612 181.268H71.8792V186.578H76.3972ZM94.4393 182.69H95.9513C95.2133 186.776 92.1533 188.288 89.2733 188.288C85.0973 188.288 82.4153 185.318 82.4153 180.71C82.4153 178.37 83.1173 176.408 84.4313 175.058C85.6553 173.816 87.3653 173.132 89.2733 173.132C92.6933 173.132 95.1053 175.094 95.8613 178.388H94.3493C93.5753 175.634 91.3793 174.608 89.2733 174.608C86.6273 174.608 83.8913 176.336 83.8913 180.71C83.8913 185.228 86.6273 186.812 89.2733 186.812C92.0093 186.812 93.8633 185.354 94.4393 182.69ZM109.442 174.86H103.34V188H101.864V174.86H95.7796V173.438H109.442V174.86ZM118.17 180.476C120.33 180.8 120.906 182.546 120.906 184.166C120.906 186.47 119.448 188 116.082 188H110.376V173.438H115.884C118.422 173.438 120.024 175.418 120.024 177.542C120.024 178.478 119.574 179.99 118.17 180.476ZM115.452 174.878H111.834V179.846C113.004 179.846 114.552 179.846 115.434 179.846C117.45 179.846 118.53 179.234 118.53 177.38C118.53 175.922 117.522 174.878 115.452 174.878ZM116.352 186.578C118.188 186.578 119.448 185.876 119.448 184.058C119.448 182.582 118.296 181.268 116.316 181.268H111.834V186.578H116.352ZM129.228 173.132C133.386 173.132 136.086 176.03 136.086 180.71C136.086 186.308 132.54 188.288 129.228 188.288C125.052 188.288 122.37 185.318 122.37 180.71C122.37 178.37 123.072 176.408 124.386 175.058C125.61 173.816 127.32 173.132 129.228 173.132ZM129.228 186.812C132.594 186.812 134.592 184.616 134.592 180.71C134.592 176.174 131.856 174.608 129.228 174.608C126.582 174.608 123.846 176.336 123.846 180.71C123.846 185.228 126.582 186.812 129.228 186.812ZM145.364 180.476C147.524 180.8 148.1 182.546 148.1 184.166C148.1 186.47 146.642 188 143.276 188H137.57V173.438H143.078C145.616 173.438 147.218 175.418 147.218 177.542C147.218 178.478 146.768 179.99 145.364 180.476ZM142.646 174.878H139.028V179.846C140.198 179.846 141.746 179.846 142.628 179.846C144.644 179.846 145.724 179.234 145.724 177.38C145.724 175.922 144.716 174.878 142.646 174.878ZM143.546 186.578C145.382 186.578 146.642 185.876 146.642 184.058C146.642 182.582 145.49 181.268 143.51 181.268H139.028V186.578H143.546ZM158.564 183.824H152.138L150.644 188H149.096L154.532 173.438H156.188L161.642 188H160.058L158.564 183.824ZM155.36 174.806L152.642 182.402H158.06L155.36 174.806ZM173.426 174.86H167.324V188H165.848V174.86H159.764V173.438H173.426V174.86ZM180.373 179.846C183.235 179.846 184.891 181.952 184.891 183.842C184.891 186.578 183.433 188 180.067 188H174.361V173.438H175.819V179.846H180.373ZM180.337 186.578C182.173 186.578 183.433 185.876 183.433 184.058C183.433 182.582 182.281 181.268 180.301 181.268H175.819V186.578H180.337ZM204.443 182.69H205.955C205.217 186.776 202.157 188.288 199.277 188.288C195.101 188.288 192.419 185.318 192.419 180.71C192.419 178.37 193.121 176.408 194.435 175.058C195.659 173.816 197.369 173.132 199.277 173.132C202.697 173.132 205.109 175.094 205.865 178.388H204.353C203.579 175.634 201.383 174.608 199.277 174.608C196.631 174.608 193.895 176.336 193.895 180.71C193.895 185.228 196.631 186.812 199.277 186.812C202.013 186.812 203.867 185.354 204.443 182.69ZM208.76 174.86V179.486H215.762V180.908L208.76 180.872V186.596H217.076V188H207.302V173.438H217.076V174.86H208.76ZM224.283 179.846C227.343 179.846 228.801 181.952 228.801 183.842C228.801 186.812 227.343 188 223.977 188H218.271V173.438H227.397V174.878H219.729V179.846H224.283ZM224.247 186.578C226.083 186.578 227.343 185.876 227.343 184.058C227.343 182.582 226.191 181.268 224.211 181.268H219.729V186.578H224.247ZM230.794 188H229.066L232.594 181.646H234.304L230.794 188ZM234.142 173.438H240.154V188H238.642V181.646H237.544H232.594C231.532 181.466 229.372 180.602 229.372 177.542C229.372 174.482 232.306 173.438 234.142 173.438ZM238.642 180.17V174.95H233.854C232.288 174.95 230.848 175.976 230.848 177.542C230.848 179.396 231.856 180.17 233.854 180.17H238.642ZM29.728 207V199.89H21.448V207H19.972V192.438H21.448V198.486H29.728V192.438H31.204V207H29.728ZM41.6692 202.824H35.2432L33.7492 207H32.2012L37.6372 192.438H39.2932L44.7472 207H43.1632L41.6692 202.824ZM38.4652 193.806L35.7472 201.402H41.1652L38.4652 193.806ZM56.4881 201.69H58.0001C57.2621 205.776 54.2021 207.288 51.3221 207.288C47.1461 207.288 44.4641 204.318 44.4641 199.71C44.4641 197.37 45.1661 195.408 46.4801 194.058C47.7041 192.816 49.4141 192.132 51.3221 192.132C54.7421 192.132 57.1541 194.094 57.9101 197.388H56.3981C55.6241 194.634 53.4281 193.608 51.3221 193.608C48.6761 193.608 45.9401 195.336 45.9401 199.71C45.9401 204.228 48.6761 205.812 51.3221 205.812C54.0581 205.812 55.9121 204.354 56.4881 201.69ZM71.4904 193.86H65.3884V207H63.9124V193.86H57.8284V192.438H71.4904V193.86ZM78.0408 192.132C82.1988 192.132 84.8988 195.03 84.8988 199.71C84.8988 205.308 81.3528 207.288 78.0408 207.288C73.8648 207.288 71.1828 204.318 71.1828 199.71C71.1828 197.37 71.8848 195.408 73.1988 194.058C74.4228 192.816 76.1328 192.132 78.0408 192.132ZM78.0408 205.812C81.4068 205.812 83.4048 203.616 83.4048 199.71C83.4048 195.174 80.6688 193.608 78.0408 193.608C75.3948 193.608 72.6588 195.336 72.6588 199.71C72.6588 204.228 75.3948 205.812 78.0408 205.812ZM87.4622 207H85.7342L89.2622 200.646H90.9722L87.4622 207ZM90.8102 192.438H96.8222V207H95.3102V200.646H94.2122H89.2622C88.2002 200.466 86.0402 199.602 86.0402 196.542C86.0402 193.482 88.9742 192.438 90.8102 192.438ZM95.3102 199.17V193.95H90.5222C88.9562 193.95 87.5162 194.976 87.5162 196.542C87.5162 198.396 88.5242 199.17 90.5222 199.17H95.3102ZM115.586 205.596H118.016V209.916H116.54V207.018H98.7923V192.438H100.268V205.596H106.442V192.438H107.936V205.596H114.11V192.438H115.586V205.596ZM129.807 194.13L120.933 207H119.025V192.438H120.501V205.308L129.339 192.438H131.283V207H129.807V194.13ZM139.779 207L134.739 194.13V207H133.263V192.438H135.621L140.463 204.912L145.269 192.438H147.645V207H146.151L146.169 194.13L141.129 207H139.779ZM30.754 213.13L21.88 226H19.972V211.438H21.448V224.308L30.286 211.438H32.23V226H30.754V213.13ZM45.7303 220.69H47.2423C46.5043 224.776 43.4443 226.288 40.5643 226.288C36.3883 226.288 33.7063 223.318 33.7063 218.71C33.7063 216.37 34.4083 214.408 35.7223 213.058C36.9463 211.816 38.6563 211.132 40.5643 211.132C43.9843 211.132 46.3963 213.094 47.1523 216.388H45.6403C44.8663 213.634 42.6703 212.608 40.5643 212.608C37.9183 212.608 35.1823 214.336 35.1823 218.71C35.1823 223.228 37.9183 224.812 40.5643 224.812C43.3003 224.812 45.1543 223.354 45.7303 220.69ZM60.1092 220.69H61.6212C60.8832 224.776 57.8232 226.288 54.9432 226.288C50.7672 226.288 48.0852 223.318 48.0852 218.71C48.0852 216.37 48.7872 214.408 50.1012 213.058C51.3252 211.816 53.0352 211.132 54.9432 211.132C58.3632 211.132 60.7752 213.094 61.5312 216.388H60.0192C59.2452 213.634 57.0492 212.608 54.9432 212.608C52.2972 212.608 49.5612 214.336 49.5612 218.71C49.5612 223.228 52.2972 224.812 54.9432 224.812C57.6792 224.812 59.5332 223.354 60.1092 220.69ZM71.3177 212.842H65.5577V213.67C65.5577 216.766 65.5397 219.178 65.1797 222.058C64.8017 225.226 64.0997 226 61.2557 226C61.2557 226 61.2557 224.866 61.2557 224.596C63.4157 224.596 63.5597 224.416 63.9197 221.158C64.0637 219.898 64.2257 217.9 64.2257 215.488V211.438H72.7397V226H71.3177V212.842ZM76.2034 212.86V217.486H83.2054V218.908L76.2034 218.872V224.596H84.5194V226H74.7454V211.438H84.5194V212.86H76.2034ZM96.3643 224.632V212.842H90.6763V215.326C90.7303 217.972 90.1183 222.13 89.0743 224.632H96.3643ZM97.7863 224.65H100.684V228.934H99.2623V226.018H86.3203V228.934H84.9163V224.65H87.1303C88.4623 223.372 89.2003 219.052 89.2363 215.488V211.456H97.7863V224.65ZM107.185 211.132C111.343 211.132 114.043 214.03 114.043 218.71C114.043 224.308 110.497 226.288 107.185 226.288C103.009 226.288 100.327 223.318 100.327 218.71C100.327 216.37 101.029 214.408 102.343 213.058C103.567 211.816 105.277 211.132 107.185 211.132ZM107.185 224.812C110.551 224.812 112.549 222.616 112.549 218.71C112.549 214.174 109.813 212.608 107.185 212.608C104.539 212.608 101.803 214.336 101.803 218.71C101.803 223.228 104.539 224.812 107.185 224.812ZM123.321 218.476C125.481 218.8 126.057 220.546 126.057 222.166C126.057 224.47 124.599 226 121.233 226H115.527V211.438H121.035C123.573 211.438 125.175 213.418 125.175 215.542C125.175 216.478 124.725 217.99 123.321 218.476ZM120.603 212.878H116.985V217.846C118.155 217.846 119.703 217.846 120.585 217.846C122.601 217.846 123.681 217.234 123.681 215.38C123.681 213.922 122.673 212.878 120.603 212.878ZM121.503 224.578C123.339 224.578 124.599 223.876 124.599 222.058C124.599 220.582 123.447 219.268 121.467 219.268H116.985V224.578H121.503ZM136.521 221.824H130.095L128.601 226H127.053L132.489 211.438H134.145L139.599 226H138.015L136.521 221.824ZM133.317 212.806L130.599 220.402H136.017L133.317 212.806ZM151.383 212.86H145.281V226H143.805V212.86H137.721V211.438H151.383V212.86ZM153.776 212.86V217.486H160.778V218.908L153.776 218.872V224.596H162.092V226H152.318V211.438H162.092V212.86H153.776ZM172.55 212.842H166.79V213.67C166.79 216.766 166.772 219.178 166.412 222.058C166.034 225.226 165.332 226 162.488 226C162.488 226 162.488 224.866 162.488 224.596C164.648 224.596 164.792 224.416 165.152 221.158C165.296 219.898 165.458 217.9 165.458 215.488V211.438H173.972V226H172.55V212.842ZM177.436 212.86V217.486H184.438V218.908L177.436 218.872V224.596H185.752V226H175.978V211.438H185.752V212.86H177.436ZM193.463 226L188.423 213.13V226H186.947V211.438H189.305L194.147 223.912L198.953 211.438H201.329V226H199.835L199.853 213.13L194.813 226H193.463ZM30.754 232.13L21.88 245H19.972V230.438H21.448V243.308L30.286 230.438H32.23V245H30.754V232.13ZM48.7719 237.476C50.9319 237.8 51.5079 239.546 51.5079 241.166C51.5079 243.47 50.0499 245 46.6839 245H40.9779V230.438H46.4859C49.0239 230.438 50.6259 232.418 50.6259 234.542C50.6259 235.478 50.1759 236.99 48.7719 237.476ZM46.0539 231.878H42.4359V236.846C43.6059 236.846 45.1539 236.846 46.0359 236.846C48.0519 236.846 49.1319 236.234 49.1319 234.38C49.1319 232.922 48.1239 231.878 46.0539 231.878ZM46.9539 243.578C48.7899 243.578 50.0499 242.876 50.0499 241.058C50.0499 239.582 48.8979 238.268 46.9179 238.268H42.4359V243.578H46.9539ZM71.0255 232.13L62.1515 245H60.2435V230.438H61.7195V243.308L70.5575 230.438H72.5015V245H71.0255V232.13ZM83.8958 230.438V231.86H76.2998V245H74.8418V230.438H83.8958ZM90.7217 230.438C93.8177 230.438 95.4917 232.652 95.4917 234.74C95.4917 236.828 93.8537 238.952 90.7397 238.952H86.3117V245H84.8177V230.438H90.7217ZM91.0097 237.476C92.4317 237.476 94.0337 236.576 94.0337 234.74C94.0337 232.868 92.4137 231.914 91.0097 231.914H86.3117V237.476H91.0097ZM103.055 230.132C107.213 230.132 109.913 233.03 109.913 237.71C109.913 243.308 106.367 245.288 103.055 245.288C98.8785 245.288 96.1965 242.318 96.1965 237.71C96.1965 235.37 96.8985 233.408 98.2125 232.058C99.4365 230.816 101.147 230.132 103.055 230.132ZM103.055 243.812C106.421 243.812 108.419 241.616 108.419 237.71C108.419 233.174 105.683 231.608 103.055 231.608C100.409 231.608 97.6725 233.336 97.6725 237.71C97.6725 242.228 100.409 243.812 103.055 243.812ZM119.19 237.476C121.35 237.8 121.926 239.546 121.926 241.166C121.926 243.47 120.468 245 117.102 245H111.396V230.438H116.904C119.442 230.438 121.044 232.418 121.044 234.542C121.044 235.478 120.594 236.99 119.19 237.476ZM116.472 231.878H112.854V236.846C114.024 236.846 115.572 236.846 116.454 236.846C118.47 236.846 119.55 236.234 119.55 234.38C119.55 232.922 118.542 231.878 116.472 231.878ZM117.372 243.578C119.208 243.578 120.468 242.876 120.468 241.058C120.468 239.582 119.316 238.268 117.336 238.268H112.854V243.578H117.372ZM130.248 230.132C134.406 230.132 137.106 233.03 137.106 237.71C137.106 243.308 133.56 245.288 130.248 245.288C126.072 245.288 123.39 242.318 123.39 237.71C123.39 235.37 124.092 233.408 125.406 232.058C126.63 230.816 128.34 230.132 130.248 230.132ZM130.248 243.812C133.614 243.812 135.612 241.616 135.612 237.71C135.612 233.174 132.876 231.608 130.248 231.608C127.602 231.608 124.866 233.336 124.866 237.71C124.866 242.228 127.602 243.812 130.248 243.812ZM144.727 230.15C142.999 230.15 141.469 228.908 141.469 226.964H142.639C142.639 227.882 143.287 228.998 144.727 228.998C146.149 228.998 146.779 227.882 146.779 226.964H147.949C147.949 228.908 146.437 230.15 144.727 230.15ZM148.903 230.438H150.847V245H149.371V232.13L140.497 245H138.589V230.438H140.065V243.308L148.903 230.438ZM167.425 232.166C167.425 232.166 174.463 232.058 174.463 237.764C174.463 243.362 167.425 243.272 167.425 243.272V245H165.949V243.272C165.949 243.272 158.911 243.362 158.911 237.764C158.911 232.058 165.949 232.166 165.949 232.166V230.438H167.425V232.166ZM165.949 241.832V233.462C165.949 233.462 160.207 233.336 160.207 237.764C160.207 242.084 165.949 241.832 165.949 241.832ZM167.425 241.85C167.425 241.85 173.149 242.066 173.149 237.764C173.149 233.336 167.425 233.462 167.425 233.462V241.85ZM182.103 230.132C186.261 230.132 188.961 233.03 188.961 237.71C188.961 243.308 185.415 245.288 182.103 245.288C177.927 245.288 175.245 242.318 175.245 237.71C175.245 235.37 175.947 233.408 177.261 232.058C178.485 230.816 180.195 230.132 182.103 230.132ZM182.103 243.812C185.469 243.812 187.467 241.616 187.467 237.71C187.467 233.174 184.731 231.608 182.103 231.608C179.457 231.608 176.721 233.336 176.721 237.71C176.721 242.228 179.457 243.812 182.103 243.812ZM196.349 230.438C199.445 230.438 201.119 232.652 201.119 234.74C201.119 236.828 199.481 238.952 196.367 238.952H191.939V245H190.445V230.438H196.349ZM196.637 237.476C198.059 237.476 199.661 236.576 199.661 234.74C199.661 232.868 198.041 231.914 196.637 231.914H191.939V237.476H196.637ZM208.843 245L203.803 232.13V245H202.327V230.438H204.685L209.527 242.912L214.333 230.438H216.709V245H215.215L215.233 232.13L210.193 245H208.843ZM220.133 231.86V236.486H227.135V237.908L220.133 237.872V243.596H228.449V245H218.675V230.438H228.449V231.86H220.133ZM26.326 249.132C30.484 249.132 33.184 252.03 33.184 256.71C33.184 262.308 29.638 264.288 26.326 264.288C22.15 264.288 19.468 261.318 19.468 256.71C19.468 254.37 20.17 252.408 21.484 251.058C22.708 249.816 24.418 249.132 26.326 249.132ZM26.326 262.812C29.692 262.812 31.69 260.616 31.69 256.71C31.69 252.174 28.954 250.608 26.326 250.608C23.68 250.608 20.944 252.336 20.944 256.71C20.944 261.228 23.68 262.812 26.326 262.812ZM44.6213 260.004C44.6213 262.938 42.8393 264.288 39.4553 264.288C34.0913 264.288 33.9653 260.976 33.9653 259.644H35.3333C35.3333 260.4 35.5133 262.884 39.2573 262.884C42.5333 262.884 43.3973 261.318 43.1993 259.644C43.0553 258.384 41.5973 257.304 39.0053 257.304V255.954C42.6053 255.954 42.8213 253.866 42.8213 253.092C42.8213 251.346 41.1473 250.572 39.6533 250.572C37.2593 250.572 36.1973 251.904 35.9813 253.398H34.5053C34.6673 251.202 36.2693 249.15 39.4373 249.15C42.8033 249.15 44.2613 250.86 44.2613 253.434C44.2613 255.936 42.0473 256.602 42.0473 256.602C42.0473 256.602 44.6213 256.962 44.6213 260.004ZM55.9546 264V256.89H47.6746V264H46.1986V249.438H47.6746V255.486H55.9546V249.438H57.4306V264H55.9546ZM67.8957 259.824H61.4697L59.9757 264H58.4277L63.8637 249.438H65.5197L70.9737 264H69.3897L67.8957 259.824ZM64.6917 250.806L61.9737 258.402H67.3917L64.6917 250.806ZM73.4085 257.502L80.7885 249.438H82.7865L77.4045 255.324L83.4525 264H81.6705L76.3965 256.422L73.4085 259.68V264H71.9505V249.438H73.4085V257.502ZM89.6424 249.132C93.8004 249.132 96.5004 252.03 96.5004 256.71C96.5004 262.308 92.9544 264.288 89.6424 264.288C85.4664 264.288 82.7844 261.318 82.7844 256.71C82.7844 254.37 83.4864 252.408 84.8004 251.058C86.0244 249.816 87.7344 249.132 89.6424 249.132ZM89.6424 262.812C93.0084 262.812 95.0064 260.616 95.0064 256.71C95.0064 252.174 92.2704 250.608 89.6424 250.608C86.9964 250.608 84.2604 252.336 84.2604 256.71C84.2604 261.228 86.9964 262.812 89.6424 262.812ZM104.5 264L99.4597 251.13V264H97.9837V249.438H100.342L105.184 261.912L109.99 249.438H112.366V264H110.872L110.89 251.13L105.85 264H104.5ZM125.113 251.13L116.239 264H114.331V249.438H115.807V262.308L124.645 249.438H126.589V264H125.113V251.13ZM141.188 250.86H135.086V264H133.61V250.86H127.526V249.438H141.188V250.86ZM148.134 255.846C150.996 255.846 152.652 257.952 152.652 259.842C152.652 262.578 151.194 264 147.828 264H142.122V249.438H143.58V255.846H148.134ZM148.098 262.578C149.934 262.578 151.194 261.876 151.194 260.058C151.194 258.582 150.042 257.268 148.062 257.268H143.58V262.578H148.098ZM165.437 258.69H166.949C166.211 262.776 163.151 264.288 160.271 264.288C156.095 264.288 153.413 261.318 153.413 256.71C153.413 254.37 154.115 252.408 155.429 251.058C156.653 249.816 158.363 249.132 160.271 249.132C163.691 249.132 166.103 251.094 166.859 254.388H165.347C164.573 251.634 162.377 250.608 160.271 250.608C157.625 250.608 154.889 252.336 154.889 256.71C154.889 261.228 157.625 262.812 160.271 262.812C163.007 262.812 164.861 261.354 165.437 258.69ZM169.376 264H167.648L171.176 257.646H172.886L169.376 264ZM172.724 249.438H178.736V264H177.224V257.646H176.126H171.176C170.114 257.466 167.954 256.602 167.954 253.542C167.954 250.482 170.888 249.438 172.724 249.438ZM177.224 256.17V250.95H172.436C170.87 250.95 169.43 251.976 169.43 253.542C169.43 255.396 170.438 256.17 172.436 256.17H177.224ZM29.728 283V269.86H21.448V283H19.972V268.438H31.204V283H29.728ZM39.0772 268.438C42.1732 268.438 43.8472 270.652 43.8472 272.74C43.8472 274.828 42.2092 276.952 39.0952 276.952H34.6672V283H33.1732V268.438H39.0772ZM39.3652 275.476C40.7872 275.476 42.3892 274.576 42.3892 272.74C42.3892 270.868 40.7692 269.914 39.3652 269.914H34.6672V275.476H39.3652ZM51.41 268.132C55.568 268.132 58.268 271.03 58.268 275.71C58.268 281.308 54.722 283.288 51.41 283.288C47.234 283.288 44.552 280.318 44.552 275.71C44.552 273.37 45.254 271.408 46.568 270.058C47.792 268.816 49.502 268.132 51.41 268.132ZM51.41 281.812C54.776 281.812 56.774 279.616 56.774 275.71C56.774 271.174 54.038 269.608 51.41 269.608C48.764 269.608 46.028 271.336 46.028 275.71C46.028 280.228 48.764 281.812 51.41 281.812ZM71.3073 281.596H73.7373V285.916H72.2793V283.018H59.7513V268.438H61.2273V281.596H69.8313V268.438H71.3073V281.596ZM76.221 269.86V274.486H83.223V275.908L76.221 275.872V281.596H84.537V283H74.763V268.438H84.537V269.86H76.221ZM96.4256 277.69H97.9376C97.1996 281.776 94.1396 283.288 91.2596 283.288C87.0836 283.288 84.4016 280.318 84.4016 275.71C84.4016 273.37 85.1036 271.408 86.4176 270.058C87.6416 268.816 89.3516 268.132 91.2596 268.132C94.6796 268.132 97.0916 270.094 97.8476 273.388H96.3356C95.5616 270.634 93.3656 269.608 91.2596 269.608C88.6136 269.608 85.8776 271.336 85.8776 275.71C85.8776 280.228 88.6136 281.812 91.2596 281.812C93.9956 281.812 95.8496 280.354 96.4256 277.69ZM110.805 277.69H112.317C111.579 281.776 108.519 283.288 105.639 283.288C101.463 283.288 98.7805 280.318 98.7805 275.71C98.7805 273.37 99.4825 271.408 100.797 270.058C102.021 268.816 103.731 268.132 105.639 268.132C109.059 268.132 111.471 270.094 112.227 273.388H110.715C109.941 270.634 107.745 269.608 105.639 269.608C102.993 269.608 100.257 271.336 100.257 275.71C100.257 280.228 102.993 281.812 105.639 281.812C108.375 281.812 110.229 280.354 110.805 277.69ZM121.597 278.824H115.171L113.677 283H112.129L117.565 268.438H119.221L124.675 283H123.091L121.597 278.824ZM118.393 269.806L115.675 277.402H121.093L118.393 269.806ZM132.168 283L127.128 270.13V283H125.652V268.438H128.01L132.852 280.912L137.658 268.438H140.034V283H138.54L138.558 270.13L133.518 283H132.168ZM152.781 270.13L143.907 283H141.999V268.438H143.475V281.308L152.313 268.438H154.257V283H152.781V270.13ZM172.761 283V269.86H164.481V283H163.005V268.438H174.237V283H172.761ZM184.702 278.824H178.276L176.782 283H175.234L180.67 268.438H182.326L187.78 283H186.196L184.702 278.824ZM181.498 269.806L178.78 277.402H184.198L181.498 269.806ZM195.273 283L190.233 270.13V283H188.757V268.438H191.115L195.957 280.912L200.763 268.438H203.139V283H201.645L201.663 270.13L196.623 283H195.273ZM206.185 283H204.457L207.985 276.646H209.695L206.185 283ZM209.533 268.438H215.545V283H214.033V276.646H212.935H207.985C206.923 276.466 204.763 275.602 204.763 272.542C204.763 269.482 207.697 268.438 209.533 268.438ZM214.033 275.17V269.95H209.245C207.679 269.95 206.239 270.976 206.239 272.542C206.239 274.396 207.247 275.17 209.245 275.17H214.033ZM230.133 269.86H224.031V283H222.555V269.86H216.471V268.438H230.133V269.86ZM241.85 270.13L232.976 283H231.068V268.438H232.544V281.308L241.382 268.438H243.326V283H241.85V270.13ZM245.594 281.02H247.52V283C247.52 284.296 246.404 284.998 245.306 284.746V284.116C246.134 284.332 246.818 283.792 246.872 283H245.594V281.02ZM28.468 297.824H22.042L20.548 302H19L24.436 287.438H26.092L31.546 302H29.962L28.468 297.824ZM25.264 288.806L22.546 296.402H27.964L25.264 288.806ZM51.9084 288.86H45.8064V302H44.3304V288.86H38.2464V287.438H51.9084V288.86ZM59.511 297.824H53.085L51.591 302H50.043L55.479 287.438H57.135L62.589 302H61.005L59.511 297.824ZM56.307 288.806L53.589 296.402H59.007L56.307 288.806ZM65.0238 295.502L72.4038 287.438H74.4018L69.0198 293.324L75.0678 302H73.2858L68.0118 294.422L65.0238 297.68V302H63.5658V287.438H65.0238V295.502ZM87.433 294.44L91.501 302H89.899L86.047 295.052H84.193V302H82.771V295.052H80.935L77.083 302H75.481L79.549 294.44L75.589 287.438H77.227L80.935 293.81H82.771V287.438H84.193V293.81H86.047L89.755 287.438H91.393L87.433 294.44ZM94.0804 288.86V293.486H101.082V294.908L94.0804 294.872V300.596H102.396V302H92.6224V287.438H102.396V288.86H94.0804ZM120.115 302V288.86H111.835V302H110.359V287.438H121.591V302H120.115ZM129.914 287.132C134.072 287.132 136.772 290.03 136.772 294.71C136.772 300.308 133.226 302.288 129.914 302.288C125.738 302.288 123.056 299.318 123.056 294.71C123.056 292.37 123.758 290.408 125.072 289.058C126.296 287.816 128.006 287.132 129.914 287.132ZM129.914 300.812C133.28 300.812 135.278 298.616 135.278 294.71C135.278 290.174 132.542 288.608 129.914 288.608C127.268 288.608 124.532 290.336 124.532 294.71C124.532 299.228 127.268 300.812 129.914 300.812ZM147.669 287.438V288.86H140.073V302H138.615V287.438H147.669ZM154.495 287.438C157.591 287.438 159.265 289.652 159.265 291.74C159.265 293.828 157.627 295.952 154.513 295.952H150.085V302H148.591V287.438H154.495ZM154.783 294.476C156.205 294.476 157.807 293.576 157.807 291.74C157.807 289.868 156.187 288.914 154.783 288.914H150.085V294.476H154.783ZM168.742 287.402L170.308 287.438L163.234 302L161.686 301.964L163.99 297.338L159.202 287.438H160.768L164.746 295.682L168.742 287.402ZM180.237 298.004C180.237 300.938 178.455 302.288 175.071 302.288C169.707 302.288 169.581 298.976 169.581 297.644H170.949C170.949 298.4 171.129 300.884 174.873 300.884C178.149 300.884 179.013 299.318 178.815 297.644C178.671 296.384 177.213 295.304 174.621 295.304V293.954C178.221 293.954 178.437 291.866 178.437 291.092C178.437 289.346 176.763 288.572 175.269 288.572C172.875 288.572 171.813 289.904 171.597 291.398H170.121C170.283 289.202 171.885 287.15 175.053 287.15C178.419 287.15 179.877 288.86 179.877 291.434C179.877 293.936 177.663 294.602 177.663 294.602C177.663 294.602 180.237 294.962 180.237 298.004ZM192.596 289.13L183.722 302H181.814V287.438H183.29V300.308L192.128 287.438H194.072V302H192.596V289.13ZM208.67 288.86H202.568V302H201.092V288.86H195.008V287.438H208.67V288.86ZM215.617 293.846C218.479 293.846 220.135 295.952 220.135 297.842C220.135 300.578 218.677 302 215.311 302H209.605V287.438H211.063V293.846H215.617ZM215.581 300.578C217.417 300.578 218.677 299.876 218.677 298.058C218.677 296.582 217.525 295.268 215.545 295.268H211.063V300.578H215.581ZM232.92 296.69H234.432C233.694 300.776 230.634 302.288 227.754 302.288C223.578 302.288 220.896 299.318 220.896 294.71C220.896 292.37 221.598 290.408 222.912 289.058C224.136 287.816 225.846 287.132 227.754 287.132C231.174 287.132 233.586 289.094 234.342 292.388H232.83C232.056 289.634 229.86 288.608 227.754 288.608C225.108 288.608 222.372 290.336 222.372 294.71C222.372 299.228 225.108 300.812 227.754 300.812C230.49 300.812 232.344 299.354 232.92 296.69ZM236.859 302H235.131L238.659 295.646H240.369L236.859 302ZM240.207 287.438H246.219V302H244.707V295.646H243.609H238.659C237.597 295.466 235.437 294.602 235.437 291.542C235.437 288.482 238.371 287.438 240.207 287.438ZM244.707 294.17V288.95H239.919C238.353 288.95 236.913 289.976 236.913 291.542C236.913 293.396 237.921 294.17 239.919 294.17H244.707ZM27.766 313.476C29.926 313.8 30.502 315.546 30.502 317.166C30.502 319.47 29.044 321 25.678 321H19.972V306.438H25.48C28.018 306.438 29.62 308.418 29.62 310.542C29.62 311.478 29.17 312.99 27.766 313.476ZM25.048 307.878H21.43V312.846C22.6 312.846 24.148 312.846 25.03 312.846C27.046 312.846 28.126 312.234 28.126 310.38C28.126 308.922 27.118 307.878 25.048 307.878ZM25.948 319.578C27.784 319.578 29.044 318.876 29.044 317.058C29.044 315.582 27.892 314.268 25.912 314.268H21.43V319.578H25.948ZM50.1276 308.058C51.4596 309.408 52.1616 311.37 52.1616 313.71C52.1616 318.318 49.4796 321.288 45.3036 321.288C42.4236 321.288 39.3636 319.776 38.6256 315.69H40.1196C40.7136 318.354 42.5676 319.812 45.3036 319.812C47.9136 319.812 50.6136 318.264 50.6856 313.89H44.3136V312.468H50.5956C50.1276 309.012 47.6796 307.608 45.3036 307.608C43.1796 307.608 41.0016 308.634 40.2276 311.388H38.6976C39.4716 308.094 41.8836 306.132 45.3036 306.132C47.2116 306.132 48.9216 306.816 50.1276 308.058ZM65.1365 315.69H66.6485C65.9105 319.776 62.8505 321.288 59.9705 321.288C55.7945 321.288 53.1125 318.318 53.1125 313.71C53.1125 311.37 53.8145 309.408 55.1285 308.058C56.3525 306.816 58.0625 306.132 59.9705 306.132C63.3905 306.132 65.8025 308.094 66.5585 311.388H65.0465C64.2725 308.634 62.0765 307.608 59.9705 307.608C57.3245 307.608 54.5885 309.336 54.5885 313.71C54.5885 318.228 57.3245 319.812 59.9705 319.812C62.7065 319.812 64.5605 318.354 65.1365 315.69ZM80.1388 307.86H74.0368V321H72.5608V307.86H66.4768V306.438H80.1388V307.86ZM82.5316 307.86V312.486H89.5336V313.908L82.5316 313.872V319.596H90.8476V321H81.0736V306.438H90.8476V307.86H82.5316ZM104.66 307.86H98.5583V321H97.0823V307.86H90.9983V306.438H104.66V307.86ZM116.377 308.13L107.503 321H105.595V306.438H107.071V319.308L115.909 306.438H117.853V321H116.377V308.13ZM121.291 314.502L128.671 306.438H130.669L125.287 312.324L131.335 321H129.553L124.279 313.422L121.291 316.68V321H119.833V306.438H121.291V314.502ZM140.828 306.402L142.394 306.438L135.32 321L133.772 320.964L136.076 316.338L131.288 306.438H132.854L136.832 314.682L140.828 306.402ZM27.802 327.166C27.802 327.166 34.84 327.058 34.84 332.764C34.84 338.362 27.802 338.272 27.802 338.272V340H26.326V338.272C26.326 338.272 19.288 338.362 19.288 332.764C19.288 327.058 26.326 327.166 26.326 327.166V325.438H27.802V327.166ZM26.326 336.832V328.462C26.326 328.462 20.584 328.336 20.584 332.764C20.584 337.084 26.326 336.832 26.326 336.832ZM27.802 336.85C27.802 336.85 33.526 337.066 33.526 332.764C33.526 328.336 27.802 328.462 27.802 328.462V336.85ZM42.4803 325.132C46.6383 325.132 49.3383 328.03 49.3383 332.71C49.3383 338.308 45.7923 340.288 42.4803 340.288C38.3043 340.288 35.6223 337.318 35.6223 332.71C35.6223 330.37 36.3243 328.408 37.6383 327.058C38.8623 325.816 40.5723 325.132 42.4803 325.132ZM42.4803 338.812C45.8463 338.812 47.8443 336.616 47.8443 332.71C47.8443 328.174 45.1083 326.608 42.4803 326.608C39.8343 326.608 37.0983 328.336 37.0983 332.71C37.0983 337.228 39.8343 338.812 42.4803 338.812ZM62.7189 326.86H56.6169V340H55.1409V326.86H49.0569V325.438H62.7189V326.86ZM69.2694 325.132C73.4274 325.132 76.1274 328.03 76.1274 332.71C76.1274 338.308 72.5814 340.288 69.2694 340.288C65.0934 340.288 62.4114 337.318 62.4114 332.71C62.4114 330.37 63.1134 328.408 64.4274 327.058C65.6514 325.816 67.3614 325.132 69.2694 325.132ZM69.2694 338.812C72.6354 338.812 74.6334 336.616 74.6334 332.71C74.6334 328.174 71.8974 326.608 69.2694 326.608C66.6234 326.608 63.8874 328.336 63.8874 332.71C63.8874 337.228 66.6234 338.812 69.2694 338.812ZM85.3332 335.824H78.9072L77.4132 340H75.8652L81.3012 325.438H82.9572L88.4112 340H86.8272L85.3332 335.824ZM82.1292 326.806L79.4112 334.402H84.8292L82.1292 326.806ZM99.144 340V326.86H90.864V340H89.388V325.438H100.62V340H99.144ZM112.345 340V326.86H104.065V340H102.589V325.438H113.821V340H112.345ZM124.286 335.824H117.86L116.366 340H114.818L120.254 325.438H121.91L127.364 340H125.78L124.286 335.824ZM121.082 326.806L118.364 334.402H123.782L121.082 326.806ZM134.245 325.438C137.341 325.438 139.015 327.652 139.015 329.74C139.015 331.828 137.377 333.952 134.263 333.952H129.835V340H128.341V325.438H134.245ZM134.533 332.476C135.955 332.476 137.557 331.576 137.557 329.74C137.557 327.868 135.937 326.914 134.533 326.914H129.835V332.476H134.533ZM147.12 335.824H140.694L139.2 340H137.652L143.088 325.438H144.744L150.198 340H148.614L147.12 335.824ZM143.916 326.806L141.198 334.402H146.616L143.916 326.806ZM161.983 326.86H155.881V340H154.405V326.86H148.321V325.438H161.983V326.86ZM168.533 325.132C172.691 325.132 175.391 328.03 175.391 332.71C175.391 338.308 171.845 340.288 168.533 340.288C164.357 340.288 161.675 337.318 161.675 332.71C161.675 330.37 162.377 328.408 163.691 327.058C164.915 325.816 166.625 325.132 168.533 325.132ZM168.533 338.812C171.899 338.812 173.897 336.616 173.897 332.71C173.897 328.174 171.161 326.608 168.533 326.608C165.887 326.608 163.151 328.336 163.151 332.71C163.151 337.228 165.887 338.812 168.533 338.812ZM184.668 332.476C186.828 332.8 187.404 334.546 187.404 336.166C187.404 338.47 185.946 340 182.58 340H176.874V325.438H182.382C184.92 325.438 186.522 327.418 186.522 329.542C186.522 330.478 186.072 331.99 184.668 332.476ZM181.95 326.878H178.332V331.846C179.502 331.846 181.05 331.846 181.932 331.846C183.948 331.846 185.028 331.234 185.028 329.38C185.028 327.922 184.02 326.878 181.95 326.878ZM182.85 338.578C184.686 338.578 185.946 337.876 185.946 336.058C185.946 334.582 184.794 333.268 182.814 333.268H178.332V338.578H182.85ZM190.776 340H188.85V338.02H190.776V340ZM31.492 372.69H33.004C32.266 376.776 29.206 378.288 26.326 378.288C22.15 378.288 19.468 375.318 19.468 370.71C19.468 368.37 20.17 366.408 21.484 365.058C22.708 363.816 24.418 363.132 26.326 363.132C29.746 363.132 32.158 365.094 32.914 368.388H31.402C30.628 365.634 28.432 364.608 26.326 364.608C23.68 364.608 20.944 366.336 20.944 370.71C20.944 375.228 23.68 376.812 26.326 376.812C29.062 376.812 30.916 375.354 31.492 372.69ZM40.7049 363.132C44.8629 363.132 47.5629 366.03 47.5629 370.71C47.5629 376.308 44.0169 378.288 40.7049 378.288C36.5289 378.288 33.8469 375.318 33.8469 370.71C33.8469 368.37 34.5489 366.408 35.8629 365.058C37.0869 363.816 38.7969 363.132 40.7049 363.132ZM40.7049 376.812C44.0709 376.812 46.0689 374.616 46.0689 370.71C46.0689 366.174 43.3329 364.608 40.7049 364.608C38.0589 364.608 35.3229 366.336 35.3229 370.71C35.3229 375.228 38.0589 376.812 40.7049 376.812ZM59.0002 374.004C59.0002 376.938 57.2182 378.288 53.8342 378.288C48.4702 378.288 48.3442 374.976 48.3442 373.644H49.7122C49.7122 374.4 49.8922 376.884 53.6362 376.884C56.9122 376.884 57.7762 375.318 57.5782 373.644C57.4342 372.384 55.9762 371.304 53.3842 371.304V369.954C56.9842 369.954 57.2002 367.866 57.2002 367.092C57.2002 365.346 55.5262 364.572 54.0322 364.572C51.6382 364.572 50.5762 365.904 50.3602 367.398H48.8842C49.0462 365.202 50.6482 363.15 53.8162 363.15C57.1822 363.15 58.6402 364.86 58.6402 367.434C58.6402 369.936 56.4262 370.602 56.4262 370.602C56.4262 370.602 59.0002 370.962 59.0002 374.004ZM70.9815 376.632V364.842H65.2935V367.326C65.3475 369.972 64.7355 374.13 63.6915 376.632H70.9815ZM72.4035 376.65H75.3015V380.934H73.8795V378.018H60.9375V380.934H59.5335V376.65H61.7475C63.0795 375.372 63.8175 371.052 63.8535 367.488V363.456H72.4035V376.65ZM85.1926 373.824H78.7666L77.2726 378H75.7246L81.1606 363.438H82.8166L88.2706 378H86.6866L85.1926 373.824ZM81.9886 364.806L79.2706 372.402H84.6886L81.9886 364.806ZM97.0414 370.476C99.2014 370.8 99.7774 372.546 99.7774 374.166C99.7774 376.47 98.3194 378 94.9534 378H89.2474V363.438H94.7554C97.2934 363.438 98.8954 365.418 98.8954 367.542C98.8954 368.478 98.4454 369.99 97.0414 370.476ZM94.3234 364.878H90.7054V369.846C91.8754 369.846 93.4234 369.846 94.3054 369.846C96.3214 369.846 97.4014 369.234 97.4014 367.38C97.4014 365.922 96.3934 364.878 94.3234 364.878ZM95.2234 376.578C97.0594 376.578 98.3194 375.876 98.3194 374.058C98.3194 372.582 97.1674 371.268 95.1874 371.268H90.7054V376.578H95.2234ZM110.241 373.824H103.815L102.321 378H100.773L106.209 363.438H107.865L113.319 378H111.735L110.241 373.824ZM107.037 364.806L104.319 372.402H109.737L107.037 364.806ZM120.434 363.15C118.706 363.15 117.176 361.908 117.176 359.964H118.346C118.346 360.882 118.994 361.998 120.434 361.998C121.856 361.998 122.486 360.882 122.486 359.964H123.656C123.656 361.908 122.144 363.15 120.434 363.15ZM124.61 363.438H126.554V378H125.078V365.13L116.204 378H114.296V363.438H115.772V376.308L124.61 363.438ZM141.153 364.86H135.051V378H133.575V364.86H127.49V363.438H141.153V364.86ZM143.545 364.86V369.486H150.547V370.908L143.545 370.872V376.596H151.861V378H142.087V363.438H151.861V364.86H143.545ZM169.58 378V370.89H161.3V378H159.824V363.438H161.3V369.486H169.58V363.438H171.056V378H169.58ZM179.379 363.132C183.537 363.132 186.237 366.03 186.237 370.71C186.237 376.308 182.691 378.288 179.379 378.288C175.203 378.288 172.521 375.318 172.521 370.71C172.521 368.37 173.223 366.408 174.537 365.058C175.761 363.816 177.471 363.132 179.379 363.132ZM179.379 376.812C182.745 376.812 184.743 374.616 184.743 370.71C184.743 366.174 182.007 364.608 179.379 364.608C176.733 364.608 173.997 366.336 173.997 370.71C173.997 375.228 176.733 376.812 179.379 376.812ZM195.514 370.476C197.674 370.8 198.25 372.546 198.25 374.166C198.25 376.47 196.792 378 193.426 378H187.72V363.438H193.228C195.766 363.438 197.368 365.418 197.368 367.542C197.368 368.478 196.918 369.99 195.514 370.476ZM192.796 364.878H189.178V369.846C190.348 369.846 191.896 369.846 192.778 369.846C194.794 369.846 195.874 369.234 195.874 367.38C195.874 365.922 194.866 364.878 192.796 364.878ZM193.696 376.578C195.532 376.578 196.792 375.876 196.792 374.058C196.792 372.582 195.64 371.268 193.66 371.268H189.178V376.578H193.696ZM206.23 369.846C209.092 369.846 210.748 371.952 210.748 373.842C210.748 376.578 209.29 378 205.924 378H200.218V363.438H201.676V369.846H206.23ZM206.194 376.578C208.03 376.578 209.29 375.876 209.29 374.058C209.29 372.582 208.138 371.268 206.158 371.268H201.676V376.578H206.194ZM213.916 378H212.458V363.438H213.916V378ZM217.373 364.86V369.486H224.375V370.908L217.373 370.872V376.596H225.689V378H215.915V363.438H225.689V364.86H217.373ZM27.766 389.476C29.926 389.8 30.502 391.546 30.502 393.166C30.502 395.47 29.044 397 25.678 397H19.972V382.438H25.48C28.018 382.438 29.62 384.418 29.62 386.542C29.62 387.478 29.17 388.99 27.766 389.476ZM25.048 383.878H21.43V388.846C22.6 388.846 24.148 388.846 25.03 388.846C27.046 388.846 28.126 388.234 28.126 386.38C28.126 384.922 27.118 383.878 25.048 383.878ZM25.948 395.578C27.784 395.578 29.044 394.876 29.044 393.058C29.044 391.582 27.892 390.268 25.912 390.268H21.43V395.578H25.948ZM38.824 382.132C42.982 382.132 45.682 385.03 45.682 389.71C45.682 395.308 42.136 397.288 38.824 397.288C34.648 397.288 31.966 394.318 31.966 389.71C31.966 387.37 32.668 385.408 33.982 384.058C35.206 382.816 36.916 382.132 38.824 382.132ZM38.824 395.812C42.19 395.812 44.188 393.616 44.188 389.71C44.188 385.174 41.452 383.608 38.824 383.608C36.178 383.608 33.442 385.336 33.442 389.71C33.442 394.228 36.178 395.812 38.824 395.812ZM58.6854 391.69H60.1974C59.4594 395.776 56.3994 397.288 53.5194 397.288C49.3434 397.288 46.6614 394.318 46.6614 389.71C46.6614 387.37 47.3634 385.408 48.6774 384.058C49.9014 382.816 51.6114 382.132 53.5194 382.132C56.9394 382.132 59.3514 384.094 60.1074 387.388H58.5954C57.8214 384.634 55.6254 383.608 53.5194 383.608C50.8734 383.608 48.1374 385.336 48.1374 389.71C48.1374 394.228 50.8734 395.812 53.5194 395.812C56.2554 395.812 58.1094 394.354 58.6854 391.69ZM71.3003 397V383.86H63.0203V397H61.5443V382.438H72.7763V397H71.3003ZM81.0994 382.132C85.2574 382.132 87.9574 385.03 87.9574 389.71C87.9574 395.308 84.4114 397.288 81.0994 397.288C76.9234 397.288 74.2414 394.318 74.2414 389.71C74.2414 387.37 74.9434 385.408 76.2574 384.058C77.4814 382.816 79.1914 382.132 81.0994 382.132ZM81.0994 395.812C84.4654 395.812 86.4634 393.616 86.4634 389.71C86.4634 385.174 83.7274 383.608 81.0994 383.608C78.4534 383.608 75.7174 385.336 75.7174 389.71C75.7174 394.228 78.4534 395.812 81.0994 395.812ZM95.9568 397L90.9168 384.13V397H89.4408V382.438H91.7988L96.6408 394.912L101.447 382.438H103.823V397H102.329L102.347 384.13L97.3068 397H95.9568ZM116.57 384.13L107.696 397H105.788V382.438H107.264V395.308L116.102 382.438H118.046V397H116.57V384.13ZM129.783 397V389.89H121.503V397H120.027V382.438H121.503V388.486H129.783V382.438H131.259V397H129.783ZM141.724 392.824H135.298L133.804 397H132.256L137.692 382.438H139.348L144.802 397H143.218L141.724 392.824ZM138.52 383.806L135.802 391.402H141.22L138.52 383.806ZM155.535 397V389.89H147.255V397H145.779V382.438H147.255V388.486H155.535V382.438H157.011V397H155.535ZM169.762 384.13L160.888 397H158.98V382.438H160.456V395.308L169.294 382.438H171.238V397H169.762V384.13ZM174.298 397H172.57L176.098 390.646H177.808L174.298 397ZM177.646 382.438H183.658V397H182.146V390.646H181.048H176.098C175.036 390.466 172.876 389.602 172.876 386.542C172.876 383.482 175.81 382.438 177.646 382.438ZM182.146 389.17V383.95H177.358C175.792 383.95 174.352 384.976 174.352 386.542C174.352 388.396 175.36 389.17 177.358 389.17H182.146ZM31.492 410.69H33.004C32.266 414.776 29.206 416.288 26.326 416.288C22.15 416.288 19.468 413.318 19.468 408.71C19.468 406.37 20.17 404.408 21.484 403.058C22.708 401.816 24.418 401.132 26.326 401.132C29.746 401.132 32.158 403.094 32.914 406.388H31.402C30.628 403.634 28.432 402.608 26.326 402.608C23.68 402.608 20.944 404.336 20.944 408.71C20.944 413.228 23.68 414.812 26.326 414.812C29.062 414.812 30.916 413.354 31.492 410.69ZM50.8745 416V402.86H42.5945V416H41.1185V401.438H52.3505V416H50.8745ZM55.7777 402.86V407.486H62.7797V408.908L55.7777 408.872V414.596H64.0937V416H54.3197V401.438H64.0937V402.86H55.7777ZM71.1924 401.438C74.2884 401.438 75.9624 403.652 75.9624 405.74C75.9624 407.828 74.3244 409.952 71.2104 409.952H66.7824V416H65.2884V401.438H71.1924ZM71.4804 408.476C72.9024 408.476 74.5044 407.576 74.5044 405.74C74.5044 403.868 72.8844 402.914 71.4804 402.914H66.7824V408.476H71.4804ZM78.6292 402.86V407.486H85.6312V408.908L78.6292 408.872V414.596H86.9452V416H77.1712V401.438H86.9452V402.86H78.6292ZM94.656 416L89.616 403.13V416H88.14V401.438H90.498L95.34 413.912L100.146 401.438H102.522V416H101.028L101.046 403.13L96.006 416H94.656ZM110.842 401.132C115 401.132 117.7 404.03 117.7 408.71C117.7 414.308 114.154 416.288 110.842 416.288C106.666 416.288 103.984 413.318 103.984 408.71C103.984 406.37 104.686 404.408 106 403.058C107.224 401.816 108.934 401.132 110.842 401.132ZM110.842 414.812C114.208 414.812 116.206 412.616 116.206 408.71C116.206 404.174 113.47 402.608 110.842 402.608C108.196 402.608 105.46 404.336 105.46 408.71C105.46 413.228 108.196 414.812 110.842 414.812ZM131.08 402.86H124.978V416H123.502V402.86H117.418V401.438H131.08V402.86ZM133.473 409.502L140.853 401.438H142.851L137.469 407.324L143.517 416H141.735L136.461 408.422L133.473 411.68V416H132.015V401.438H133.473V409.502ZM149.707 401.132C153.865 401.132 156.565 404.03 156.565 408.71C156.565 414.308 153.019 416.288 149.707 416.288C145.531 416.288 142.849 413.318 142.849 408.71C142.849 406.37 143.551 404.408 144.865 403.058C146.089 401.816 147.799 401.132 149.707 401.132ZM149.707 414.812C153.073 414.812 155.071 412.616 155.071 408.71C155.071 404.174 152.335 402.608 149.707 402.608C147.061 402.608 144.325 404.336 144.325 408.71C144.325 413.228 147.061 414.812 149.707 414.812ZM164.186 401.15C162.458 401.15 160.928 399.908 160.928 397.964H162.098C162.098 398.882 162.746 399.998 164.186 399.998C165.608 399.998 166.238 398.882 166.238 397.964H167.408C167.408 399.908 165.896 401.15 164.186 401.15ZM168.362 401.438H170.306V416H168.83V403.13L159.956 416H158.048V401.438H159.524V414.308L168.362 401.438ZM173.456 411.914H172.646L172.16 401.438H173.942L173.456 411.914ZM174.014 416H172.088V414.02H174.014V416Z" fill="white"/>
</svg>
