<svg width="979" height="606" viewBox="0 0 979 606" fill="none" xmlns="http://www.w3.org/2000/svg">
<path d="M977.227 556.619C977.729 572.931 968.946 605.556 929.796 605.556H45.9252C30.6168 606.309 0 598.78 0 562.642V77.793C0.501914 61.2298 11.1425 28.1034 49.6895 28.1034H139.281C146.81 22.5824 168.794 11.5403 196.499 11.5403C224.205 11.5403 245.687 22.5824 252.965 28.1034H392.246L398.269 23.5862H400.528H408.056H415.585H423.114H430.643H438.171H445.7H453.229H460.757H468.286H475.815H483.344H490.872H498.401H505.93H513.458H520.987H523.246L528.516 28.1034H712.216V19.069L722.004 9.28164H730.285V1.75293H737.814H746.849H754.377H761.906H769.435H776.963H784.492H792.021H799.55H807.078H815.736H824.394V9.28164H831.923L840.205 19.069V28.1034H929.043C945.105 28.3544 977.227 39.3965 977.227 81.5573V197.5V445.194V556.619Z" fill="black"/>
<path d="M140.035 27.3505C126.232 27.3505 88.9904 27.3505 50.4434 27.3505C11.8964 27.3505 1.25582 60.4769 0.753906 77.04C0.753906 223.599 0.753906 525.751 0.753906 561.889C0.753906 598.027 31.3707 605.556 46.6791 604.803C324.991 604.803 891.401 604.803 930.55 604.803C969.699 604.803 978.483 572.179 977.981 555.866V444.441M140.035 27.3505C147.564 21.8294 169.548 10.7873 197.253 10.7873C224.959 10.7873 246.441 21.8294 253.719 27.3505M140.035 27.3505H253.719M253.719 27.3505H393M393 27.3505L399.023 22.8333H401.282M393 27.3505V39.3964M529.27 27.3505L524 22.8333H521.741M529.27 27.3505H712.97M529.27 27.3505V39.3964M712.97 27.3505V18.316L722.758 8.52872H731.039M712.97 27.3505H840.958M731.039 8.52872V1H738.568M731.039 8.52872H738.568M825.148 8.52872V1H816.49M825.148 8.52872H832.677L840.958 18.316V27.3505M825.148 8.52872H816.49M840.958 27.3505H929.797C945.859 27.6015 977.981 38.6436 977.981 80.8044V196.747M950.125 444.441C950.125 475.058 950.125 531.473 950.125 554.361C950.125 577.248 931.052 577.449 920.763 577.7C645.714 577.7 88.3881 577.7 59.4779 577.7C30.5676 577.7 28.8611 563.646 28.6102 552.855V98.1204C28.6102 63.7895 55.7135 56.2106 68.5123 56.7125H343.31M950.125 444.441C946.36 444.441 940.337 442.183 940.337 433.148C940.337 424.114 940.337 326.993 940.337 279.562M950.125 444.441V196.747M950.125 444.441H977.981M940.337 279.562C935.067 279.562 927.539 276.551 927.539 269.022C927.539 259.988 927.539 231.881 927.539 219.333C927.539 215.568 929.496 208.04 940.337 208.04M940.337 279.562V208.04M940.337 208.04C940.337 204.275 940.337 196.747 950.125 196.747M950.125 196.747V86.8274C950.125 77.291 942.747 56.7125 922.269 56.7125C901.79 56.7125 682.605 56.7125 573.689 56.7125M950.125 196.747H977.981M573.689 56.7125C573.689 61.9826 570.678 70.2642 562.396 70.2642C558.961 70.2642 537.639 70.2642 508.942 70.2642M573.689 56.7125H508.942M573.689 56.7125C573.689 50.6895 570.678 43.1608 562.396 43.1608M343.31 56.7125C343.31 67.2527 351.341 70.0132 355.356 70.2642C370.754 70.2642 389.912 70.2642 410.316 70.2642M343.31 56.7125H410.316M343.31 56.7125C343.31 49.9367 346.322 43.1608 355.356 43.1608M977.981 444.441V196.747M529.27 39.3964L508.942 56.7125M529.27 39.3964H521.741M508.942 56.7125V70.2642M508.942 56.7125H410.316M508.942 70.2642C479.977 70.2642 443.498 70.2642 410.316 70.2642M393 39.3964L410.316 56.7125M393 39.3964H401.282M410.316 56.7125V70.2642M355.356 43.1608C364.391 43.1608 387.981 43.1608 396.764 43.1608M355.356 43.1608H59.4779C42.9147 42.6589 14.3056 51.593 14.3056 91.3446C14.3056 131.096 14.3056 417.589 14.3056 555.866C14.0546 569.418 20.3286 590.498 53.4549 590.498C86.5813 590.498 644.459 590.498 920.763 590.498C935.318 589.996 964.429 587.186 964.429 555.866C964.429 524.547 964.429 464.769 964.429 444.441M562.396 43.1608C554.114 43.1608 532.231 43.1608 525.204 43.1608M562.396 43.1608H929.797C941.341 43.6627 964.429 52.4964 964.429 83.8159C964.429 115.135 964.429 176.419 964.429 196.747M401.282 22.8333V39.3964M401.282 22.8333H408.81M401.282 39.3964H408.81M408.81 39.3964V22.8333M408.81 39.3964H416.339M408.81 22.8333H416.339M416.339 22.8333V39.3964M416.339 22.8333H423.868M416.339 39.3964H423.868M423.868 39.3964V22.8333M423.868 39.3964H431.396M423.868 22.8333H431.396M431.396 22.8333V39.3964M431.396 22.8333H438.925M431.396 39.3964H438.925M438.925 39.3964V22.8333M438.925 39.3964H446.454M438.925 22.8333H446.454M446.454 22.8333V39.3964M446.454 22.8333H453.983M446.454 39.3964H453.983M453.983 39.3964V22.8333M453.983 39.3964H461.511M453.983 22.8333H461.511M461.511 22.8333V39.3964M461.511 22.8333H469.04M461.511 39.3964H469.04M469.04 39.3964V22.8333M469.04 39.3964H476.569M469.04 22.8333H476.569M476.569 22.8333V39.3964M476.569 22.8333H484.097M476.569 39.3964H484.097M484.097 39.3964V22.8333M484.097 39.3964H491.626M484.097 22.8333H491.626M491.626 22.8333V39.3964M491.626 22.8333H499.155M491.626 39.3964H499.155M499.155 39.3964V22.8333M499.155 39.3964H506.684M499.155 22.8333H506.684M506.684 22.8333V39.3964M506.684 22.8333H514.212M506.684 39.3964H514.212M514.212 39.3964V22.8333M514.212 39.3964H521.741M514.212 22.8333H521.741M521.741 22.8333V39.3964M738.568 8.52872V1M738.568 8.52872H747.602M738.568 1H747.602M747.602 1V8.52872M747.602 1H755.131M747.602 8.52872H755.131M755.131 8.52872V1M755.131 8.52872H762.66M755.131 1H762.66M762.66 1V8.52872M762.66 1H770.189M762.66 8.52872H770.189M770.189 8.52872V1M770.189 8.52872H777.717M770.189 1H777.717M777.717 1V8.52872M777.717 1H785.246M777.717 8.52872H785.246M785.246 8.52872V1M785.246 8.52872H792.775M785.246 1H792.775M792.775 1V8.52872M792.775 1H800.303M792.775 8.52872H800.303M800.303 8.52872V1M800.303 8.52872H807.832M800.303 1H807.832M807.832 1V8.52872M807.832 1H816.49M807.832 8.52872H816.49M816.49 8.52872V1M866.501 299.137H892.907M892.907 299.137L886.501 293.036M892.907 299.137L886.501 305.536M740.827 299.137H766.501M740.827 299.137L747.501 293.036M740.827 299.137L747.501 305.536M817.619 353.536L810.844 368.536H824.395L816.114 384.036M816.114 384.036L824.395 379.536M816.114 384.036V375.536M858.001 427.536V407.536H880.501M858.001 427.536H880.501V407.536M858.001 427.536L880.501 407.536M817.619 484.536V472.536M817.619 484.536C821.08 484.536 828.001 482.136 828.001 472.536L821.501 477.536M817.619 484.536C813.913 484.703 806.501 482.536 806.501 472.536L812.501 477.536M817.619 472.536C819.878 472.369 824.395 470.036 824.395 462.036L820.001 465.536L817.619 462.036L816.114 465.536L810.844 462.036C810.844 470.436 815.361 472.536 817.619 472.536ZM765.501 418.036L759.001 410.036C757.501 411.598 755.501 414.723 755.501 418.036C755.501 421.349 757.001 427.036 765.501 427.036C772.301 427.036 775.001 422.036 775.001 418.036C775.001 414.036 773.101 407.036 765.501 407.036M865.001 537.044V548.536M865.001 537.044H869.751M865.001 537.044H860.251M865.001 548.536H868.251M865.001 548.536H861.751M868.251 548.536H871.501L874.501 537.044H869.751M868.251 548.536L869.751 537.044M860.251 537.044H855.501L858.501 548.536H861.751M860.251 537.044L861.751 548.536M855.501 534.036V531.536L874.501 528.536M789.501 540.5V532.5V532H775.001M789.501 540.5V548.5H775.001M789.501 540.5H746.501M746.501 540.5V548.5H760.501M746.501 540.5V532H760.501M760.501 532V548.5M760.501 532H775.001M760.501 548.5H775.001M775.001 548.5V532M70.0181 110.919V537.044H667.798V110.919H70.0181ZM50.4434 91.3446H685.867V555.866H50.4434V91.3446ZM824.395 524.246V555.866H899.682C904.953 555.866 914.74 551.5 914.74 540.056C914.74 528.612 904.953 524.246 899.682 524.246H824.395ZM810.844 524.246V555.866H736.309C730.286 555.866 720.499 551.349 720.499 540.056C720.499 528.597 731.039 524.246 736.309 524.246H810.844ZM810.844 281.929V315.7H736.309C723.661 315.7 720.499 303.654 720.499 297.631C720.75 292.397 724.263 281.929 736.309 281.929H810.844ZM824.395 281.929H899.682C904.702 282.144 914.74 286.338 914.74 299.137C914.74 311.936 904.702 315.449 899.682 315.7H824.395V281.929ZM734.804 242.672C739.321 242.672 749.861 239.058 749.861 227.614C749.861 216.171 740.074 212.557 734.804 212.557C729.534 212.557 719.746 216.321 719.746 227.614C719.746 239.66 730.286 242.672 734.804 242.672ZM930.55 111.672V147.81C930.048 154.837 924.979 168.89 908.717 168.89C892.455 168.89 887.386 154.837 886.884 147.81V111.672C887.135 104.645 891.853 90.5917 908.717 90.5917C925.581 90.5917 930.299 104.645 930.55 111.672ZM935.82 109.413V148.798C935.82 159.856 927.169 175.666 908.717 175.666C889.895 175.666 881.614 159.856 881.614 148.798V109.413C881.614 101.132 889.142 83.8159 908.717 83.8159C928.292 83.8159 935.82 101.132 935.82 109.413ZM817.619 343.557C850.746 343.557 892.907 369.154 892.907 420.349C892.907 454.229 865.502 495.637 816.114 495.637C777.717 495.637 740.827 464.016 740.827 419.597C740.827 387.976 763.413 343.557 817.619 343.557ZM816.114 445.947C825.901 445.947 841.711 438.418 841.711 420.349C842.464 410.562 833.43 394.752 816.114 394.752C807.079 393.999 790.516 402.281 790.516 420.349C790.516 432.395 799.551 445.947 816.114 445.947Z" stroke="white" stroke-width="1.50574"/>
<circle cx="846.979" cy="100.379" r="3.76436" fill="#48E2DC"/>
<circle cx="907.964" cy="129.741" r="9.03446" fill="#FD4B28"/>
<circle cx="816.866" cy="100.379" r="3.76436" fill="#48E2DC"/>
<circle cx="786.751" cy="100.379" r="3.76436" fill="#48E2DC"/>
<circle cx="756.635" cy="100.379" r="3.76436" fill="#48E2DC"/>
<circle cx="726.522" cy="100.379" r="3.76436" fill="#48E2DC"/>
<circle cx="831.923" cy="115.436" r="3.76436" fill="#48E2DC"/>
<circle cx="801.807" cy="115.436" r="3.76436" fill="#48E2DC"/>
<circle cx="771.694" cy="115.436" r="3.76436" fill="#48E2DC"/>
<circle cx="741.579" cy="115.436" r="3.76436" fill="#48E2DC"/>
<circle cx="831.923" cy="144.046" r="3.76436" fill="#48E2DC"/>
<circle cx="801.807" cy="144.046" r="3.76436" fill="#48E2DC"/>
<circle cx="771.694" cy="144.046" r="3.76436" fill="#48E2DC"/>
<circle cx="741.579" cy="144.046" r="3.76436" fill="#48E2DC"/>
<circle cx="846.979" cy="128.988" r="3.76436" fill="#48E2DC"/>
<circle cx="816.866" cy="128.988" r="3.76436" fill="#48E2DC"/>
<circle cx="786.751" cy="128.988" r="3.76436" fill="#48E2DC"/>
<circle cx="756.635" cy="128.988" r="3.76436" fill="#48E2DC"/>
<circle cx="726.522" cy="128.988" r="3.76436" fill="#48E2DC"/>
<circle cx="846.979" cy="157.597" r="3.76436" fill="#48E2DC"/>
<circle cx="816.866" cy="157.597" r="3.76436" fill="#48E2DC"/>
<circle cx="786.751" cy="157.597" r="3.76436" fill="#48E2DC"/>
<circle cx="756.635" cy="157.597" r="3.76436" fill="#48E2DC"/>
<circle cx="726.522" cy="157.597" r="3.76436" fill="#48E2DC"/>
</svg>
