<svg width="1393" height="810" viewBox="0 0 1393 810" fill="none" xmlns="http://www.w3.org/2000/svg">
<path d="M677.877 703.753H208.516C186.487 703.753 168.63 685.895 168.63 663.867V599.981L147.359 580.395C139.157 572.843 134.49 562.202 134.49 551.053V96.6061C134.49 74.5777 152.348 56.7201 174.376 56.7201H415.382L423.678 52.44C429.332 49.5224 435.603 48 441.966 48H1000.15C1022.18 48 1040.04 65.8575 1040.04 87.886V587.813C1040.04 609.841 1022.18 627.699 1000.15 627.699H811.006C802.774 627.699 794.744 630.246 788.017 634.991L700.866 696.461C694.139 701.206 686.109 703.753 677.877 703.753Z" fill="black"/>
<path d="M207.84 80.8558H360.53C365.922 80.8558 371.236 79.5657 376.029 77.0931L415.382 56.7883H173.7C152.045 56.7883 134.49 74.3432 134.49 95.9983V552.9C134.49 562.916 138.682 572.474 146.05 579.258L168.63 600.05V120.066C168.63 98.4107 186.185 80.8558 207.84 80.8558Z" fill="#FD4B28"/>
<path d="M415.044 56.7201L423.34 52.44C428.995 49.5224 435.265 48 441.628 48H999.813C1021.84 48 1039.7 65.8575 1039.7 87.886V587.813C1039.7 609.841 1021.84 627.699 999.813 627.699H810.669C802.437 627.699 794.406 630.246 787.679 634.991L700.528 696.461C693.801 701.205 685.771 703.753 677.539 703.753H208.178C186.15 703.753 168.292 685.895 168.292 663.867V599.981M415.044 56.7201L377.003 76.3476C371.349 79.2653 365.078 80.7876 358.715 80.7876H208.178C186.15 80.7876 168.292 98.6452 168.292 120.674V599.981M415.044 56.7201H174.038C152.01 56.7201 134.152 74.5777 134.152 96.6061V551.053C134.152 562.202 138.819 572.843 147.021 580.395L168.292 599.981M1015.36 105.162V573.954C1015.36 582.168 1008.7 588.827 1000.49 588.827H207.502C199.288 588.827 192.629 582.168 192.629 573.954V107.116C192.629 98.9167 199.266 92.2638 207.465 92.2436L1000.45 90.2889C1008.68 90.2686 1015.36 96.9332 1015.36 105.162Z" stroke="white" stroke-width="0.676034"/>
<circle cx="462.705" cy="69.2949" r="11.4926" stroke="white" stroke-width="0.676034"/>
<circle cx="520.167" cy="69.2949" r="11.4926" stroke="white" stroke-width="0.676034"/>
<circle cx="560.729" cy="69.2949" r="11.4926" stroke="white" stroke-width="0.676034"/>
<circle cx="601.292" cy="69.2949" r="11.4926" stroke="white" stroke-width="0.676034"/>
<path d="M200.742 599.982H262.937C267.604 599.982 271.387 603.765 271.387 608.432C271.387 613.099 267.604 616.882 262.937 616.882H200.742C196.075 616.882 192.291 613.099 192.291 608.432C192.291 603.765 196.075 599.982 200.742 599.982Z" stroke="white" stroke-width="0.676034"/>
<path d="M945.054 599.982H1007.25C1011.92 599.982 1015.7 603.765 1015.7 608.432C1015.7 613.099 1011.92 616.882 1007.25 616.882H945.054C940.387 616.882 936.604 613.099 936.604 608.432C936.604 603.765 940.387 599.982 945.054 599.982Z" stroke="white" stroke-width="0.676034"/>
<path d="M864.607 599.982H911.253C915.92 599.982 919.704 603.765 919.704 608.432C919.704 613.099 915.92 616.882 911.253 616.882H864.607C859.94 616.882 856.156 613.099 856.156 608.432C856.156 603.765 859.94 599.982 864.607 599.982Z" stroke="white" stroke-width="0.676034"/>
<rect x="1065.34" y="167.338" width="324.324" height="75.324" rx="3.04215" stroke="white" stroke-width="0.676034"/>
<rect x="1065.34" y="258.338" width="324.324" height="75.324" rx="3.04215" stroke="white" stroke-width="0.676034"/>
<rect x="1226.28" y="265.275" width="155.449" height="61.4494" rx="2.47749" stroke="white" stroke-width="0.550553"/>
<path d="M1084.48 48.5185C1093.13 48.5185 1097.01 53.5373 1097.01 60.2291C1097.01 66.2995 1093.56 70.1234 1086.44 71.7485C1079.75 73.3259 1076.69 72.4177 1076.69 84.1283H1097.53V88H1072.77C1072.77 86.0403 1072.72 86.3271 1072.72 84.1283C1072.72 71.4617 1076.26 70.0278 1085.01 68.068C1092.08 66.4907 1093.04 63.3838 1093.04 59.4643C1093.04 55.8316 1090.36 52.4379 1085.39 52.4379C1080.85 52.4379 1076.02 54.1109 1075.54 59.1775H1071.67C1072.01 53.2505 1076.6 48.5185 1084.48 48.5185ZM1114.92 48.5185C1124.48 48.5185 1129.54 56.0706 1129.54 68.6416C1129.54 81.4516 1124.48 88.7648 1114.92 88.7648C1105.45 88.7648 1100.29 81.4516 1100.29 68.6416C1100.29 56.2618 1105.41 48.5185 1114.92 48.5185ZM1114.92 84.8453C1121.04 84.8453 1125.62 80.7824 1125.62 68.6416C1125.62 56.692 1121.04 52.4379 1114.92 52.4379C1108.94 52.4379 1104.21 56.7876 1104.21 68.6416C1104.21 80.8302 1108.94 84.8453 1114.92 84.8453ZM1144.74 48.5185C1153.4 48.5185 1157.27 53.5373 1157.27 60.2291C1157.27 66.2995 1153.83 70.1234 1146.7 71.7485C1140.01 73.3259 1136.95 72.4177 1136.95 84.1283H1157.79V88H1133.03C1133.03 86.0403 1132.99 86.3271 1132.99 84.1283C1132.99 71.4617 1136.52 70.0278 1145.27 68.068C1152.34 66.4907 1153.3 63.3838 1153.3 59.4643C1153.3 55.8316 1150.62 52.4379 1145.65 52.4379C1141.11 52.4379 1136.28 54.1109 1135.81 59.1775H1131.93C1132.27 53.2505 1136.86 48.5185 1144.74 48.5185ZM1188.02 76.8152H1182.53V88H1178.61V76.8152H1159.87V72.1309L1177.12 49.331H1182.53V72.8957H1188.02V76.8152ZM1178.61 72.8957V52.3901L1163.02 72.8957H1178.61ZM1205.24 48.5185C1214.8 48.5185 1219.87 56.0706 1219.87 68.6416C1219.87 81.4516 1214.8 88.7648 1205.24 88.7648C1195.78 88.7648 1190.61 81.4516 1190.61 68.6416C1190.61 56.2618 1195.73 48.5185 1205.24 48.5185ZM1205.24 84.8453C1211.36 84.8453 1215.95 80.7824 1215.95 68.6416C1215.95 56.692 1211.36 52.4379 1205.24 52.4379C1199.26 52.4379 1194.53 56.7876 1194.53 68.6416C1194.53 80.8302 1199.26 84.8453 1205.24 84.8453ZM1239.36 66.3951C1239.36 66.3951 1247.24 67.2077 1247.24 76.624C1247.24 84.7497 1242.46 88.7648 1234.53 88.7648C1227.31 88.7648 1222.58 84.7019 1222.2 77.9145H1226.02C1227.31 83.1724 1229.65 84.9409 1235.58 84.9409C1240.79 84.9409 1243.32 81.1648 1243.32 76.0026C1243.32 72.7045 1240.79 68.8806 1234.67 68.2114V64.7699C1238.97 64.1486 1240.98 61.9976 1240.98 59.1775C1240.98 54.3977 1238.4 52.4379 1234.19 52.4379C1230.66 52.4379 1228.84 54.1109 1227.98 57.3134H1224.11C1224.49 52.2467 1228.08 48.5185 1234.19 48.5185C1241.6 48.5185 1244.95 53.3939 1244.95 58.2216C1244.95 65.7737 1239.36 66.3951 1239.36 66.3951ZM1262.93 48.5185C1271.59 48.5185 1275.46 53.5373 1275.46 60.2291C1275.46 66.2995 1272.02 70.1234 1264.89 71.7485C1258.2 73.3259 1255.14 72.4177 1255.14 84.1283H1275.98V88H1251.22C1251.22 86.0403 1251.18 86.3271 1251.18 84.1283C1251.18 71.4617 1254.71 70.0278 1263.46 68.068C1270.53 66.4907 1271.49 63.3838 1271.49 59.4643C1271.49 55.8316 1268.81 52.4379 1263.84 52.4379C1259.3 52.4379 1254.47 54.1109 1254 59.1775H1250.12C1250.46 53.2505 1255.05 48.5185 1262.93 48.5185ZM1306.21 76.8152H1300.71V88H1296.8V76.8152H1278.06V72.1309L1295.31 49.331H1300.71V72.8957H1306.21V76.8152ZM1296.8 72.8957V52.3901L1281.21 72.8957H1296.8ZM1333.94 88H1309.52V84.2717H1333.94V88ZM1353.07 48.5185C1362.63 48.5185 1367.7 56.0706 1367.7 68.6416C1367.7 81.4516 1362.63 88.7648 1353.07 88.7648C1343.61 88.7648 1338.44 81.4516 1338.44 68.6416C1338.44 56.2618 1343.56 48.5185 1353.07 48.5185ZM1353.07 84.8453C1359.19 84.8453 1363.78 80.7824 1363.78 68.6416C1363.78 56.692 1359.19 52.4379 1353.07 52.4379C1347.09 52.4379 1342.36 56.7876 1342.36 68.6416C1342.36 80.8302 1347.09 84.8453 1353.07 84.8453ZM1375.94 88H1370.82V82.7422H1375.94V88ZM1383.5 88H1378.38V82.7422H1383.5V88ZM1391.06 88H1385.95V82.7422H1391.06V88Z" fill="white"/>
<path d="M197.73 630.007H215.214V656.967H209.341V635.379H202.735V641.485C202.735 645.956 202.735 654.764 197.096 656.733C195.861 657.167 194.226 657.033 192.124 656.9V651.561C193.659 651.695 194.793 651.595 195.561 651.161C197.696 649.993 197.73 642.819 197.73 640.217V630.007ZM236.446 657L234.343 651.428H224.4L222.298 657H216.626L226.536 630.007H232.809L242.118 657H236.446ZM226.269 646.456H232.475L229.372 638.248L226.269 646.456ZM254.629 640.884C262.704 640.884 265.373 644.554 265.373 649.092C265.373 656.099 258.967 657 253.295 657H243.452V630.007H263.138V635.412H249.424V640.884H254.629ZM259.734 648.992V648.258C259.734 646.49 257.999 645.055 255.33 645.055H249.524V652.195H255.33C257.999 652.195 259.734 650.761 259.734 648.992ZM279.313 629.439C286.687 629.439 292.192 634.645 292.192 643.487C292.192 652.729 286.353 657.5 279.313 657.5C272.273 657.5 266.467 652.696 266.467 643.487C266.467 634.478 272.273 629.439 279.313 629.439ZM279.313 651.928C283.35 651.928 286.353 649.292 286.353 643.487C286.353 637.714 283.317 635.045 279.313 635.045C275.342 635.045 272.273 637.714 272.273 643.487C272.273 649.292 275.309 651.928 279.313 651.928ZM306.827 630.007C312.666 630.007 315.703 634.478 315.703 638.715C315.703 644.287 311.498 647.324 307.061 647.324H300.321V657H294.348V630.007H298.319H306.827ZM306.694 642.085C308.863 642.085 310.464 640.784 310.464 638.715C310.464 636.647 308.762 635.245 306.694 635.245H300.321V642.085H306.694ZM333.058 657L330.956 651.428H321.013L318.91 657H313.238L323.148 630.007H329.421L338.73 657H333.058ZM322.881 646.456H329.087L325.984 638.248L322.881 646.456ZM336.032 630.007H360.823V635.412H351.414V657H345.441V635.412H336.032V630.007ZM374.687 629.439C382.061 629.439 387.566 634.645 387.566 643.487C387.566 652.729 381.727 657.5 374.687 657.5C367.647 657.5 361.841 652.696 361.841 643.487C361.841 634.478 367.647 629.439 374.687 629.439ZM374.687 651.928C378.724 651.928 381.727 649.292 381.727 643.487C381.727 637.714 378.691 635.045 374.687 635.045C370.716 635.045 367.647 637.714 367.647 643.487C367.647 649.292 370.683 651.928 374.687 651.928ZM402.201 630.007C408.04 630.007 411.077 634.478 411.077 638.715C411.077 644.287 406.872 647.324 402.435 647.324H395.695V657H389.722V630.007H393.693H402.201ZM402.068 642.085C404.237 642.085 405.838 640.784 405.838 638.715C405.838 636.647 404.136 635.245 402.068 635.245H395.695V642.085H402.068ZM412.89 630.007H418.562V647.657L431.641 630.007H437.314V657H431.641V639.216L418.562 657H412.89V630.007ZM439.022 657L445.361 646.69C442.192 645.489 440.156 642.185 440.156 638.715C440.156 634.244 443.76 630.007 449.632 630.007H462.145V657H456.139V647.29C456.139 647.29 455.471 647.29 451.201 647.29L445.862 657H439.022ZM449.165 642.052H456.139V635.245H449.165C447.096 635.245 445.395 636.613 445.395 638.715C445.395 640.784 447.096 642.052 449.165 642.052ZM193.826 663.007H216.615V690H210.609V668.412H199.798V690H193.826V663.007ZM219.73 663.007H239.016V668.412H225.569V673.217L236.78 673.284V678.655L225.569 678.622V684.628H239.016V690H219.73V663.007ZM253.552 663.007C259.391 663.007 262.427 667.478 262.427 671.715C262.427 677.287 258.223 680.324 253.786 680.324H247.046V690H241.073V663.007H245.044H253.552ZM253.418 675.085C255.587 675.085 257.189 673.784 257.189 671.715C257.189 669.647 255.487 668.245 253.418 668.245H247.046V675.085H253.418ZM264.24 663.007H283.526V668.412H270.079V673.217L281.291 673.284V678.655L270.079 678.622V684.628H283.526V690H264.24V663.007ZM307.204 663.007H313.477V690H307.805V674.551L301.766 690H297.295L291.255 674.518V690H285.583V663.007H291.823L299.53 684.261L307.204 663.007ZM328.482 662.439C335.856 662.439 341.362 667.645 341.362 676.487C341.362 685.729 335.523 690.5 328.482 690.5C321.442 690.5 315.636 685.696 315.636 676.487C315.636 667.478 321.442 662.439 328.482 662.439ZM328.482 684.928C332.52 684.928 335.523 682.292 335.523 676.487C335.523 670.714 332.486 668.045 328.482 668.045C324.512 668.045 321.442 670.714 321.442 676.487C321.442 682.292 324.478 684.928 328.482 684.928ZM342.255 663.007H367.046V668.412H357.637V690H351.665V668.412H342.255V663.007ZM386.278 690L377.803 678.188L374.866 681.392V690H369.194V663.007H374.866V674.218L385.143 663.007H391.75L381.606 674.018L392.951 690H386.278ZM394.121 663.007H399.793V680.657L412.873 663.007H418.545V690H412.873V672.216L399.793 690H394.121V663.007Z" fill="white"/>
<path d="M1145.08 128.34H1141.85V134.919H1139.54V128.34H1128.52V125.584L1138.67 112.172H1141.85V126.034H1145.08V128.34ZM1139.54 126.034V113.972L1130.37 126.034H1139.54ZM1149.3 124.769L1160.83 112.172H1163.95L1155.46 121.451L1164.99 134.919H1162.21L1153.89 123.166L1149.3 128.171V134.919H1147.02V112.172H1149.3V124.769ZM1187.07 123.588H1176.19V121.367H1187.07V123.588ZM1206.8 111.695C1211.89 111.695 1214.17 114.647 1214.17 118.583C1214.17 122.154 1212.14 124.403 1207.95 125.359C1204.02 126.287 1202.22 125.753 1202.22 132.641H1214.48V134.919H1199.91C1199.91 133.766 1199.88 133.935 1199.88 132.641C1199.88 125.191 1201.96 124.347 1207.11 123.194C1211.27 122.266 1211.83 120.439 1211.83 118.133C1211.83 115.996 1210.26 114 1207.33 114C1204.66 114 1201.82 114.984 1201.54 117.965H1199.26C1199.46 114.478 1202.16 111.695 1206.8 111.695ZM1225.74 122.21C1225.74 122.21 1230.38 122.688 1230.38 128.227C1230.38 133.007 1227.57 135.369 1222.9 135.369C1218.66 135.369 1215.87 132.979 1215.65 128.986H1217.9C1218.66 132.079 1220.04 133.119 1223.52 133.119C1226.59 133.119 1228.08 130.898 1228.08 127.862C1228.08 125.922 1226.59 123.672 1222.99 123.279V121.254C1225.52 120.889 1226.7 119.623 1226.7 117.965C1226.7 115.153 1225.18 114 1222.71 114C1220.63 114 1219.56 114.984 1219.05 116.868H1216.77C1217 113.888 1219.11 111.695 1222.71 111.695C1227.06 111.695 1229.03 114.562 1229.03 117.402C1229.03 121.845 1225.74 122.21 1225.74 122.21ZM1235.16 134.919H1232.15V131.826H1235.16V134.919ZM1243.85 135.369C1239.89 135.369 1238.23 133.288 1237.81 130.476H1240.09C1240.62 132.417 1242.22 133.204 1243.88 133.091C1246.64 132.895 1248.16 131.236 1248.75 127.384C1249.2 124.516 1249.11 122.885 1249.11 122.885C1249.11 122.885 1248.16 126.09 1243.21 126.09C1238.4 126.09 1236.94 121.704 1236.94 119.342C1236.94 114.084 1240.37 111.779 1243.15 111.695C1247.28 111.61 1251.31 113.325 1251.31 122.576C1251.31 126.596 1250.71 129.745 1249.59 131.91C1248.35 134.244 1246.5 135.369 1243.85 135.369ZM1243.46 123.841C1246.64 123.841 1248.58 121.985 1248.63 119.736C1248.75 115.659 1247.12 113.888 1243.32 114.084C1240.4 114.197 1238.93 116.756 1239.1 119.595C1239.24 121.817 1240.79 123.841 1243.46 123.841ZM1265.7 121.873C1268.03 123.026 1269.41 125.247 1269.41 128.171C1269.41 133.485 1265.27 135.369 1261.45 135.369C1256.61 135.369 1253.49 132.557 1253.49 128.171C1253.49 125.95 1254.28 124.094 1255.83 122.801C1256.25 122.435 1256.73 122.126 1257.26 121.873C1255.91 120.861 1255.1 119.314 1255.1 117.402C1255.1 115.659 1255.74 114.197 1256.98 113.185C1258.1 112.229 1259.68 111.695 1261.45 111.695C1265.27 111.695 1267.78 113.944 1267.78 117.402C1267.78 119.286 1267.07 120.832 1265.75 121.817C1265.72 121.845 1265.7 121.845 1265.7 121.873ZM1261.45 113.944C1259.71 113.944 1257.4 114.872 1257.4 117.402C1257.4 120.523 1260.35 120.861 1261.45 120.861C1263.76 120.861 1265.47 119.652 1265.47 117.402C1265.47 114.281 1262.52 113.944 1261.45 113.944ZM1261.45 133.119C1264.8 133.119 1267.1 131.348 1267.1 128.171C1267.1 126.99 1266.26 123.222 1261.45 123.222C1258.92 123.222 1255.8 124.516 1255.8 128.171C1255.8 132.754 1260.21 133.119 1261.45 133.119ZM1295.27 123.813H1284.78V134.919H1282.5V112.172H1297.49V114.394H1284.78V121.62H1295.27V123.813ZM1308.28 112.172C1313.12 112.172 1315.73 115.631 1315.73 118.892C1315.73 122.154 1313.17 125.5 1308.31 125.5H1301.39V134.947H1299.06V112.172H1308.28ZM1308.73 123.166C1310.95 123.166 1313.45 121.76 1313.45 118.892C1313.45 115.996 1310.92 114.478 1308.73 114.478H1301.39V123.166H1308.73ZM1319.62 117.796C1319.62 124.544 1333.22 119.483 1333.22 128.677C1333.22 131.629 1331.12 135.397 1324.99 135.397C1319.53 135.397 1316.75 131.489 1316.75 128.171H1319.05C1319.05 130.561 1321.33 133.091 1325.21 133.091C1329.4 133.091 1330.95 130.786 1330.95 128.396C1330.95 121.985 1317.31 127.018 1317.31 117.711C1317.31 114.366 1320.04 111.723 1324.87 111.723C1329.4 111.723 1332.21 114.506 1332.21 118.414H1329.91C1329.91 115.912 1328.02 114.028 1324.87 114.028C1321.78 114.028 1319.62 115.322 1319.62 117.796Z" fill="white"/>
<path d="M1158.28 202.537H1147.8V213.643H1145.52V190.897H1160.5V193.118H1147.8V200.344H1158.28V202.537ZM1177.4 205.236V190.869H1179.73V204.814C1179.73 208.02 1178.64 214.093 1170.76 214.093C1162.92 214.093 1161.82 208.02 1161.82 204.814V190.869H1164.13V205.236C1164.13 209.285 1166.35 211.787 1170.76 211.787C1175.21 211.787 1177.4 209.257 1177.4 205.236ZM1184.81 190.897V211.45H1197.66V213.643H1182.53V190.897H1184.81ZM1201.39 190.897V211.45H1214.24V213.643H1199.12V190.897H1201.39ZM1236.45 213.643L1228.58 193.54V213.643H1226.27V190.897H1229.95L1237.52 210.382L1245.03 190.897H1248.74V213.643H1246.4L1246.43 193.54L1238.56 213.643H1236.45ZM1254.08 193.118V200.344H1265.02V202.565L1254.08 202.509V211.45H1267.07V213.643H1251.81V190.897H1267.07V193.118H1254.08ZM1286.29 213.643L1272.45 193.54V213.643H1270.15V190.897H1273.19L1286.99 211V190.897H1289.3V213.643H1286.29ZM1307.69 205.236V190.869H1310.02V204.814C1310.02 208.02 1308.92 214.093 1301.05 214.093C1293.21 214.093 1292.11 208.02 1292.11 204.814V190.869H1294.41V205.236C1294.41 209.285 1296.64 211.787 1301.05 211.787C1305.49 211.787 1307.69 209.257 1307.69 205.236Z" fill="white"/>
<path d="M1106.76 294.479C1110.13 294.985 1111.03 297.712 1111.03 300.243C1111.03 303.842 1108.75 306.232 1103.5 306.232H1094.58V283.485H1103.19C1107.15 283.485 1109.65 286.578 1109.65 289.896C1109.65 291.358 1108.95 293.72 1106.76 294.479ZM1102.51 285.735H1096.86V293.495C1098.69 293.495 1101.11 293.495 1102.48 293.495C1105.63 293.495 1107.32 292.539 1107.32 289.643C1107.32 287.365 1105.75 285.735 1102.51 285.735ZM1103.92 304.01C1106.79 304.01 1108.75 302.914 1108.75 300.074C1108.75 297.769 1106.95 295.716 1103.86 295.716H1096.86V304.01H1103.92ZM1115.75 283.485V304.039H1128.6V306.232H1113.47V283.485H1115.75ZM1138.83 283.035C1145.33 283.035 1149.54 287.562 1149.54 294.873C1149.54 303.589 1144 306.71 1138.83 306.71C1132.31 306.71 1128.12 302.07 1128.12 294.873C1128.12 291.189 1129.21 288.153 1131.27 286.016C1133.18 284.076 1135.85 283.035 1138.83 283.035ZM1138.83 304.404C1144.09 304.404 1147.21 300.974 1147.21 294.873C1147.21 287.787 1142.94 285.341 1138.83 285.341C1134.7 285.341 1130.42 288.04 1130.42 294.873C1130.42 301.902 1134.7 304.404 1138.83 304.404ZM1169.85 297.937H1172.22C1171.06 304.348 1166.28 306.71 1161.78 306.71C1155.26 306.71 1151.07 302.042 1151.07 294.844C1151.07 291.189 1152.17 288.125 1154.22 286.016C1156.13 284.076 1158.8 283.007 1161.78 283.007C1167.13 283.007 1170.89 286.072 1172.08 291.217H1169.71C1168.5 286.915 1165.07 285.313 1161.76 285.313C1157.65 285.313 1153.38 288.04 1153.38 294.844C1153.38 301.902 1157.65 304.404 1161.76 304.404C1166.06 304.404 1168.95 302.099 1169.85 297.937ZM1176.6 296.082L1188.13 283.485H1191.25L1182.76 292.764L1192.29 306.232H1189.5L1181.18 294.479L1176.6 299.484V306.232H1174.32V283.485H1176.6V296.082Z" fill="white"/>
<path d="M1110.88 417.367H1100.84L1098.51 423.89H1096.09L1104.61 401.143H1107.17L1115.69 423.89H1113.22L1110.88 417.367ZM1105.88 403.28L1101.66 415.145H1110.09L1105.88 403.28ZM1143.03 401.143H1145.5L1138.61 423.89H1135.52L1129.42 403.786L1123.32 423.89H1120.25L1113.36 401.143H1115.81L1121.8 421.247L1127.76 401.143H1129.42H1131.08L1137.07 421.247L1143.03 401.143ZM1159.29 412.137C1162.67 412.643 1163.56 415.37 1163.56 417.901C1163.56 421.5 1161.29 423.89 1156.03 423.89H1147.12V401.143H1155.72C1159.68 401.143 1162.19 404.236 1162.19 407.554C1162.19 409.016 1161.48 411.378 1159.29 412.137ZM1155.05 403.393H1149.39V411.153C1151.22 411.153 1153.64 411.153 1155.02 411.153C1158.17 411.153 1159.85 410.197 1159.85 407.301C1159.85 405.023 1158.28 403.393 1155.05 403.393ZM1156.45 421.668C1159.32 421.668 1161.29 420.572 1161.29 417.732C1161.29 415.427 1159.49 413.374 1156.4 413.374H1149.39V421.668H1156.45Z" fill="white"/>
<path d="M1312.87 412.369C1312.87 418.639 1308.04 423.728 1302.1 423.728H1293.81V400.982H1302.1C1308.04 400.982 1312.87 406.099 1312.87 412.369ZM1296.09 403.175V421.535H1301.79C1305.95 421.535 1310.06 418.105 1310.51 413.297V413.213V413.184C1310.51 413.156 1310.51 413.156 1310.51 413.128V413.1L1310.54 413.044C1310.54 412.847 1310.54 412.622 1310.54 412.369C1310.54 412.313 1310.54 412.229 1310.54 412.172V412.116V412.088V412.06C1310.4 406.999 1306.21 403.175 1301.79 403.175H1296.09ZM1317.34 423.728H1315.03V400.982H1317.34V423.728ZM1322.41 406.605C1322.41 413.353 1336.02 408.292 1336.02 417.486C1336.02 420.439 1333.91 424.206 1327.78 424.206C1322.33 424.206 1319.54 420.298 1319.54 416.98H1321.85C1321.85 419.37 1324.13 421.901 1328.01 421.901C1332.2 421.901 1333.74 419.595 1333.74 417.205C1333.74 410.795 1320.11 415.827 1320.11 406.521C1320.11 403.175 1322.83 400.532 1327.67 400.532C1332.2 400.532 1335.01 403.316 1335.01 407.224H1332.7C1332.7 404.721 1330.82 402.838 1327.67 402.838C1324.58 402.838 1322.41 404.131 1322.41 406.605ZM1347.46 400.982C1352.29 400.982 1354.91 404.44 1354.91 407.702C1354.91 410.963 1352.35 414.309 1347.49 414.309H1340.57V423.756H1338.23V400.982H1347.46ZM1347.91 411.975C1350.13 411.975 1352.63 410.57 1352.63 407.702C1352.63 404.806 1350.1 403.287 1347.91 403.287H1340.57V411.975H1347.91Z" fill="white"/>
<circle cx="1130.61" cy="415.832" r="59.2226" stroke="white" stroke-width="0.676034"/>
<circle cx="1324.13" cy="415.671" r="59.2226" stroke="white" stroke-width="0.676034"/>
<circle cx="1324.37" cy="415.371" r="65.0334" stroke="white" stroke-width="0.676034"/>
<circle cx="1130.34" cy="415.533" r="65.0334" stroke="white" stroke-width="0.676034"/>
<circle cx="637.121" cy="608.432" r="10.1405" fill="white"/>
<path d="M288.288 603.024V608.432M288.288 613.84V608.432M288.288 608.432H343.047M397.848 608.432V603.024M397.848 608.432V613.84M397.848 608.432H343.047M397.848 608.432H452.226M616.84 608.432V603.024M616.84 608.432H562.082M616.84 608.432V613.84M616.84 608.432H637.121M343.047 608.432V603.024V613.84M452.226 608.432V603.024V613.84M452.226 608.432H506.985M506.985 608.432V603.024V613.84M506.985 608.432H562.082M562.082 608.432V603.024V613.84" stroke="white" stroke-width="1.35207"/>
<path opacity="0.5" d="M839.255 613.84V603.024V608.432H781.116M637.121 613.84V603.024V608.432H671.599M671.599 608.432V603.024V613.84M671.599 608.432H726.358M726.358 608.432V603.024V613.84M726.358 608.432H781.116M781.116 608.432V603.024V613.84" stroke="white" stroke-width="1.35207"/>
<path d="M227.107 126.082H980.884V554.011H227.107V126.082Z" stroke="white" stroke-width="0.676034"/>
<path d="M829.351 536.096H962.969V441.212M829.351 143.321H962.969V247.031M366.674 536.096H245.021V441.212M366.674 143.321H245.021V247.031" stroke="white" stroke-width="0.676034"/>
<path d="M604.334 274.471V308.408M604.334 406.298V372.338M670.247 340.384H636.694M538.421 340.384H571.975" stroke="white" stroke-width="0.676034"/>
<circle cx="604.333" cy="340.384" r="8.45042" fill="white"/>
<path d="M510.825 107.634H505.592V106.566H510.825V107.634ZM521.379 106.971C521.379 106.971 523.61 107.201 523.61 109.865C523.61 112.163 522.258 113.299 520.014 113.299C517.972 113.299 516.634 112.15 516.525 110.23H517.607C517.972 111.717 518.635 112.217 520.311 112.217C521.785 112.217 522.502 111.149 522.502 109.689C522.502 108.756 521.785 107.674 520.054 107.485V106.512C521.271 106.336 521.839 105.728 521.839 104.93C521.839 103.578 521.109 103.023 519.919 103.023C518.919 103.023 518.405 103.497 518.161 104.402H517.066C517.174 102.969 518.188 101.915 519.919 101.915C522.015 101.915 522.961 103.294 522.961 104.659C522.961 106.796 521.379 106.971 521.379 106.971ZM534.737 107.634H529.504V106.566H534.737V107.634ZM544.223 101.915C546.671 101.915 547.766 103.334 547.766 105.227C547.766 106.944 546.792 108.026 544.778 108.486C542.885 108.932 542.019 108.675 542.019 111.988H547.914V113.083H540.911C540.911 112.528 540.897 112.61 540.897 111.988C540.897 108.405 541.898 107.999 544.372 107.445C546.373 106.998 546.643 106.12 546.643 105.011C546.643 103.983 545.886 103.023 544.48 103.023C543.196 103.023 541.83 103.497 541.695 104.93H540.6C540.694 103.253 541.992 101.915 544.223 101.915ZM559.019 107.634H553.786V106.566H559.019V107.634ZM571.398 113.083H564.733V111.974L567.802 111.988V103.415L564.909 105.295L564.922 104.024L567.829 102.145H568.951V111.974H571.398V113.083ZM582.759 107.634H577.527V106.566H582.759V107.634ZM592.813 101.915C595.517 101.915 596.951 104.051 596.951 107.607C596.951 111.23 595.517 113.299 592.813 113.299C590.136 113.299 588.676 111.23 588.676 107.607C588.676 104.105 590.123 101.915 592.813 101.915ZM592.813 112.19C594.544 112.19 595.842 111.041 595.842 107.607C595.842 104.227 594.544 103.023 592.813 103.023C591.123 103.023 589.785 104.254 589.785 107.607C589.785 111.055 591.123 112.19 592.813 112.19ZM608.11 107.634H602.878V106.566H608.11V107.634ZM620.49 113.083H613.824V111.974L616.894 111.988V103.415L614 105.295L614.014 104.024L616.921 102.145H618.043V111.974H620.49V113.083ZM631.851 107.634H626.618V106.566H631.851V107.634ZM641.337 101.915C643.784 101.915 644.88 103.334 644.88 105.227C644.88 106.944 643.906 108.026 641.891 108.486C639.999 108.932 639.133 108.675 639.133 111.988H645.028V113.083H638.025C638.025 112.528 638.011 112.61 638.011 111.988C638.011 108.405 639.012 107.999 641.486 107.445C643.487 106.998 643.757 106.12 643.757 105.011C643.757 103.983 643 103.023 641.594 103.023C640.31 103.023 638.944 103.497 638.809 104.93H637.714C637.808 103.253 639.106 101.915 641.337 101.915ZM656.133 107.634H650.9V106.566H656.133V107.634ZM666.687 106.971C666.687 106.971 668.918 107.201 668.918 109.865C668.918 112.163 667.566 113.299 665.321 113.299C663.28 113.299 661.941 112.15 661.833 110.23H662.915C663.28 111.717 663.942 112.217 665.619 112.217C667.093 112.217 667.809 111.149 667.809 109.689C667.809 108.756 667.093 107.674 665.362 107.485V106.512C666.579 106.336 667.147 105.728 667.147 104.93C667.147 103.578 666.417 103.023 665.227 103.023C664.226 103.023 663.712 103.497 663.469 104.402H662.374C662.482 102.969 663.496 101.915 665.227 101.915C667.322 101.915 668.269 103.294 668.269 104.659C668.269 106.796 666.687 106.971 666.687 106.971Z" fill="white"/>
<path d="M230.825 575.706C229.135 575.828 227.336 574.773 227.336 573.043H228.499C228.499 573.637 229.135 574.638 230.69 574.584C232.244 574.543 233.029 573.475 233.029 571.812C233.029 570.474 232.231 569.541 230.771 569.527C229.324 569.514 228.81 570.122 228.688 570.717H227.634V564.538H233.705V565.647H228.675V569.324C228.675 569.324 229.135 568.5 230.879 568.5C232.839 568.5 234.07 569.919 234.07 571.812C234.07 574.679 232.434 575.584 230.825 575.706ZM239.276 564.322C241.98 564.322 243.414 566.458 243.414 570.014C243.414 573.637 241.98 575.706 239.276 575.706C236.599 575.706 235.139 573.637 235.139 570.014C235.139 566.512 236.586 564.322 239.276 564.322ZM239.276 574.597C241.007 574.597 242.305 573.448 242.305 570.014C242.305 566.634 241.007 565.43 239.276 565.43C237.586 565.43 236.248 566.661 236.248 570.014C236.248 573.462 237.586 574.597 239.276 574.597ZM248.625 564.322C251.329 564.322 252.762 566.458 252.762 570.014C252.762 573.637 251.329 575.706 248.625 575.706C245.947 575.706 244.487 573.637 244.487 570.014C244.487 566.512 245.934 564.322 248.625 564.322ZM248.625 574.597C250.355 574.597 251.653 573.448 251.653 570.014C251.653 566.634 250.355 565.43 248.625 565.43C246.934 565.43 245.596 566.661 245.596 570.014C245.596 573.462 246.934 574.597 248.625 574.597ZM264.016 575.49L260.23 565.822V575.49H259.122V564.552H260.893L264.53 573.921L268.14 564.552H269.925V575.49H268.803L268.816 565.822L265.03 575.49H264.016ZM282.623 570.149H277.58V575.49H276.485V564.552H283.691V565.62H277.58V569.094H282.623V570.149ZM288.968 564.552H290.185L284.884 575.49H283.668L288.968 564.552ZM297.903 575.49H291.237V574.381L294.306 574.395V565.822L291.413 567.702L291.426 566.431L294.333 564.552H295.455V574.381H297.903V575.49ZM300.435 575.49H298.988V574.002H300.435V575.49ZM307.13 569.216C308.252 569.771 308.915 570.839 308.915 572.245C308.915 574.8 306.927 575.706 305.089 575.706C302.763 575.706 301.262 574.354 301.262 572.245C301.262 571.177 301.641 570.284 302.384 569.662C302.587 569.487 302.817 569.338 303.074 569.216C302.425 568.729 302.033 567.986 302.033 567.066C302.033 566.228 302.344 565.525 302.939 565.038C303.48 564.579 304.237 564.322 305.089 564.322C306.927 564.322 308.131 565.403 308.131 567.066C308.131 567.972 307.793 568.716 307.157 569.189C307.144 569.203 307.13 569.203 307.13 569.216ZM305.089 565.403C304.25 565.403 303.142 565.85 303.142 567.066C303.142 568.567 304.561 568.729 305.089 568.729C306.197 568.729 307.022 568.148 307.022 567.066C307.022 565.566 305.602 565.403 305.089 565.403ZM305.089 574.624C306.697 574.624 307.806 573.773 307.806 572.245C307.806 571.677 307.401 569.865 305.089 569.865C303.872 569.865 302.371 570.487 302.371 572.245C302.371 574.449 304.494 574.624 305.089 574.624Z" fill="white"/>
<path d="M465.895 575.49H464.787V564.552H465.895V575.49ZM468.335 567.256C468.335 570.501 474.879 568.067 474.879 572.488C474.879 573.908 473.865 575.72 470.917 575.72C468.294 575.72 466.956 573.84 466.956 572.245H468.064C468.064 573.394 469.159 574.611 471.025 574.611C473.04 574.611 473.783 573.502 473.783 572.353C473.783 569.27 467.226 571.69 467.226 567.215C467.226 565.606 468.537 564.335 470.863 564.335C473.04 564.335 474.392 565.674 474.392 567.553H473.283C473.283 566.35 472.377 565.444 470.863 565.444C469.376 565.444 468.335 566.066 468.335 567.256ZM480.717 564.335C483.84 564.335 485.868 566.512 485.868 570.027C485.868 574.219 483.205 575.72 480.717 575.72C477.58 575.72 475.565 573.489 475.565 570.027C475.565 568.256 476.093 566.796 477.08 565.768C477.999 564.835 479.284 564.335 480.717 564.335ZM480.717 574.611C483.245 574.611 484.746 572.961 484.746 570.027C484.746 566.62 482.691 565.444 480.717 565.444C478.729 565.444 476.674 566.742 476.674 570.027C476.674 573.408 478.729 574.611 480.717 574.611ZM497.677 569.216C498.799 569.771 499.462 570.839 499.462 572.245C499.462 574.8 497.474 575.706 495.635 575.706C493.31 575.706 491.809 574.354 491.809 572.245C491.809 571.177 492.187 570.284 492.931 569.662C493.134 569.487 493.364 569.338 493.621 569.216C492.972 568.729 492.58 567.986 492.58 567.066C492.58 566.228 492.891 565.525 493.485 565.038C494.026 564.579 494.783 564.322 495.635 564.322C497.474 564.322 498.677 565.403 498.677 567.066C498.677 567.972 498.339 568.716 497.704 569.189C497.69 569.203 497.677 569.203 497.677 569.216ZM495.635 565.403C494.797 565.403 493.688 565.85 493.688 567.066C493.688 568.567 495.108 568.729 495.635 568.729C496.744 568.729 497.569 568.148 497.569 567.066C497.569 565.566 496.149 565.403 495.635 565.403ZM495.635 574.624C497.244 574.624 498.353 573.773 498.353 572.245C498.353 571.677 497.947 569.865 495.635 569.865C494.418 569.865 492.918 570.487 492.918 572.245C492.918 574.449 495.04 574.624 495.635 574.624ZM504.504 564.322C507.208 564.322 508.641 566.458 508.641 570.014C508.641 573.637 507.208 575.706 504.504 575.706C501.826 575.706 500.366 573.637 500.366 570.014C500.366 566.512 501.813 564.322 504.504 564.322ZM504.504 574.597C506.234 574.597 507.532 573.448 507.532 570.014C507.532 566.634 506.234 565.43 504.504 565.43C502.813 565.43 501.475 566.661 501.475 570.014C501.475 573.462 502.813 574.597 504.504 574.597ZM513.852 564.322C516.556 564.322 517.989 566.458 517.989 570.014C517.989 573.637 516.556 575.706 513.852 575.706C511.175 575.706 509.714 573.637 509.714 570.014C509.714 566.512 511.161 564.322 513.852 564.322ZM513.852 574.597C515.582 574.597 516.88 573.448 516.88 570.014C516.88 566.634 515.582 565.43 513.852 565.43C512.162 565.43 510.823 566.661 510.823 570.014C510.823 573.462 512.162 574.597 513.852 574.597Z" fill="white"/>
<path d="M679.292 569.216C680.415 569.771 681.077 570.839 681.077 572.245C681.077 574.8 679.09 575.706 677.251 575.706C674.925 575.706 673.424 574.354 673.424 572.245C673.424 571.177 673.803 570.284 674.547 569.662C674.749 569.487 674.979 569.338 675.236 569.216C674.587 568.729 674.195 567.986 674.195 567.066C674.195 566.228 674.506 565.525 675.101 565.038C675.642 564.579 676.399 564.322 677.251 564.322C679.09 564.322 680.293 565.403 680.293 567.066C680.293 567.972 679.955 568.716 679.319 569.189C679.306 569.203 679.292 569.203 679.292 569.216ZM677.251 565.403C676.412 565.403 675.304 565.85 675.304 567.066C675.304 568.567 676.723 568.729 677.251 568.729C678.359 568.729 679.184 568.148 679.184 567.066C679.184 565.566 677.765 565.403 677.251 565.403ZM677.251 574.624C678.86 574.624 679.968 573.773 679.968 572.245C679.968 571.677 679.563 569.865 677.251 569.865C676.034 569.865 674.533 570.487 674.533 572.245C674.533 574.449 676.656 574.624 677.251 574.624ZM685.485 564.322C687.932 564.322 689.028 565.741 689.028 567.634C689.028 569.351 688.054 570.433 686.04 570.893C684.147 571.339 683.281 571.082 683.281 574.395H689.176V575.49H682.173C682.173 574.935 682.159 575.017 682.159 574.395C682.159 570.812 683.16 570.406 685.634 569.852C687.635 569.405 687.905 568.527 687.905 567.418C687.905 566.39 687.148 565.43 685.742 565.43C684.458 565.43 683.092 565.904 682.957 567.337H681.862C681.956 565.66 683.254 564.322 685.485 564.322ZM693.486 575.706C691.796 575.828 689.997 574.773 689.997 573.043H691.16C691.16 573.637 691.796 574.638 693.35 574.584C694.905 574.543 695.69 573.475 695.69 571.812C695.69 570.474 694.892 569.541 693.432 569.527C691.985 569.514 691.471 570.122 691.349 570.717H690.295V564.538H696.366V565.647H691.336V569.324C691.336 569.324 691.796 568.5 693.54 568.5C695.5 568.5 696.731 569.919 696.731 571.812C696.731 574.679 695.095 575.584 693.486 575.706ZM701.315 564.322C703.154 564.322 703.938 565.336 704.128 566.688H703.073C702.816 565.741 702.072 565.376 701.302 565.43C700.017 565.511 699.314 566.323 699.03 568.175C698.814 569.541 698.868 570.325 698.868 570.325C698.868 570.325 699.314 568.783 701.613 568.783C703.857 568.783 704.547 570.906 704.547 572.028C704.547 574.57 702.938 575.679 701.64 575.706C699.72 575.76 697.854 574.935 697.854 570.487C697.854 568.54 698.111 567.039 698.638 565.998C699.22 564.862 700.085 564.322 701.315 564.322ZM701.491 569.879C700.017 569.879 699.111 570.758 699.084 571.853C699.03 573.813 699.801 574.651 701.572 574.57C702.924 574.503 703.614 573.286 703.533 571.92C703.465 570.852 702.748 569.879 701.491 569.879ZM714.095 564.552L710.241 570.095L714 575.503H712.648L709.579 571.068L706.496 575.503H705.144L708.903 570.095L705.063 564.552H706.401L709.579 569.122L712.743 564.552H714.095ZM715.415 567.256C715.415 570.501 721.959 568.067 721.959 572.488C721.959 573.908 720.944 575.72 717.997 575.72C715.374 575.72 714.035 573.84 714.035 572.245H715.144C715.144 573.394 716.239 574.611 718.105 574.611C720.12 574.611 720.863 573.502 720.863 572.353C720.863 569.27 714.306 571.69 714.306 567.215C714.306 565.606 715.617 564.335 717.943 564.335C720.12 564.335 721.472 565.674 721.472 567.553H720.363C720.363 566.35 719.457 565.444 717.943 565.444C716.456 565.444 715.415 566.066 715.415 567.256ZM723.984 567.256C723.984 570.501 730.528 568.067 730.528 572.488C730.528 573.908 729.514 575.72 726.566 575.72C723.943 575.72 722.605 573.84 722.605 572.245H723.713C723.713 573.394 724.809 574.611 726.674 574.611C728.689 574.611 729.433 573.502 729.433 572.353C729.433 569.27 722.875 571.69 722.875 567.215C722.875 565.606 724.187 564.335 726.512 564.335C728.689 564.335 730.041 565.674 730.041 567.553H728.932C728.932 566.35 728.026 565.444 726.512 565.444C725.025 565.444 723.984 566.066 723.984 567.256ZM735.528 564.322C738.232 564.322 739.665 566.458 739.665 570.014C739.665 573.637 738.232 575.706 735.528 575.706C732.851 575.706 731.39 573.637 731.39 570.014C731.39 566.512 732.837 564.322 735.528 564.322ZM735.528 574.597C737.258 574.597 738.556 573.448 738.556 570.014C738.556 566.634 737.258 565.43 735.528 565.43C733.838 565.43 732.499 566.661 732.499 570.014C732.499 573.462 733.838 574.597 735.528 574.597ZM748.601 572.326H747.046V575.49H745.938V572.326H740.638V571.001L745.519 564.552H747.046V571.217H748.601V572.326ZM745.938 571.217V565.417L741.53 571.217H745.938Z" fill="white"/>
<path d="M910.469 575.49H903.803V574.381L906.872 574.395V565.822L903.979 567.702L903.992 566.431L906.899 564.552H908.021V574.381H910.469V575.49ZM915.234 564.322C917.938 564.322 919.371 566.458 919.371 570.014C919.371 573.637 917.938 575.706 915.234 575.706C912.556 575.706 911.096 573.637 911.096 570.014C911.096 566.512 912.543 564.322 915.234 564.322ZM915.234 574.597C916.964 574.597 918.262 573.448 918.262 570.014C918.262 566.634 916.964 565.43 915.234 565.43C913.543 565.43 912.205 566.661 912.205 570.014C912.205 573.462 913.543 574.597 915.234 574.597ZM924.582 564.322C927.286 564.322 928.719 566.458 928.719 570.014C928.719 573.637 927.286 575.706 924.582 575.706C921.905 575.706 920.445 573.637 920.445 570.014C920.445 566.512 921.891 564.322 924.582 564.322ZM924.582 574.597C926.313 574.597 927.61 573.448 927.61 570.014C927.61 566.634 926.313 565.43 924.582 565.43C922.892 565.43 921.553 566.661 921.553 570.014C921.553 573.462 922.892 574.597 924.582 574.597ZM935.296 564.552H936.513L931.212 575.49H929.996L935.296 564.552ZM944.231 575.49H937.565V574.381L940.634 574.395V565.822L937.741 567.702L937.754 566.431L940.661 564.552H941.784V574.381H944.231V575.49ZM948.996 564.322C951.7 564.322 953.133 566.458 953.133 570.014C953.133 573.637 951.7 575.706 948.996 575.706C946.319 575.706 944.858 573.637 944.858 570.014C944.858 566.512 946.305 564.322 948.996 564.322ZM948.996 574.597C950.726 574.597 952.024 573.448 952.024 570.014C952.024 566.634 950.726 565.43 948.996 565.43C947.306 565.43 945.967 566.661 945.967 570.014C945.967 573.462 947.306 574.597 948.996 574.597ZM958.344 564.322C961.048 564.322 962.481 566.458 962.481 570.014C962.481 573.637 961.048 575.706 958.344 575.706C955.667 575.706 954.207 573.637 954.207 570.014C954.207 566.512 955.653 564.322 958.344 564.322ZM958.344 574.597C960.075 574.597 961.373 573.448 961.373 570.014C961.373 566.634 960.075 565.43 958.344 565.43C956.654 565.43 955.315 566.661 955.315 570.014C955.315 573.462 956.654 574.597 958.344 574.597ZM967.692 564.322C970.396 564.322 971.83 566.458 971.83 570.014C971.83 573.637 970.396 575.706 967.692 575.706C965.015 575.706 963.555 573.637 963.555 570.014C963.555 566.512 965.002 564.322 967.692 564.322ZM967.692 574.597C969.423 574.597 970.721 573.448 970.721 570.014C970.721 566.634 969.423 565.43 967.692 565.43C966.002 565.43 964.664 566.661 964.664 570.014C964.664 573.462 966.002 574.597 967.692 574.597ZM977.04 564.322C979.745 564.322 981.178 566.458 981.178 570.014C981.178 573.637 979.745 575.706 977.04 575.706C974.363 575.706 972.903 573.637 972.903 570.014C972.903 566.512 974.35 564.322 977.04 564.322ZM977.04 574.597C978.771 574.597 980.069 573.448 980.069 570.014C980.069 566.634 978.771 565.43 977.04 565.43C975.35 565.43 974.012 566.661 974.012 570.014C974.012 573.462 975.35 574.597 977.04 574.597Z" fill="white"/>
<path d="M952.775 652.558V647.217H946.556V652.558H945.447V641.619H946.556V646.162H952.775V641.619H953.884V652.558H952.775ZM956.418 652.558H954.971V651.07H956.418V652.558ZM960.869 641.39C963.316 641.39 964.411 642.809 964.411 644.702C964.411 646.419 963.438 647.501 961.423 647.961C959.53 648.407 958.665 648.15 958.665 651.462H964.56V652.558H957.556C957.556 652.003 957.543 652.084 957.543 651.462C957.543 647.879 958.543 647.474 961.017 646.919C963.018 646.473 963.289 645.594 963.289 644.486C963.289 643.458 962.532 642.498 961.126 642.498C959.841 642.498 958.475 642.971 958.34 644.405H957.245C957.34 642.728 958.638 641.39 960.869 641.39ZM969.093 641.39C970.932 641.39 971.716 642.404 971.906 643.756H970.851C970.594 642.809 969.85 642.444 969.08 642.498C967.795 642.579 967.092 643.391 966.808 645.243C966.592 646.609 966.646 647.393 966.646 647.393C966.646 647.393 967.092 645.851 969.391 645.851C971.635 645.851 972.325 647.974 972.325 649.096C972.325 651.638 970.716 652.747 969.418 652.774C967.498 652.828 965.632 652.003 965.632 647.555C965.632 645.608 965.889 644.107 966.416 643.066C966.998 641.93 967.863 641.39 969.093 641.39ZM969.269 646.947C967.795 646.947 966.889 647.825 966.862 648.921C966.808 650.881 967.579 651.719 969.35 651.638C970.702 651.571 971.392 650.354 971.311 648.988C971.243 647.92 970.526 646.947 969.269 646.947ZM976.752 652.774C975.062 652.896 973.263 651.841 973.263 650.11H974.426C974.426 650.705 975.062 651.706 976.617 651.652C978.171 651.611 978.956 650.543 978.956 648.88C978.956 647.541 978.158 646.609 976.698 646.595C975.251 646.581 974.737 647.19 974.616 647.785H973.561V641.606H979.632V642.715H974.602V646.392C974.602 646.392 975.062 645.567 976.806 645.567C978.766 645.567 979.997 646.987 979.997 648.88C979.997 651.746 978.361 652.652 976.752 652.774Z" fill="white"/>
<rect x="993.392" y="638.177" width="46.9583" height="19.9683" rx="1.69008" fill="white"/>
<path d="M1010.52 652.558H1003.86V651.449L1006.93 651.462V642.89L1004.03 644.77L1004.05 643.499L1006.95 641.619H1008.08V651.449H1010.52V652.558ZM1015.31 641.39C1017.15 641.39 1017.94 642.404 1018.12 643.756H1017.07C1016.81 642.809 1016.07 642.444 1015.3 642.498C1014.01 642.579 1013.31 643.391 1013.03 645.243C1012.81 646.609 1012.87 647.393 1012.87 647.393C1012.87 647.393 1013.31 645.851 1015.61 645.851C1017.85 645.851 1018.54 647.974 1018.54 649.096C1018.54 651.638 1016.93 652.747 1015.64 652.774C1013.72 652.828 1011.85 652.003 1011.85 647.555C1011.85 645.608 1012.11 644.107 1012.64 643.066C1013.22 641.93 1014.08 641.39 1015.31 641.39ZM1015.49 646.947C1014.01 646.947 1013.11 647.825 1013.08 648.921C1013.03 650.881 1013.8 651.719 1015.57 651.638C1016.92 651.571 1017.61 650.354 1017.53 648.988C1017.46 647.92 1016.75 646.947 1015.49 646.947ZM1020.94 652.558H1019.49V651.07H1020.94V652.558ZM1020.94 646.987H1019.49V645.5H1020.94V646.987ZM1025.21 652.774C1023.3 652.774 1022.51 651.773 1022.3 650.421H1023.4C1023.66 651.354 1024.43 651.733 1025.22 651.679C1026.55 651.584 1027.28 650.786 1027.56 648.934C1027.78 647.555 1027.74 646.771 1027.74 646.771C1027.74 646.771 1027.28 648.312 1024.9 648.312C1022.59 648.312 1021.88 646.203 1021.88 645.067C1021.88 642.539 1023.53 641.43 1024.87 641.39C1026.86 641.349 1028.79 642.174 1028.79 646.622C1028.79 648.555 1028.51 650.07 1027.97 651.111C1027.37 652.233 1026.48 652.774 1025.21 652.774ZM1025.02 647.23C1026.55 647.23 1027.48 646.338 1027.51 645.256C1027.56 643.296 1026.78 642.444 1024.95 642.539C1023.55 642.593 1022.84 643.823 1022.93 645.189C1022.99 646.257 1023.74 647.23 1025.02 647.23Z" fill="black"/>
<path d="M931.589 689.388C934.036 689.388 935.131 690.808 935.131 692.7C935.131 694.418 934.158 695.499 932.143 695.959C930.25 696.405 929.385 696.148 929.385 699.461H935.28V700.556H928.276C928.276 700.002 928.263 700.083 928.263 699.461C928.263 695.878 929.263 695.472 931.738 694.918C933.739 694.472 934.009 693.593 934.009 692.484C934.009 691.456 933.252 690.497 931.846 690.497C930.561 690.497 929.196 690.97 929.061 692.403H927.965C928.06 690.726 929.358 689.388 931.589 689.388ZM940.198 689.388C942.902 689.388 944.335 691.524 944.335 695.08C944.335 698.704 942.902 700.772 940.198 700.772C937.521 700.772 936.061 698.704 936.061 695.08C936.061 691.578 937.507 689.388 940.198 689.388ZM940.198 699.664C941.929 699.664 943.227 698.514 943.227 695.08C943.227 691.7 941.929 690.497 940.198 690.497C938.508 690.497 937.169 691.727 937.169 695.08C937.169 698.528 938.508 699.664 940.198 699.664ZM953.272 697.392H951.717V700.556H950.608V697.392H945.308V696.067L950.189 689.618H951.717V696.283H953.272V697.392ZM950.608 696.283V690.483L946.2 696.283H950.608ZM955.262 700.556H953.815V699.069H955.262V700.556ZM959.713 689.388C962.16 689.388 963.255 690.808 963.255 692.7C963.255 694.418 962.282 695.499 960.267 695.959C958.374 696.405 957.509 696.148 957.509 699.461H963.404V700.556H956.4C956.4 700.002 956.387 700.083 956.387 699.461C956.387 695.878 957.387 695.472 959.862 694.918C961.863 694.472 962.133 693.593 962.133 692.484C962.133 691.456 961.376 690.497 959.97 690.497C958.685 690.497 957.32 690.97 957.185 692.403H956.089C956.184 690.726 957.482 689.388 959.713 689.388ZM974.779 696.229V695.161H979.227V700.556H978.281L978.118 699.353C977.226 700.272 975.969 700.772 974.481 700.772C971.345 700.772 969.33 698.541 969.33 695.08C969.33 693.322 969.857 691.849 970.844 690.835C971.764 689.902 973.048 689.388 974.481 689.388C976.685 689.388 978.456 690.483 979.227 692.917H978.064C977.429 691.186 975.915 690.497 974.481 690.497C972.494 690.497 970.439 691.781 970.439 695.08C970.439 698.501 972.643 699.664 974.481 699.664C975.955 699.664 978.118 699.055 978.118 696.229H974.779ZM986.351 694.904C987.973 695.148 988.406 696.459 988.406 697.676C988.406 699.407 987.311 700.556 984.782 700.556H980.496V689.618H984.633C986.54 689.618 987.743 691.105 987.743 692.7C987.743 693.403 987.405 694.539 986.351 694.904ZM984.309 690.699H981.591V694.431C982.47 694.431 983.633 694.431 984.295 694.431C985.81 694.431 986.621 693.971 986.621 692.579C986.621 691.484 985.864 690.699 984.309 690.699ZM984.985 699.488C986.364 699.488 987.311 698.96 987.311 697.595C987.311 696.486 986.445 695.499 984.958 695.499H981.591V699.488H984.985Z" fill="white"/>
<rect x="257.528" y="155.151" width="46.2823" height="19.2922" rx="1.35207" stroke="white" stroke-width="0.676034"/>
<path d="M274.037 169.194V163.853H267.817V169.194H266.709V158.255H267.817V162.798H274.037V158.255H275.146V169.194H274.037ZM285.792 163.731C285.792 166.746 283.466 169.194 280.613 169.194H276.625V158.255H280.613C283.466 158.255 285.792 160.716 285.792 163.731ZM277.72 159.31V168.139H280.465C282.466 168.139 284.44 166.489 284.656 164.177V164.137V164.123C284.656 164.11 284.656 164.11 284.656 164.096V164.083L284.669 164.056C284.669 163.961 284.669 163.853 284.669 163.731C284.669 163.704 284.669 163.664 284.669 163.637V163.61V163.596V163.583C284.602 161.149 282.587 159.31 280.465 159.31H277.72ZM292.496 164.421L295.16 169.207H293.862L291.225 164.421H292.496ZM294.93 161.338C294.93 163.637 293.308 164.299 292.496 164.421H288.792H287.953V169.207H286.831V158.269L291.347 158.255C292.726 158.255 294.93 159.04 294.93 161.338ZM291.563 163.312C293.064 163.312 293.821 162.731 293.821 161.338C293.821 160.162 292.74 159.391 291.563 159.391H287.953V163.312H291.563Z" fill="white"/>
<path opacity="0.5" d="M1002.17 695.783L1004.83 700.569H1003.53L1000.9 695.783H1002.17ZM1004.6 692.7C1004.6 694.999 1002.98 695.661 1002.17 695.783H998.462H997.624V700.569H996.502V689.631L1001.02 689.618C1002.4 689.618 1004.6 690.402 1004.6 692.7ZM1001.23 694.674C1002.73 694.674 1003.49 694.093 1003.49 692.7C1003.49 691.524 1002.41 690.753 1001.23 690.753H997.624V694.674H1001.23ZM1006.93 700.556H1005.82V689.618H1006.93V700.556ZM1013.48 696.229V695.161H1017.93V700.556H1016.98L1016.82 699.353C1015.93 700.272 1014.67 700.772 1013.18 700.772C1010.05 700.772 1008.03 698.541 1008.03 695.08C1008.03 693.322 1008.56 691.849 1009.55 690.835C1010.47 689.902 1011.75 689.388 1013.18 689.388C1015.39 689.388 1017.16 690.483 1017.93 692.917H1016.77C1016.13 691.186 1014.62 690.497 1013.18 690.497C1011.2 690.497 1009.14 691.781 1009.14 695.08C1009.14 698.501 1011.35 699.664 1013.18 699.664C1014.66 699.664 1016.82 699.055 1016.82 696.229H1013.48ZM1026.53 700.556V695.215H1020.31V700.556H1019.2V689.618H1020.31V694.161H1026.53V689.618H1027.64V700.556H1026.53ZM1038.86 690.686H1034.28V700.556H1033.17V690.686H1028.6V689.618H1038.86V690.686Z" fill="white"/>
<path d="M871.705 526.97H953.843V524.435C953.843 523.781 953.313 523.252 952.66 523.252H952.491C951.931 523.252 951.477 523.706 951.477 524.266C951.477 524.826 951.023 525.28 950.463 525.28H949.111C948.364 525.28 947.759 524.675 947.759 523.928V515.139C947.759 514.579 947.305 514.125 946.745 514.125C946.185 514.125 945.731 513.671 945.731 513.111V497.563C945.731 496.816 945.125 496.21 944.379 496.21H943.703C942.956 496.21 942.351 496.816 942.351 497.563V523.252C942.351 523.999 941.745 524.604 940.999 524.604H939.984C939.238 524.604 938.632 523.999 938.632 523.252V520.379C938.632 519.912 938.254 519.534 937.787 519.534C937.321 519.534 936.942 519.155 936.942 518.689V516.153C936.942 515.407 936.337 514.801 935.59 514.801H934.914C934.167 514.801 933.562 514.196 933.562 513.449V507.703C933.562 507.143 933.108 506.689 932.548 506.689C931.988 506.689 931.534 506.235 931.534 505.675V502.971C931.534 502.224 930.929 501.619 930.182 501.619H929.506C928.759 501.619 928.154 502.224 928.154 502.971V504.661C928.154 505.221 927.7 505.675 927.14 505.675C926.58 505.675 926.126 506.129 926.126 506.689V509.393C926.126 510.14 925.52 510.745 924.774 510.745H924.098C923.351 510.745 922.746 511.351 922.746 512.097V515.139C922.746 515.886 922.14 516.491 921.394 516.491H918.689C917.943 516.491 917.337 517.097 917.337 517.844V518.182C917.337 518.928 916.732 519.534 915.985 519.534H914.633C914.073 519.534 913.619 519.988 913.619 520.548C913.619 521.108 913.165 521.562 912.605 521.562H908.211C907.464 521.562 906.859 522.167 906.859 522.914V523.928C906.859 524.675 906.253 525.28 905.507 525.28H904.493C903.746 525.28 903.141 524.675 903.141 523.928V522.238C903.141 521.491 902.535 520.886 901.789 520.886H900.606C899.952 520.886 899.422 521.415 899.422 522.069C899.422 522.722 898.893 523.252 898.239 523.252H896.718C896.158 523.252 895.704 523.706 895.704 524.266C895.704 524.826 895.25 525.28 894.69 525.28H894.352C893.792 525.28 893.338 524.826 893.338 524.266C893.338 523.706 892.884 523.252 892.324 523.252H890.634C890.074 523.252 889.62 523.706 889.62 524.266C889.62 524.826 889.166 525.28 888.606 525.28H888.437C887.784 525.28 887.254 524.75 887.254 524.097V522.238C887.254 521.491 886.649 520.886 885.902 520.886H884.55C883.803 520.886 883.198 521.491 883.198 522.238V523.928C883.198 524.675 882.592 525.28 881.846 525.28H880.494C879.933 525.28 879.479 524.826 879.479 524.266C879.479 523.706 879.025 523.252 878.465 523.252H873.057C872.31 523.252 871.705 523.857 871.705 524.604V526.97Z" fill="white"/>
<path d="M856.177 641.619V642.728C853.202 645.54 852.256 650.151 852.256 652.449V652.558H851.161V652.449C851.161 650.002 852.215 645.311 854.595 642.728H848.605V641.619H856.177ZM860.355 652.774C858.665 652.896 856.867 651.841 856.867 650.11H858.03C858.03 650.705 858.665 651.706 860.22 651.652C861.775 651.611 862.559 650.543 862.559 648.88C862.559 647.541 861.761 646.609 860.301 646.595C858.854 646.581 858.341 647.19 858.219 647.785H857.164V641.606H863.235V642.715H858.205V646.392C858.205 646.392 858.665 645.567 860.409 645.567C862.37 645.567 863.6 646.987 863.6 648.88C863.6 651.746 861.964 652.652 860.355 652.774ZM872.363 641.606H873.593L868.293 652.558H867.063L872.363 641.606ZM869.537 644.161C869.537 646.068 868.252 646.919 866.981 646.919C865.71 646.919 864.426 646.068 864.426 644.161C864.426 642.525 865.467 641.39 866.981 641.39C868.509 641.39 869.537 642.498 869.537 644.161ZM866.981 645.824C867.455 645.824 868.266 645.608 868.252 644.148C868.252 643.391 868.036 642.485 866.981 642.485C866.116 642.485 865.697 643.026 865.697 644.148C865.697 644.918 865.913 645.824 866.981 645.824ZM873.647 647.258C875.175 647.258 876.203 648.366 876.203 650.016C876.203 651.922 874.918 652.774 873.647 652.774C872.376 652.774 871.092 651.922 871.092 650.016C871.092 648.393 872.146 647.258 873.647 647.258ZM873.647 651.692C874.134 651.692 874.932 651.476 874.932 650.016C874.932 649.259 874.715 648.353 873.647 648.353C872.795 648.353 872.363 648.894 872.363 650.016C872.363 650.786 872.592 651.692 873.647 651.692Z" fill="white"/>
<circle cx="1227.08" cy="658.133" r="150.743" stroke="white" stroke-width="0.676034"/>
<circle cx="1227.08" cy="658.133" r="72.2969" stroke="white" stroke-width="0.676034"/>
<circle cx="1227.3" cy="658.458" r="18.2529" fill="#FD4B28"/>
<path d="M1204.88 561.448H1249.47C1252.03 561.448 1253.44 558.466 1251.81 556.486L1230.1 530.084C1228.91 528.633 1226.7 528.604 1225.47 530.024L1202.59 556.425C1200.88 558.391 1202.28 561.448 1204.88 561.448Z" fill="white"/>
<path d="M1249.25 753.779L1204.66 753.779C1202.09 753.779 1200.69 756.761 1202.31 758.741L1224.02 785.142C1225.21 786.594 1227.43 786.623 1228.66 785.202L1251.54 758.801C1253.24 756.836 1251.85 753.779 1249.25 753.779Z" fill="white"/>
<path d="M1320.81 635.978C1326.03 634.983 1337.38 634.784 1340.96 641.95C1344.55 649.116 1354.4 644.936 1358.88 641.95V670.317C1352.91 671.561 1340.96 672.556 1340.96 666.584C1340.96 660.612 1327.53 664.096 1320.81 666.584V680.767H1318.57V635.978H1320.81Z" fill="white"/>
<path d="M1100.21 660.951L1121.72 635.473L1113.23 656.422H1130.22L1107 680.767L1116.63 660.951H1100.21Z" fill="white"/>
<path d="M1313.97 289.468H1315.95C1318.44 289.468 1320.47 291.493 1320.47 293.991V313.891C1320.47 316.389 1318.44 318.413 1315.95 318.413H1291.52C1289.02 318.413 1287 316.389 1287 313.891V293.991C1287 291.493 1289.02 289.468 1291.52 289.468H1293.49M1313.97 289.468C1313.97 281.327 1311.4 273.119 1303.44 273.119C1295.48 273.119 1293.49 282.232 1293.49 289.468M1313.97 289.468H1293.49" stroke="white" stroke-width="1.80907"/>
<path d="M1320.47 313.891V293.991C1320.47 291.493 1318.44 289.469 1315.95 289.469H1313.97H1293.49H1291.52C1289.02 289.469 1287 291.493 1287 293.991V313.891C1287 316.389 1289.02 318.414 1291.52 318.414H1315.95C1318.44 318.414 1320.47 316.389 1320.47 313.891Z" fill="white"/>
<path d="M841.114 644.938V650.587M804.608 643.376V652.584C804.608 655.081 806.633 657.106 809.131 657.106H833.156C835.654 657.106 837.678 655.081 837.678 652.584V643.376C837.678 640.878 835.654 638.853 833.156 638.853H809.131C806.633 638.853 804.608 640.878 804.608 643.376Z" stroke="white" stroke-width="1.80907" stroke-linecap="round"/>
<path d="M806.637 651.698V644.262C806.637 642.395 808.15 640.881 810.017 640.881H828.27C830.137 640.881 831.65 642.395 831.65 644.262V651.698C831.65 653.565 830.137 655.078 828.27 655.078H810.017C808.15 655.078 806.637 653.565 806.637 651.698Z" fill="white"/>
<path d="M104 215.141V227.503H86.1279M104 215.141H51M104 215.141V202.852M51 215.141V227.503H68.2558M51 215.141V202.852M68.2558 189.294H51V202.852M68.2558 189.294V227.503M68.2558 189.294H86.1279M68.2558 227.503H86.1279M86.1279 227.503V189.294M86.1279 189.294H104V190.452V202.852M51 202.852H104" stroke="white" stroke-width="1.23256"/>
<path d="M63 73.478L84.5148 48L76.0221 68.9486H93.0074L69.7941 93.2943L79.4192 73.478H63Z" stroke="white"/>
<path d="M104 474.161V473.003H86.1279H68.2558H51V486.562V498.85V511.213H68.2558H86.1279H104V498.85V486.562V474.161Z" stroke="white" stroke-width="1.23256"/>
<circle cx="78.1165" cy="491.491" r="10.4767" stroke="white" stroke-width="1.23256"/>
<path d="M82.1227 608.071L82.9126 613.601C82.9662 613.976 83.227 614.288 83.5863 614.408L87.0118 615.55C87.3182 615.652 87.655 615.6 87.9162 615.41L92.3364 612.195C92.7222 611.915 93.2524 611.946 93.6029 612.269L98.8365 617.1C99.2134 617.448 99.266 618.025 98.9582 618.435L95.3522 623.243C95.1348 623.533 95.0912 623.918 95.2384 624.249L96.7728 627.701C96.914 628.019 97.2099 628.241 97.5545 628.287L103.632 629.097C104.129 629.163 104.5 629.587 104.5 630.088V637.337C104.5 637.838 104.129 638.262 103.632 638.328L97.5545 639.139C97.2099 639.185 96.914 639.406 96.7728 639.724L95.2501 643.15C95.0967 643.495 95.1508 643.897 95.39 644.189L98.9269 648.512C99.2523 648.91 99.2234 649.489 98.8601 649.853L93.5797 655.133C93.2426 655.47 92.7145 655.522 92.3179 655.258L87.4829 652.035C87.1843 651.835 86.8019 651.812 86.4809 651.972L83.4213 653.502C83.1545 653.635 82.9612 653.881 82.8941 654.172L81.6789 659.438C81.5742 659.891 81.1701 660.213 80.7045 660.213H73.8673C73.3696 660.213 72.9477 659.847 72.8773 659.354L72.0874 653.824C72.0338 653.45 71.773 653.137 71.4137 653.017L67.9293 651.856C67.6564 651.765 67.3576 651.796 67.1092 651.941L62.1938 654.808C61.7886 655.044 61.2734 654.967 60.9552 654.622L56.0831 649.344C55.7478 648.981 55.7282 648.427 56.037 648.041L59.12 644.188C59.3534 643.896 59.4047 643.498 59.253 643.157L57.7027 639.669C57.5751 639.382 57.3199 639.171 57.0137 639.1L51.7751 637.892C51.3214 637.787 51 637.383 51 636.917V630.071C51 629.577 51.3601 629.157 51.8479 629.082L56.9601 628.296C57.2966 628.244 57.5836 628.025 57.7219 627.713L59.2765 624.216C59.4157 623.902 59.3848 623.54 59.1947 623.255L55.9736 618.423C55.7008 618.014 55.766 617.467 56.1274 617.134L61.3971 612.269C61.7476 611.946 62.2778 611.915 62.6636 612.195L67.0838 615.41C67.345 615.6 67.6818 615.652 67.9882 615.55L71.4137 614.408C71.773 614.288 72.0338 613.976 72.0874 613.601L72.8773 608.071C72.9477 607.579 73.3696 607.213 73.8673 607.213H81.1327C81.6304 607.213 82.0523 607.579 82.1227 608.071Z" stroke="white" stroke-linecap="round"/>
<circle cx="77.5" cy="633.713" r="10" stroke="white"/>
<path d="M77.5 330.503V323.503M77.5 370.003V377.003M97 350.503H105M58.5 350.503H50M91.5 364.503L97.5 370.503M63.5 336.503L57 330.503M91.5 336.503L97.5 330.503M63.5 364.503L57 370.503" stroke="white" stroke-linecap="round"/>
<circle cx="77.5" cy="350.003" r="10" stroke="white"/>
<circle cx="77.1967" cy="771.306" r="14.6022" stroke="white" stroke-width="0.982143"/>
<circle cx="65.0932" cy="792.942" r="14.6022" stroke="white" stroke-width="0.982143"/>
<circle cx="89.9067" cy="792.942" r="14.6022" stroke="white" stroke-width="0.982143"/>
<rect x="561" width="40" height="50" fill="#D9D9D9"/>
<rect y="183" width="50" height="50" fill="#D9D9D9"/>
</svg>
