<svg width="1440" height="1009" viewBox="0 0 1440 1009" fill="none" xmlns="http://www.w3.org/2000/svg">
<g opacity="0.5">
<rect width="720" height="80" transform="matrix(8.74228e-08 -1 -1 -2.44655e-08 1440 1009)" fill="url(#paint0_linear_1250_10847)"/>
<rect width="720" height="80" transform="matrix(8.74228e-08 -1 -1 -2.21046e-08 1360 992)" fill="url(#paint1_linear_1250_10847)"/>
<rect width="720" height="80" transform="matrix(8.74228e-08 -1 -1 -2.21046e-08 1280 975)" fill="url(#paint2_linear_1250_10847)"/>
<rect width="720" height="80" transform="matrix(8.74228e-08 -1 -1 -2.21046e-08 1120 941)" fill="url(#paint3_linear_1250_10847)"/>
<rect width="720" height="80" transform="matrix(8.74228e-08 -1 -1 -2.21046e-08 880 890)" fill="url(#paint4_linear_1250_10847)"/>
<rect width="720" height="80" transform="matrix(8.74228e-08 -1 -1 -2.21046e-08 640 839)" fill="url(#paint5_linear_1250_10847)"/>
<rect width="720" height="80" transform="matrix(8.74228e-08 -1 -1 -2.21046e-08 320 771)" fill="url(#paint6_linear_1250_10847)"/>
<rect width="720" height="80" transform="matrix(8.74228e-08 -1 -1 -2.21046e-08 80 720)" fill="url(#paint7_linear_1250_10847)"/>
<rect width="720" height="80" transform="matrix(8.74228e-08 -1 -1 -2.21046e-08 1200 958.001)" fill="url(#paint8_linear_1250_10847)"/>
<rect width="720" height="80" transform="matrix(8.74228e-08 -1 -1 -2.21046e-08 960 907)" fill="url(#paint9_linear_1250_10847)"/>
<rect width="720" height="80" transform="matrix(8.74228e-08 -1 -1 -2.21046e-08 720 856)" fill="url(#paint10_linear_1250_10847)"/>
<rect width="720" height="80" transform="matrix(8.74228e-08 -1 -1 -2.21046e-08 400 788)" fill="url(#paint11_linear_1250_10847)"/>
<rect width="720" height="80" transform="matrix(8.74228e-08 -1 -1 -2.21046e-08 160 737)" fill="url(#paint12_linear_1250_10847)"/>
<rect width="720" height="80" transform="matrix(8.74228e-08 -1 -1 -2.21046e-08 1040 924)" fill="url(#paint13_linear_1250_10847)"/>
<rect width="720" height="80" transform="matrix(8.74228e-08 -1 -1 -2.21046e-08 800 873.001)" fill="url(#paint14_linear_1250_10847)"/>
<rect width="720" height="80" transform="matrix(8.74228e-08 -1 -1 -2.21046e-08 480 805)" fill="url(#paint15_linear_1250_10847)"/>
<rect width="720" height="80" transform="matrix(8.74228e-08 -1 -1 -2.21046e-08 560 822)" fill="url(#paint16_linear_1250_10847)"/>
<rect width="720" height="80" transform="matrix(8.74228e-08 -1 -1 -2.21046e-08 240 754.001)" fill="url(#paint17_linear_1250_10847)"/>
</g>
<path d="M185.348 241.669L51.5018 241.669C50.1201 241.669 49 240.549 49 239.167L49 229.16L49 37.0219L49 27.0147C49 25.633 50.1201 24.5129 51.5018 24.5129L97.1213 24.5129L97.1213 9.50205C97.1213 8.12034 98.2414 7.00025 99.6231 7.00025L142.741 7.00026C144.122 7.00026 145.243 8.12036 145.243 9.50206L145.243 24.5129L185.348 24.5129C186.73 24.5129 187.85 25.633 187.85 27.0147L187.85 37.0219L187.85 48.0298L187.85 220.654L187.85 229.16L187.85 239.167C187.85 240.549 186.73 241.669 185.348 241.669Z" fill="black"/>
<path d="M49 37.0219L49 27.0147C49 25.633 50.1201 24.5129 51.5018 24.5129L97.1213 24.5129M49 37.0219L49 229.16M49 37.0219L86.0935 37.0219M187.85 37.0219L187.85 27.0147C187.85 25.633 186.73 24.5129 185.348 24.5129L145.243 24.5129M187.85 37.0219L159.278 37.0219M187.85 37.0219L187.85 48.0298L187.85 220.654L187.85 229.16M49 229.16L49 239.167C49 240.549 50.1201 241.669 51.5018 241.669L185.348 241.669C186.73 241.669 187.85 240.549 187.85 239.167L187.85 229.16M49 229.16L86.0935 229.16M187.85 229.16L159.278 229.16M86.0935 229.16L86.0935 37.0219M86.0935 229.16L159.278 229.16M86.0935 37.0219L159.278 37.0219M159.278 37.0219L159.278 229.16M97.1213 24.5129L97.1213 9.50205C97.1213 8.12034 98.2414 7.00025 99.6231 7.00025L142.741 7.00026C144.122 7.00026 145.243 8.12035 145.243 9.50206L145.243 24.5129M97.1213 24.5129L145.243 24.5129" stroke="white" stroke-width="1.00072"/>
<rect x="187.098" y="180.625" width="23.0166" height="2.00144" transform="rotate(-180 187.098 180.625)" fill="white"/>
<rect x="187.098" y="147.602" width="23.0166" height="2.00144" transform="rotate(-180 187.098 147.602)" fill="white"/>
<rect x="187.098" y="114.578" width="23.0166" height="2.00144" transform="rotate(-180 187.098 114.578)" fill="white"/>
<rect x="187.098" y="175.622" width="23.0166" height="4.00288" transform="rotate(-180 187.098 175.622)" fill="white"/>
<rect x="187.098" y="142.598" width="23.0166" height="4.00288" transform="rotate(-180 187.098 142.598)" fill="white"/>
<rect x="187.098" y="109.574" width="23.0166" height="4.00288" transform="rotate(-180 187.098 109.574)" fill="white"/>
<rect x="187.098" y="154.607" width="23.0166" height="4.00288" transform="rotate(-180 187.098 154.607)" fill="white"/>
<rect x="187.098" y="121.583" width="23.0166" height="4.00288" transform="rotate(-180 187.098 121.583)" fill="white"/>
<rect x="187.098" y="88.5588" width="23.0166" height="4.00288" transform="rotate(-180 187.098 88.5588)" fill="white"/>
<rect x="187.098" y="168.617" width="23.0166" height="2.00144" transform="rotate(-180 187.098 168.617)" fill="white"/>
<rect x="187.098" y="135.593" width="23.0166" height="2.00144" transform="rotate(-180 187.098 135.593)" fill="white"/>
<rect x="187.098" y="102.569" width="23.0166" height="2.00144" transform="rotate(-180 187.098 102.569)" fill="white"/>
<rect x="187.098" y="163.613" width="23.0166" height="2.00144" transform="rotate(-180 187.098 163.613)" fill="white"/>
<rect x="187.098" y="130.589" width="23.0166" height="2.00144" transform="rotate(-180 187.098 130.589)" fill="white"/>
<rect x="187.098" y="97.5654" width="23.0166" height="2.00144" transform="rotate(-180 187.098 97.5654)" fill="white"/>
<rect x="187.098" y="158.609" width="23.0166" height="1.00072" transform="rotate(-180 187.098 158.609)" fill="white"/>
<rect x="187.098" y="125.585" width="23.0166" height="1.00072" transform="rotate(-180 187.098 125.585)" fill="white"/>
<rect x="187.098" y="92.5623" width="23.0166" height="1.00072" transform="rotate(-180 187.098 92.5623)" fill="white"/>
<rect x="158.58" y="229.161" width="72.0519" height="192.138" transform="rotate(-180 158.58 229.161)" fill="#FD4B28" stroke="white" stroke-width="1.00072"/>
<path d="M97.3202 216.067C97.3202 214.001 98.7972 212.884 100.19 212.884C101.583 212.884 103 213.977 103 216.055L103 219.009L107.035 219.009L107.035 220.006L97.3202 220.006L97.3202 216.067ZM102.016 215.875C102.016 214.926 101.415 213.857 100.19 213.857C98.9413 213.857 98.3049 214.938 98.3049 215.875L98.3049 219.009L102.016 219.009L102.016 215.875ZM104.249 207.477L104.249 211.764L107.035 212.761L107.035 213.794L97.3202 210.167L97.3202 209.062L107.035 205.424L107.035 206.48L104.249 207.477ZM98.2328 209.615L103.3 211.428L103.3 207.813L98.2328 209.615ZM104.369 198.131C106.327 198.131 107.227 199.32 107.227 201.578C107.227 205.156 105.018 205.24 104.129 205.24L104.129 204.328C104.633 204.328 106.291 204.208 106.291 201.71C106.291 199.524 105.246 198.948 104.129 199.08C103.288 199.176 102.568 200.149 102.568 201.878L101.667 201.878C101.667 199.476 100.274 199.332 99.7579 199.332C98.5931 199.332 98.0767 200.449 98.0767 201.446C98.0767 203.043 98.9653 203.751 99.9621 203.895L99.9621 204.88C98.497 204.772 97.128 203.703 97.128 201.59C97.128 199.344 98.2688 198.371 99.9861 198.371C101.655 198.371 102.1 199.848 102.1 199.848C102.1 199.848 102.34 198.131 104.369 198.131ZM97.3202 193.14C97.3202 191.075 98.7972 189.958 100.19 189.958C101.583 189.958 103 191.051 103 193.128L103 196.082L107.035 196.082L107.035 197.079L97.3202 197.079L97.3202 193.14ZM102.016 192.948C102.016 191.999 101.415 190.93 100.19 190.93C98.9413 190.93 98.3049 192.011 98.3049 192.948L98.3049 196.082L102.016 196.082L102.016 192.948ZM104.249 184.55L104.249 188.838L107.035 189.834L107.035 190.867L97.3202 187.24L97.3202 186.136L107.035 182.497L107.035 183.554L104.249 184.55ZM98.2328 186.688L103.3 188.501L103.3 184.887L98.2328 186.688ZM101.595 177.834C101.595 175.793 103 174.82 104.261 174.82C106.243 174.82 107.035 175.793 107.035 178.039L107.035 181.845L97.3202 181.845L97.3202 175.757L98.2809 175.757L98.2809 180.873L101.595 180.873L101.595 177.834ZM106.086 177.858C106.086 176.634 105.618 175.793 104.405 175.793C103.421 175.793 102.544 176.561 102.544 177.882L102.544 180.873L106.086 180.873L106.086 177.858ZM97.116 169.702C97.116 166.928 99.0494 165.127 102.172 165.127C105.906 165.127 107.227 167.493 107.227 169.702C107.227 172.488 105.246 174.277 102.172 174.277C100.611 174.277 99.3016 173.809 98.4009 172.932C97.5723 172.116 97.116 170.975 97.116 169.702ZM106.243 169.702C106.243 167.457 104.778 166.124 102.172 166.124C99.1455 166.124 98.1007 167.949 98.1007 169.702C98.1007 171.467 99.2536 173.293 102.172 173.293C105.186 173.293 106.243 171.467 106.243 169.702ZM98.2689 156.2L98.2689 160.271L107.035 160.271L107.035 161.256L98.2689 161.256L98.2689 165.315L97.3202 165.315L97.3202 156.2L98.2689 156.2ZM104.249 151.128L104.249 155.415L107.035 156.412L107.035 157.444L97.3202 153.818L97.3202 152.713L107.035 149.074L107.035 150.131L104.249 151.128ZM98.2328 153.265L103.3 155.079L103.3 151.464L98.2328 153.265ZM107.035 141.914L102.292 141.914L102.292 147.438L107.035 147.438L107.035 148.423L97.3202 148.423L97.3202 147.438L101.355 147.438L101.355 141.914L97.3202 141.914L97.3202 140.929L107.035 140.929L107.035 141.914ZM97.116 135.377C97.116 132.603 99.0494 130.801 102.172 130.801C105.906 130.801 107.227 133.167 107.227 135.377C107.227 138.163 105.246 139.952 102.172 139.952C100.611 139.952 99.3016 139.484 98.401 138.607C97.5724 137.79 97.116 136.65 97.116 135.377ZM106.243 135.377C106.243 133.131 104.778 131.798 102.172 131.798C99.1455 131.798 98.1007 133.623 98.1007 135.377C98.1007 137.142 99.2536 138.967 102.172 138.967C105.186 138.967 106.243 137.142 106.243 135.377ZM110.257 214.001L110.257 217.844L110.809 217.844C112.875 217.844 114.484 217.856 116.405 218.096C118.519 218.348 119.035 218.817 119.035 220.714C119.035 220.714 118.279 220.714 118.098 220.714C118.098 219.273 117.978 219.177 115.805 218.937C114.964 218.841 113.631 218.733 112.022 218.733L109.32 218.733L109.32 213.053L119.035 213.053L119.035 214.001L110.257 214.001ZM116.249 206.046L116.249 210.333L119.035 211.33L119.035 212.363L109.32 208.736L109.32 207.632L119.035 203.993L119.035 205.05L116.249 206.046ZM110.233 208.184L115.3 209.997L115.3 206.383L110.233 208.184ZM113.595 199.33C113.595 197.289 115 196.316 116.261 196.316C118.243 196.316 119.035 197.289 119.035 199.535L119.035 203.341L109.32 203.341L109.32 197.253L110.281 197.253L110.281 202.369L113.595 202.369L113.595 199.33ZM118.086 199.354C118.086 198.129 117.618 197.289 116.405 197.289C115.421 197.289 114.544 198.057 114.544 199.378L114.544 202.369L118.086 202.369L118.086 199.354ZM109.116 191.198C109.116 188.424 111.049 186.623 114.172 186.623C117.906 186.623 119.227 188.988 119.227 191.198C119.227 193.984 117.246 195.773 114.172 195.773C112.611 195.773 111.302 195.305 110.401 194.428C109.572 193.612 109.116 192.471 109.116 191.198ZM118.243 191.198C118.243 188.952 116.778 187.619 114.172 187.619C111.145 187.619 110.101 189.445 110.101 191.198C110.101 192.963 111.254 194.789 114.172 194.789C117.186 194.789 118.243 192.963 118.243 191.198ZM109.32 181.694C109.32 179.629 110.797 178.512 112.19 178.512C113.583 178.512 115 179.605 115 181.682L115 184.636L119.035 184.636L119.035 185.633L109.32 185.633L109.32 181.694ZM114.016 181.502C114.016 180.554 113.415 179.485 112.19 179.485C110.941 179.485 110.305 180.566 110.305 181.502L110.305 184.636L114.016 184.636L114.016 181.502ZM116.249 173.105L116.249 177.392L119.035 178.389L119.035 179.421L109.32 175.795L109.32 174.69L119.035 171.051L119.035 172.108L116.249 173.105ZM110.233 175.242L115.3 177.056L115.3 173.441L110.233 175.242ZM110.269 163.189L110.269 167.26L119.035 167.26L119.035 168.245L110.269 168.245L110.269 172.304L109.32 172.304L109.32 163.189L110.269 163.189ZM109.116 158.819C109.116 156.045 111.049 154.244 114.172 154.244C117.906 154.244 119.227 156.61 119.227 158.819C119.227 161.605 117.246 163.395 114.172 163.395C112.611 163.395 111.302 162.926 110.401 162.05C109.572 161.233 109.116 160.092 109.116 158.819ZM118.243 158.819C118.243 156.574 116.778 155.241 114.172 155.241C111.145 155.241 110.101 157.066 110.101 158.819C110.101 160.585 111.254 162.41 114.172 162.41C117.186 162.41 118.243 160.585 118.243 158.819ZM109.32 149.316C109.32 147.25 110.797 146.133 112.19 146.133C113.583 146.133 115 147.226 115 149.304L115 152.258L119.035 152.258L119.035 153.254L109.32 153.254L109.32 149.316ZM114.016 149.123C114.016 148.175 113.415 147.106 112.19 147.106C110.941 147.106 110.305 148.187 110.305 149.123L110.305 152.258L114.016 152.258L114.016 149.123ZM110.449 138.134L119.035 144.054L119.035 145.327L109.32 145.327L109.32 144.342L117.906 144.342L109.32 138.446L109.32 137.149L119.035 137.149L119.035 138.134L110.449 138.134ZM110.269 134.855L113.355 134.855L113.355 130.184L114.304 130.184L114.28 134.855L118.098 134.855L118.098 129.307L119.035 129.307L119.035 135.828L109.32 135.828L109.32 129.307L110.269 129.307L110.269 134.855ZM109.128 124.415C109.128 125.568 108.299 126.589 107.003 126.589L107.003 125.808C107.615 125.808 108.359 125.376 108.359 124.415C108.359 123.466 107.615 123.046 107.003 123.046L107.003 122.266C108.299 122.266 109.128 123.274 109.128 124.415ZM109.32 121.629L109.32 120.332L119.035 120.332L119.035 121.317L110.449 121.317L119.035 127.237L119.035 128.51L109.32 128.51L109.32 127.525L117.906 127.525L109.32 121.629ZM131.035 213.497L122.269 213.497L122.269 219.021L131.035 219.021L131.035 220.006L121.32 220.006L121.32 212.512L131.035 212.512L131.035 213.497ZM122.269 210.226L125.355 210.226L125.355 205.554L126.304 205.554L126.28 210.226L130.098 210.226L130.098 204.678L131.035 204.678L131.035 211.198L121.32 211.198L121.32 204.678L122.269 204.678L122.269 210.226ZM121.32 199.942C121.32 197.876 122.797 196.76 124.19 196.76C125.583 196.76 127 197.852 127 199.93L127 202.884L131.035 202.884L131.035 203.881L121.32 203.881L121.32 199.942ZM126.016 199.75C126.016 198.801 125.415 197.732 124.19 197.732C122.941 197.732 122.305 198.813 122.305 199.75L122.305 202.884L126.016 202.884L126.016 199.75ZM122.269 194.98L125.355 194.98L125.355 190.309L126.304 190.309L126.28 194.98L130.098 194.98L130.098 189.432L131.035 189.432L131.035 195.953L121.32 195.953L121.32 189.432L122.269 189.432L122.269 194.98ZM131.035 184.288L122.449 187.651L131.035 187.651L131.035 188.635L121.32 188.635L121.32 187.062L129.642 183.832L121.32 180.626L121.32 179.04L131.035 179.04L131.035 180.037L122.449 180.025L131.035 183.388L131.035 184.288ZM121.116 173.49C121.116 170.716 123.049 168.915 126.172 168.915C129.906 168.915 131.227 171.28 131.227 173.49C131.227 176.276 129.246 178.065 126.172 178.065C124.611 178.065 123.302 177.597 122.401 176.72C121.572 175.904 121.116 174.763 121.116 173.49ZM130.243 173.49C130.243 171.244 128.778 169.911 126.172 169.911C123.145 169.911 122.101 171.737 122.101 173.49C122.101 175.255 123.254 177.081 126.172 177.081C129.186 177.081 130.243 175.255 130.243 173.49ZM122.269 159.988L122.269 164.059L131.035 164.059L131.035 165.044L122.269 165.044L122.269 169.102L121.32 169.102L121.32 159.988L122.269 159.988ZM126.7 158.392L121.32 153.468L121.32 152.135L125.247 155.726L131.035 151.691L131.035 152.88L125.98 156.398L128.153 158.392L131.035 158.392L131.035 159.364L121.32 159.364L121.32 158.392L126.7 158.392ZM122.449 143.845L131.035 149.765L131.035 151.038L121.32 151.038L121.32 150.053L129.906 150.053L121.32 144.157L121.32 142.86L131.035 142.86L131.035 143.845L122.449 143.845Z" fill="black"/>
<path d="M110.147 53.0704L110.148 53.0696C111.32 51.8876 111.895 50.2987 111.895 48.3321C111.895 46.3656 111.32 44.7791 110.147 43.6026L110.147 43.6022C108.963 42.4206 107.375 41.8406 105.412 41.8406L105.411 41.8406L105.371 41.8407L105.121 41.8412L105.121 42.0909L105.121 44.9302L105.121 45.1812L105.372 45.1804L105.412 45.1802C105.412 45.1802 105.412 45.1802 105.412 45.1802C106.463 45.1803 107.314 45.4657 107.983 46.0214L107.984 46.0215C108.633 46.5596 108.967 47.3207 108.967 48.3405C108.967 49.3603 108.633 50.1214 107.984 50.6596C107.322 51.2079 106.432 51.4922 105.371 51.4922L105.121 51.4922L105.121 51.7424L105.121 54.3407L105.121 54.5904L105.371 54.5909L105.411 54.591L105.412 54.591C107.345 54.591 108.948 54.267 110.147 53.0704Z" stroke="black" stroke-width="0.50036"/>
<path d="M104.79 43.192C102.84 43.1999 101.268 43.7797 100.103 44.9537C98.9245 46.1248 98.347 47.7116 98.347 49.6834C98.347 51.6554 98.9246 53.2448 100.103 54.4213C101.268 55.5955 102.84 56.1754 104.79 56.1832L104.79 56.1832L105.041 56.1842L105.041 55.933L105.041 53.0938L105.041 52.8452L104.831 52.8438L104.831 52.8437L104.792 52.8436C104.792 52.8436 104.792 52.8436 104.792 52.8436C103.746 52.8369 102.905 52.5539 102.25 52.0109C101.601 51.4728 101.266 50.7116 101.266 49.6918C101.266 48.672 101.601 47.9109 102.25 47.3728L102.25 47.3727C102.911 46.8237 103.752 46.5384 104.792 46.5317L104.831 46.5316L104.831 46.5314L105.041 46.5301L105.041 46.2815L105.041 43.4422L105.041 43.191L104.79 43.192Z" stroke="black" stroke-width="0.50036"/>
<path d="M145.284 90.4397C145.284 89.1718 146.02 88.6044 147 88.6044C147.89 88.6044 148.45 89.1088 148.689 90.1525C148.92 91.1332 148.787 91.5816 150.503 91.5816L150.503 88.5274L151.07 88.5274L151.07 92.156C150.783 92.156 150.825 92.163 150.503 92.163C148.647 92.163 148.436 91.6446 148.149 90.3627C147.918 89.3259 147.463 89.1858 146.888 89.1858C146.356 89.1858 145.859 89.5781 145.859 90.3066C145.859 90.9721 146.104 91.6796 146.846 91.7497L146.846 92.3171C145.978 92.268 145.284 91.5956 145.284 90.4397ZM145.284 85.9794C145.284 84.5784 146.391 83.8359 148.233 83.8359C150.111 83.8359 151.182 84.5784 151.182 85.9794C151.182 87.3664 150.111 88.123 148.233 88.123C146.419 88.123 145.284 87.3734 145.284 85.9794ZM150.608 85.9794C150.608 85.0828 150.013 84.4103 148.233 84.4103C146.482 84.4103 145.859 85.0828 145.859 85.9794C145.859 86.8551 146.496 87.5486 148.233 87.5486C150.02 87.5486 150.608 86.8551 150.608 85.9794ZM145.284 81.1361C145.284 79.7351 146.391 78.9926 148.233 78.9926C150.111 78.9926 151.182 79.7351 151.182 81.1361C151.182 82.5231 150.111 83.2796 148.233 83.2796C146.419 83.2796 145.284 82.5301 145.284 81.1361ZM150.608 81.1361C150.608 80.2395 150.013 79.567 148.233 79.567C146.482 79.567 145.859 80.2395 145.859 81.1361C145.859 82.0117 146.496 82.7052 148.233 82.7052C150.02 82.7052 150.608 82.0117 150.608 81.1361ZM147.904 65.4986C147.904 65.4986 148.023 64.3428 149.403 64.3428C150.594 64.3428 151.182 65.0433 151.182 66.2062C151.182 67.2639 150.587 67.9574 149.592 68.0135L149.592 67.4531C150.363 67.2639 150.622 66.9207 150.622 66.052C150.622 65.2885 150.069 64.9172 149.312 64.9172C148.829 64.9172 148.268 65.2885 148.17 66.1851L147.666 66.1851C147.575 65.5547 147.26 65.2605 146.846 65.2605C146.146 65.2605 145.859 65.6387 145.859 66.2552C145.859 66.7736 146.104 67.0398 146.573 67.1658L146.573 67.7333C145.831 67.6772 145.284 67.1518 145.284 66.2552C145.284 65.1694 145.999 64.6791 146.706 64.6791C147.813 64.6791 147.904 65.4986 147.904 65.4986ZM145.284 61.9824C145.284 61.0297 145.81 60.6234 146.51 60.5253L146.51 61.0717C146.02 61.2048 145.831 61.5901 145.859 61.9894C145.901 62.6549 146.321 63.0191 147.281 63.1662C147.988 63.2783 148.394 63.2503 148.394 63.2503C148.394 63.2503 147.596 63.0191 147.596 61.8283C147.596 60.6654 148.696 60.3082 149.277 60.3082C150.594 60.3082 151.168 61.1418 151.182 61.8143C151.21 62.809 150.783 63.7757 148.478 63.7757C147.47 63.7757 146.692 63.6426 146.153 63.3694C145.564 63.0682 145.284 62.6199 145.284 61.9824ZM148.163 61.8913C148.163 62.6549 148.619 63.1242 149.186 63.1382C150.202 63.1662 150.636 62.767 150.594 61.8493C150.559 61.1488 149.928 60.7915 149.221 60.8336C148.668 60.8686 148.163 61.2399 148.163 61.8913ZM145.957 56.4614L147.757 56.4614L147.757 53.7364L148.31 53.7364L148.296 56.4614L150.524 56.4614L150.524 53.225L151.07 53.225L151.07 57.0288L145.403 57.0288L145.403 53.225L145.957 53.225L145.957 56.4614ZM145.403 48.158L148.275 50.1544L151.077 48.207L151.077 48.9075L148.78 50.4977L151.077 52.0948L151.077 52.7953L148.275 50.8479L145.403 52.8374L145.403 52.1439L147.771 50.4977L145.403 48.8585L145.403 48.158ZM145.403 45.4754C145.403 44.2706 146.265 43.6191 147.077 43.6191C147.89 43.6191 148.724 44.2566 148.724 45.4684L148.724 47.1917L151.077 47.1917L151.077 47.7731L145.403 47.7731L145.403 45.4754ZM148.142 45.3634C148.142 44.81 147.792 44.1865 147.077 44.1865C146.356 44.1865 145.978 44.817 145.978 45.3634L145.978 47.1917L148.142 47.1917L148.142 45.3634ZM151.07 43.0675L151.07 43.817L150.3 43.817L150.3 43.0675L151.07 43.0675Z" fill="black"/>
<path d="M147.904 217.978C147.904 217.978 148.023 216.822 149.403 216.822C150.594 216.822 151.182 217.523 151.182 218.686C151.182 219.743 150.587 220.437 149.592 220.493L149.592 219.933C150.363 219.743 150.622 219.4 150.622 218.532C150.622 217.768 150.069 217.397 149.312 217.397C148.829 217.397 148.268 217.768 148.17 218.665L147.666 218.665C147.575 218.034 147.26 217.74 146.846 217.74C146.146 217.74 145.859 218.118 145.859 218.735C145.859 219.253 146.104 219.519 146.573 219.645L146.573 220.213C145.831 220.157 145.284 219.631 145.284 218.735C145.284 217.649 145.999 217.159 146.706 217.159C147.813 217.159 147.904 217.978 147.904 217.978ZM151.182 214.516C151.245 215.392 150.699 216.324 149.802 216.324L149.802 215.721C150.111 215.721 150.629 215.392 150.601 214.586C150.58 213.781 150.027 213.375 149.165 213.375C148.471 213.375 147.988 213.788 147.981 214.544C147.974 215.294 148.289 215.56 148.598 215.623L148.598 216.17L145.396 216.17L145.396 213.024L145.971 213.024L145.971 215.63L147.876 215.63C147.876 215.63 147.449 215.392 147.449 214.488C147.449 213.473 148.184 212.835 149.165 212.835C150.65 212.835 151.119 213.683 151.182 214.516ZM151.07 207.007L146.062 208.968L151.07 208.968L151.07 209.542L145.403 209.542L145.403 208.625L150.258 206.74L145.403 204.87L145.403 203.945L151.07 203.945L151.07 204.527L146.062 204.52L151.07 206.481L151.07 207.007ZM151.07 200.645L146.062 202.606L151.07 202.606L151.07 203.18L145.403 203.18L145.403 202.263L150.258 200.378L145.403 198.508L145.403 197.583L151.07 197.583L151.07 198.165L146.062 198.158L151.07 200.119L151.07 200.645ZM149.004 189.701L149.004 189.113C150.601 189.4 151.189 190.591 151.189 191.712C151.189 193.337 150.027 194.381 148.233 194.381C147.323 194.381 146.559 194.108 146.034 193.596C145.55 193.12 145.284 192.454 145.284 191.712C145.284 190.381 146.048 189.442 147.33 189.148L147.33 189.737C146.258 190.038 145.859 190.892 145.859 191.719C145.859 192.742 146.538 193.806 148.233 193.806C149.992 193.806 150.615 192.742 150.615 191.719C150.615 190.647 150.041 189.926 149.004 189.701ZM145.291 186.116C145.291 184.498 146.419 183.447 148.24 183.447C150.412 183.447 151.189 184.827 151.189 186.116C151.189 187.741 150.034 188.785 148.24 188.785C147.323 188.785 146.566 188.512 146.034 188C145.55 187.524 145.291 186.859 145.291 186.116ZM150.615 186.116C150.615 184.806 149.76 184.029 148.24 184.029C146.475 184.029 145.866 185.093 145.866 186.116C145.866 187.146 146.538 188.211 148.24 188.211C149.992 188.211 150.615 187.146 150.615 186.116ZM145.403 182.303L150.524 182.303L150.524 179.101L151.07 179.101L151.07 182.87L145.403 182.87L145.403 182.303ZM145.291 176.553C145.291 174.934 146.419 173.884 148.24 173.884C150.412 173.884 151.189 175.264 151.189 176.553C151.189 178.178 150.034 179.222 148.24 179.222C147.323 179.222 146.566 178.948 146.034 178.437C145.55 177.961 145.291 177.295 145.291 176.553ZM150.615 176.553C150.615 175.243 149.76 174.465 148.24 174.465C146.475 174.465 145.866 175.53 145.866 176.553C145.866 177.582 146.538 178.647 148.24 178.647C149.992 178.647 150.615 177.582 150.615 176.553ZM148.598 170.371L151.077 168.991L151.077 169.664L148.598 171.03L148.598 170.371ZM147 169.11C148.191 169.11 148.534 169.951 148.598 170.371L148.598 172.291L148.598 172.725L151.077 172.725L151.077 173.306L145.41 173.306L145.403 170.967C145.403 170.252 145.81 169.11 147 169.11ZM148.023 170.855C148.023 170.077 147.722 169.685 147 169.685C146.391 169.685 145.992 170.245 145.992 170.855L145.992 172.725L148.023 172.725L148.023 170.855ZM145.403 163.545C145.403 162.341 146.265 161.689 147.077 161.689C147.89 161.689 148.724 162.326 148.724 163.538L148.724 165.262L151.077 165.262L151.077 165.843L145.403 165.843L145.403 163.545ZM148.142 163.433C148.142 162.88 147.792 162.256 147.077 162.256C146.356 162.256 145.978 162.887 145.978 163.433L145.978 165.262L148.142 165.262L148.142 163.433ZM148.598 158.283L151.077 156.903L151.077 157.576L148.598 158.942L148.598 158.283ZM147 157.023C148.191 157.023 148.534 157.863 148.598 158.283L148.598 160.203L148.598 160.637L151.077 160.637L151.077 161.219L145.41 161.219L145.403 158.879C145.403 158.164 145.81 157.023 147 157.023ZM148.023 158.767C148.023 157.989 147.722 157.597 147 157.597C146.391 157.597 145.992 158.157 145.992 158.767L145.992 160.637L148.023 160.637L148.023 158.767ZM151.07 155.815L151.07 156.389L145.403 156.389L145.403 155.815L151.07 155.815ZM151.07 151.027L146.062 154.474L151.07 154.474L151.07 155.048L145.403 155.048L145.403 154.292L150.412 150.852L145.403 150.852L145.403 150.278L151.07 150.278L151.07 151.027ZM145.957 144.463L145.957 146.838L151.07 146.838L151.07 147.412L145.957 147.412L145.957 149.78L145.403 149.78L145.403 144.463L145.957 144.463ZM148.303 138.282L148.303 140.895L151.07 140.895L151.07 141.462L145.403 141.462L145.403 137.729L145.957 137.729L145.957 140.895L147.757 140.895L147.757 138.282L148.303 138.282ZM151.07 136.763L151.07 137.337L145.403 137.337L145.403 136.763L151.07 136.763ZM145.403 135.429L150.524 135.429L150.524 132.228L151.07 132.228L151.07 135.996L145.403 135.996L145.403 135.429ZM151.07 129.329L146.062 131.29L151.07 131.29L151.07 131.864L145.403 131.864L145.403 130.947L150.258 129.062L145.403 127.192L145.403 126.267L151.07 126.267L151.07 126.849L146.062 126.842L151.07 128.803L151.07 129.329Z" fill="black"/>
<path d="M67.3703 191.401C68.1449 190.14 69.2797 189.437 70.5766 189.437C73.4407 189.437 75.278 191.689 75.278 195.183C75.278 198.408 73.3506 201.254 70.5766 201.254L70.2884 201.254L70.2884 198.21L70.5766 198.21C71.8736 198.228 72.4139 196.57 72.3959 195.328C72.3959 194.013 71.6034 192.626 70.5946 192.662C69.3698 192.716 68.6853 193.346 68.6853 196.012L66.2535 196.012C66.1815 193.814 65.4429 192.968 64.5783 192.968C63.6416 192.968 63.0652 194.301 63.0652 195.183C63.0652 196.516 63.7317 197.597 64.8305 197.597L65.1187 197.597L65.1187 200.641L64.8305 200.641C62.0565 200.641 60.1291 198.714 60.1291 195.49C60.1291 191.995 61.9844 189.744 64.8305 189.744C65.8572 189.744 66.7218 190.374 67.3703 191.401ZM75.0078 178.67L71.9996 179.805L71.9996 185.173L75.0078 186.308L75.0078 189.37L60.4353 184.02L60.4353 180.634L75.0078 175.608L75.0078 178.67ZM69.3157 184.164L69.3157 180.814L64.8845 182.489L69.3157 184.164ZM60.4353 174.888L60.4353 162.585L75.0078 162.585L75.0078 165.828L63.3534 165.828L63.3534 171.664L75.0078 171.664L75.0078 174.888L60.4353 174.888ZM60.4353 160.903L60.4353 157.841L69.9642 157.841L60.4353 150.78L60.4353 147.718L75.0078 147.718L75.0078 150.78L65.4069 150.78L75.0078 157.841L75.0078 160.903L60.4353 160.903ZM69.1356 136.042L69.1356 132.746C73.2065 133.304 75.278 136.186 75.278 139.609C75.278 143.409 72.6841 146.544 67.7126 146.544C62.8491 146.544 60.1291 143.409 60.1291 139.609C60.1291 136.168 62.2366 133.502 65.8572 132.818L65.8572 136.186C64.0379 136.564 63.1553 137.933 63.1553 139.609C63.1553 141.752 64.5963 143.409 67.7126 143.409C70.8468 143.409 72.2698 141.77 72.2698 139.609C72.2698 137.789 71.2611 136.276 69.1356 136.042ZM66.3076 125.651C66.3076 121.292 68.289 119.851 70.7387 119.851C74.5215 119.851 75.0078 123.309 75.0078 126.371L75.0078 131.685L60.4353 131.685L60.4353 128.461L66.3076 128.461L66.3076 125.651ZM70.6847 122.895L70.2884 122.895C69.3337 122.895 68.5592 123.831 68.5592 125.272L68.5592 128.407L72.414 128.407L72.414 125.272C72.414 123.831 71.6394 122.895 70.6847 122.895ZM75.0078 112.344L62.1466 112.344L62.1466 109.444L71.2972 104.995L71.2972 104.833C70.9969 104.857 70.6427 104.887 70.2344 104.923C69.8141 104.959 69.3878 104.989 68.9555 105.013C68.5111 105.037 68.1089 105.049 67.7486 105.049L62.1466 105.049L62.1466 102.707L75.0078 102.707L75.0078 105.59L65.8032 110.075L65.8032 110.201C66.1274 110.165 66.5177 110.135 66.974 110.111C67.4184 110.075 67.8627 110.045 68.307 110.021C68.7513 109.997 69.1416 109.985 69.4778 109.985L75.0078 109.985L75.0078 112.344ZM75.0078 101.483L73.3506 101.483L73.3506 95.8625L75.0078 95.8625L75.0078 101.483ZM72.5941 98.6905C72.5941 99.2669 72.468 99.7773 72.2158 100.222C71.9636 100.666 71.6034 101.02 71.135 101.284C70.6547 101.537 70.0723 101.663 69.3878 101.663C68.367 101.663 67.5805 101.392 67.0281 100.852C66.4757 100.312 66.1995 99.5792 66.1995 98.6545C66.1995 98.0901 66.3256 97.5857 66.5778 97.1414C66.8179 96.6851 67.1782 96.3308 67.6585 96.0787C68.1269 95.8145 68.7033 95.6824 69.3878 95.6824C70.4085 95.6824 71.2011 95.9526 71.7655 96.4929C72.3179 97.0333 72.5941 97.7659 72.5941 98.6905ZM71.1531 98.6725C71.1531 98.2522 71.0089 97.952 70.7207 97.7719C70.4205 97.5797 69.9762 97.4837 69.3878 97.4837C68.7994 97.4837 68.361 97.5797 68.0728 97.7719C67.7846 97.952 67.6405 98.2522 67.6405 98.6725C67.6405 99.0928 67.7846 99.399 68.0728 99.5912C68.361 99.7833 68.7994 99.8794 69.3878 99.8794C69.9762 99.8794 70.4205 99.7833 70.7207 99.5912C71.0089 99.399 71.1531 99.0928 71.1531 98.6725ZM65.1187 89.0478C65.1187 86.2918 67.2082 84.4725 69.8561 84.4725C73.801 84.4725 75.278 87.0124 75.278 89.1559C75.278 93.1007 73.0084 94.1275 71.135 94.4517L71.063 94.4517L71.063 91.3535L71.099 91.3535C72.1618 91.0833 72.6301 90.3808 72.6301 89.4441C72.6301 88.0211 71.6394 87.2285 69.8561 87.2285C68.6853 87.2285 67.2983 87.6788 67.2983 89.336C67.2983 90.4708 67.7846 90.9392 68.7934 91.2454L68.7753 93.8573L60.4533 93.8573L60.4533 85.085L63.3895 85.085L63.3895 91.0112L65.6771 91.0112C65.2808 90.3628 65.1187 89.9485 65.1187 89.0478ZM60.4353 73.6807L63.3174 73.6807C65.9473 76.5627 70.9549 78.6522 74.8637 78.6522L75.0078 78.6522L75.0078 81.6424L74.8637 81.6424C71.135 81.6424 66.5597 80.0753 63.3174 77.1932L63.3174 83.7679L60.4353 83.7679L60.4353 73.6807ZM66.8299 70.0033C64.0379 67.7157 65.7492 62.2397 70.2704 62.2397C74.8998 62.2397 75.278 65.6442 75.278 67.1032C75.278 69.481 74.9538 72.8314 68.271 72.8314C63.8398 72.8314 60.1471 71.5885 60.1471 67.5355C60.1471 62.9242 64.146 62.672 64.146 62.672L64.146 65.6802C63.6416 65.8243 63.0112 66.1485 63.0292 67.4815C63.0652 68.9225 64.5063 69.8952 66.8299 70.0033ZM72.6842 67.1393C72.6842 65.9324 71.8556 64.9237 70.2704 64.9237C68.7393 64.9237 67.8387 65.8784 67.8387 67.1393C67.8387 68.3641 68.7213 69.3729 70.2704 69.3729C71.8556 69.3729 72.6842 68.3641 72.6842 67.1393Z" fill="white"/>
<defs>
<linearGradient id="paint0_linear_1250_10847" x1="720" y1="39.5182" x2="-9.29799e-06" y2="39.518" gradientUnits="userSpaceOnUse">
<stop stop-color="#FD4B28" stop-opacity="0"/>
<stop offset="0.488585" stop-color="#FD4B28"/>
<stop offset="1" stop-color="#FD4B28" stop-opacity="0"/>
</linearGradient>
<linearGradient id="paint1_linear_1250_10847" x1="720" y1="39.5182" x2="-9.29799e-06" y2="39.518" gradientUnits="userSpaceOnUse">
<stop stop-color="#FD4B28" stop-opacity="0"/>
<stop offset="0.488585" stop-color="#FD4B28"/>
<stop offset="1" stop-color="#FD4B28" stop-opacity="0"/>
</linearGradient>
<linearGradient id="paint2_linear_1250_10847" x1="720" y1="39.5182" x2="-9.29799e-06" y2="39.518" gradientUnits="userSpaceOnUse">
<stop stop-color="#FD4B28" stop-opacity="0"/>
<stop offset="0.488585" stop-color="#FD4B28"/>
<stop offset="1" stop-color="#FD4B28" stop-opacity="0"/>
</linearGradient>
<linearGradient id="paint3_linear_1250_10847" x1="720" y1="39.5182" x2="-9.29799e-06" y2="39.518" gradientUnits="userSpaceOnUse">
<stop stop-color="#FD4B28" stop-opacity="0"/>
<stop offset="0.488585" stop-color="#FD4B28"/>
<stop offset="1" stop-color="#FD4B28" stop-opacity="0"/>
</linearGradient>
<linearGradient id="paint4_linear_1250_10847" x1="720" y1="39.5182" x2="-9.29799e-06" y2="39.518" gradientUnits="userSpaceOnUse">
<stop stop-color="#FD4B28" stop-opacity="0"/>
<stop offset="0.488585" stop-color="#FD4B28"/>
<stop offset="1" stop-color="#FD4B28" stop-opacity="0"/>
</linearGradient>
<linearGradient id="paint5_linear_1250_10847" x1="720" y1="39.5182" x2="-9.29799e-06" y2="39.518" gradientUnits="userSpaceOnUse">
<stop stop-color="#FD4B28" stop-opacity="0"/>
<stop offset="0.488585" stop-color="#FD4B28"/>
<stop offset="1" stop-color="#FD4B28" stop-opacity="0"/>
</linearGradient>
<linearGradient id="paint6_linear_1250_10847" x1="720" y1="39.5182" x2="-9.29799e-06" y2="39.518" gradientUnits="userSpaceOnUse">
<stop stop-color="#FD4B28" stop-opacity="0"/>
<stop offset="0.488585" stop-color="#FD4B28"/>
<stop offset="1" stop-color="#FD4B28" stop-opacity="0"/>
</linearGradient>
<linearGradient id="paint7_linear_1250_10847" x1="720" y1="39.5182" x2="-9.29799e-06" y2="39.518" gradientUnits="userSpaceOnUse">
<stop stop-color="#FD4B28" stop-opacity="0"/>
<stop offset="0.488585" stop-color="#FD4B28"/>
<stop offset="1" stop-color="#FD4B28" stop-opacity="0"/>
</linearGradient>
<linearGradient id="paint8_linear_1250_10847" x1="720" y1="39.5182" x2="-9.29799e-06" y2="39.518" gradientUnits="userSpaceOnUse">
<stop stop-color="#FD4B28" stop-opacity="0"/>
<stop offset="0.488585" stop-color="#FD4B28"/>
<stop offset="1" stop-color="#FD4B28" stop-opacity="0"/>
</linearGradient>
<linearGradient id="paint9_linear_1250_10847" x1="720" y1="39.5182" x2="-9.29799e-06" y2="39.518" gradientUnits="userSpaceOnUse">
<stop stop-color="#FD4B28" stop-opacity="0"/>
<stop offset="0.488585" stop-color="#FD4B28"/>
<stop offset="1" stop-color="#FD4B28" stop-opacity="0"/>
</linearGradient>
<linearGradient id="paint10_linear_1250_10847" x1="720" y1="39.5182" x2="-9.29799e-06" y2="39.518" gradientUnits="userSpaceOnUse">
<stop stop-color="#FD4B28" stop-opacity="0"/>
<stop offset="0.488585" stop-color="#FD4B28"/>
<stop offset="1" stop-color="#FD4B28" stop-opacity="0"/>
</linearGradient>
<linearGradient id="paint11_linear_1250_10847" x1="720" y1="39.5182" x2="-9.29799e-06" y2="39.518" gradientUnits="userSpaceOnUse">
<stop stop-color="#FD4B28" stop-opacity="0"/>
<stop offset="0.488585" stop-color="#FD4B28"/>
<stop offset="1" stop-color="#FD4B28" stop-opacity="0"/>
</linearGradient>
<linearGradient id="paint12_linear_1250_10847" x1="720" y1="39.5182" x2="-9.29799e-06" y2="39.518" gradientUnits="userSpaceOnUse">
<stop stop-color="#FD4B28" stop-opacity="0"/>
<stop offset="0.488585" stop-color="#FD4B28"/>
<stop offset="1" stop-color="#FD4B28" stop-opacity="0"/>
</linearGradient>
<linearGradient id="paint13_linear_1250_10847" x1="720" y1="39.5182" x2="-9.29799e-06" y2="39.518" gradientUnits="userSpaceOnUse">
<stop stop-color="#FD4B28" stop-opacity="0"/>
<stop offset="0.488585" stop-color="#FD4B28"/>
<stop offset="1" stop-color="#FD4B28" stop-opacity="0"/>
</linearGradient>
<linearGradient id="paint14_linear_1250_10847" x1="720" y1="39.5182" x2="-9.29799e-06" y2="39.518" gradientUnits="userSpaceOnUse">
<stop stop-color="#FD4B28" stop-opacity="0"/>
<stop offset="0.488585" stop-color="#FD4B28"/>
<stop offset="1" stop-color="#FD4B28" stop-opacity="0"/>
</linearGradient>
<linearGradient id="paint15_linear_1250_10847" x1="720" y1="39.5182" x2="-9.29799e-06" y2="39.518" gradientUnits="userSpaceOnUse">
<stop stop-color="#FD4B28" stop-opacity="0"/>
<stop offset="0.488585" stop-color="#FD4B28"/>
<stop offset="1" stop-color="#FD4B28" stop-opacity="0"/>
</linearGradient>
<linearGradient id="paint16_linear_1250_10847" x1="720" y1="39.5182" x2="-9.29799e-06" y2="39.518" gradientUnits="userSpaceOnUse">
<stop stop-color="#FD4B28" stop-opacity="0"/>
<stop offset="0.488585" stop-color="#FD4B28"/>
<stop offset="1" stop-color="#FD4B28" stop-opacity="0"/>
</linearGradient>
<linearGradient id="paint17_linear_1250_10847" x1="720" y1="39.5182" x2="-9.29799e-06" y2="39.518" gradientUnits="userSpaceOnUse">
<stop stop-color="#FD4B28" stop-opacity="0"/>
<stop offset="0.488585" stop-color="#FD4B28"/>
<stop offset="1" stop-color="#FD4B28" stop-opacity="0"/>
</linearGradient>
</defs>
</svg>
