<svg width="93" height="34" viewBox="0 0 93 34" fill="none" xmlns="http://www.w3.org/2000/svg">
<path d="M91.3445 32.6206V1H16.8103C11.5402 1 1 5.35082 1 16.8103C1 28.1034 10.7873 32.6206 16.8103 32.6206H91.3445Z" fill="#FD4B28"/>
<path d="M70.002 17.2543V9.25427V8.75427H55.5019M70.002 17.2543V25.2543H55.5019M70.002 17.2543H27.0019M27.0019 17.2543V25.2543H41.0019M27.0019 17.2543V8.75427H41.0019M41.0019 8.75427V25.2543M41.0019 8.75427H55.5019M41.0019 25.2543H55.5019M55.5019 25.2543V8.75427M91.3445 1V32.6206H16.8103C10.7873 32.6206 1 28.1034 1 16.8103C1 5.35082 11.5402 1 16.8103 1H91.3445Z" stroke="white" stroke-width="1.50574"/>
</svg>
