<svg width="325" height="76" viewBox="0 0 325 76" fill="none" xmlns="http://www.w3.org/2000/svg">
<rect x="0.338017" y="0.338017" width="324.324" height="75.324" rx="3.04215" stroke="white" stroke-width="0.676034"/>
<path d="M93.2833 35.537H82.7958V46.6431H80.5183V23.8966H95.5045V26.1178H82.7958V33.3438H93.2833V35.537ZM112.399 38.2362V23.8685H114.733V37.8144C114.733 41.0197 113.636 47.0929 105.763 47.0929C97.9188 47.0929 96.8223 41.0197 96.8223 37.8144V23.8685H99.1279V38.2362C99.1279 42.285 101.349 44.7874 105.763 44.7874C110.206 44.7874 112.399 42.2569 112.399 38.2362ZM119.809 23.8966V44.45H132.658V46.6431H117.531V23.8966H119.809ZM136.393 23.8966V44.45H149.243V46.6431H134.116V23.8966H136.393ZM171.45 46.6431L163.577 26.5396V46.6431H161.272V23.8966H164.955L172.518 43.3815L180.025 23.8966H183.737V46.6431H181.403L181.431 26.5396L173.559 46.6431H171.45ZM189.085 26.1178V33.3438H200.022V35.5651L189.085 35.5088V44.45H202.075V46.6431H186.807V23.8966H202.075V26.1178H189.085ZM221.288 46.6431L207.455 26.5396V46.6431H205.149V23.8966H208.186L221.991 44.0001V23.8966H224.297V46.6431H221.288ZM242.686 38.2362V23.8685H245.02V37.8144C245.02 41.0197 243.923 47.0929 236.05 47.0929C228.206 47.0929 227.109 41.0197 227.109 37.8144V23.8685H229.415V38.2362C229.415 42.285 231.636 44.7874 236.05 44.7874C240.493 44.7874 242.686 42.2569 242.686 38.2362Z" fill="white"/>
</svg>
