<svg width="93" height="34" viewBox="0 0 93 34" fill="none" xmlns="http://www.w3.org/2000/svg">
<path d="M1 32.6206V1H76.2871C81.5572 1 91.3446 5.36666 91.3446 16.8103C91.3446 28.2539 81.5572 32.6206 76.2871 32.6206H1Z" fill="#FD4B28"/>
<path d="M42.6057 13.7988V25.2904M42.6057 13.7988H47.3557M42.6057 13.7988H37.8557M42.6057 25.2904H45.8557M42.6057 25.2904H39.3557M45.8557 25.2904H49.1057L52.1057 13.7988H47.3557M45.8557 25.2904L47.3557 13.7988M37.8557 13.7988H33.1057L36.1057 25.2904H39.3557M37.8557 13.7988L39.3557 25.2904M33.1057 10.7904V8.29041L52.1057 5.29041M1 1V32.6206H76.2871C81.5572 32.6206 91.3446 28.2539 91.3446 16.8103C91.3446 5.36666 81.5572 1 76.2871 1H1Z" stroke="white" stroke-width="1.50574"/>
</svg>
