<svg width="481" height="358" viewBox="0 0 481 358" fill="none" xmlns="http://www.w3.org/2000/svg">
<mask id="mask0_1250_10036" style="mask-type:alpha" maskUnits="userSpaceOnUse" x="0" y="-1" width="481" height="360">
<rect x="0.5" y="-0.5" width="480" height="359" fill="#D9D9D9" stroke="white"/>
</mask>
<g mask="url(#mask0_1250_10036)">
<rect x="73.0312" width="22.375" height="22.375" fill="#D9D9D9"/>
<rect x="73.0312" y="44.75" width="22.375" height="22.375" fill="#D9D9D9"/>
<rect x="73.0312" y="89.5" width="22.375" height="22.375" fill="#D9D9D9"/>
<rect x="73.0312" y="223.75" width="22.375" height="22.375" fill="#D9D9D9"/>
<rect x="73.0312" y="134.25" width="22.375" height="22.375" fill="#D9D9D9"/>
<rect x="73.0312" y="268.5" width="22.375" height="22.375" fill="#D9D9D9"/>
<rect x="73.0312" y="179" width="22.375" height="22.375" fill="#D9D9D9"/>
<rect x="73.0312" y="313.25" width="22.375" height="22.375" fill="#D9D9D9"/>
<rect x="50.8809" y="22.375" width="22.375" height="22.375" fill="#D9D9D9"/>
<rect x="50.8809" y="67.125" width="22.375" height="22.375" fill="#D9D9D9"/>
<rect x="50.8809" y="111.875" width="22.375" height="22.375" fill="#D9D9D9"/>
<rect x="50.8809" y="246.125" width="22.375" height="22.375" fill="#D9D9D9"/>
<rect x="50.8809" y="156.625" width="22.375" height="22.375" fill="#D9D9D9"/>
<rect x="50.8809" y="290.875" width="22.375" height="22.375" fill="#D9D9D9"/>
<rect x="50.8809" y="201.375" width="22.375" height="22.375" fill="#D9D9D9"/>
<rect x="50.8809" y="335.625" width="22.375" height="22.375" fill="#D9D9D9"/>
<rect x="117.559" width="22.375" height="22.375" fill="#D9D9D9"/>
<rect x="117.559" y="44.75" width="22.375" height="22.375" fill="#D9D9D9"/>
<rect x="117.559" y="89.5" width="22.375" height="22.375" fill="#D9D9D9"/>
<rect x="117.559" y="223.75" width="22.375" height="22.375" fill="#D9D9D9"/>
<rect x="117.559" y="134.25" width="22.375" height="22.375" fill="#D9D9D9"/>
<rect x="117.559" y="268.5" width="22.375" height="22.375" fill="#D9D9D9"/>
<rect x="117.559" y="179" width="22.375" height="22.375" fill="#D9D9D9"/>
<rect x="117.559" y="313.25" width="22.375" height="22.375" fill="#D9D9D9"/>
<rect x="95.4062" y="22.375" width="22.375" height="22.375" fill="#D9D9D9"/>
<rect x="95.4062" y="67.125" width="22.375" height="22.375" fill="#D9D9D9"/>
<rect x="95.4062" y="111.875" width="22.375" height="22.375" fill="#D9D9D9"/>
<rect x="95.4062" y="246.125" width="22.375" height="22.375" fill="#D9D9D9"/>
<rect x="95.4062" y="156.625" width="22.375" height="22.375" fill="#D9D9D9"/>
<rect x="95.4062" y="290.875" width="22.375" height="22.375" fill="#D9D9D9"/>
<rect x="95.4062" y="201.375" width="22.375" height="22.375" fill="#D9D9D9"/>
<rect x="95.4062" y="335.625" width="22.375" height="22.375" fill="#D9D9D9"/>
<rect x="-15.7969" width="22.375" height="22.375" fill="#D9D9D9"/>
<rect x="162.086" width="22.375" height="22.375" fill="#D9D9D9"/>
<rect x="-15.7969" y="44.75" width="22.375" height="22.375" fill="#D9D9D9"/>
<rect x="162.086" y="44.75" width="22.375" height="22.375" fill="#D9D9D9"/>
<rect x="-15.7969" y="89.5" width="22.375" height="22.375" fill="#D9D9D9"/>
<rect x="-15.7969" y="223.75" width="22.375" height="22.375" fill="#D9D9D9"/>
<rect x="162.086" y="89.5" width="22.375" height="22.375" fill="#D9D9D9"/>
<rect x="162.086" y="223.75" width="22.375" height="22.375" fill="#D9D9D9"/>
<rect x="-15.7969" y="134.25" width="22.375" height="22.375" fill="#D9D9D9"/>
<rect x="-15.7969" y="268.5" width="22.375" height="22.375" fill="#D9D9D9"/>
<rect x="162.086" y="134.25" width="22.375" height="22.375" fill="#D9D9D9"/>
<rect x="162.086" y="268.5" width="22.375" height="22.375" fill="#D9D9D9"/>
<rect x="-15.7969" y="179" width="22.375" height="22.375" fill="#D9D9D9"/>
<rect x="-15.7969" y="313.25" width="22.375" height="22.375" fill="#D9D9D9"/>
<rect x="162.086" y="179" width="22.375" height="22.375" fill="#D9D9D9"/>
<rect x="162.086" y="313.25" width="22.375" height="22.375" fill="#D9D9D9"/>
<rect x="139.934" y="22.375" width="22.375" height="22.375" fill="#D9D9D9"/>
<rect x="139.934" y="67.125" width="22.375" height="22.375" fill="#D9D9D9"/>
<rect x="139.934" y="111.875" width="22.375" height="22.375" fill="#D9D9D9"/>
<rect x="139.934" y="246.125" width="22.375" height="22.375" fill="#D9D9D9"/>
<rect x="139.934" y="156.625" width="22.375" height="22.375" fill="#D9D9D9"/>
<rect x="139.934" y="290.875" width="22.375" height="22.375" fill="#D9D9D9"/>
<rect x="139.934" y="201.375" width="22.375" height="22.375" fill="#D9D9D9"/>
<rect x="139.934" y="335.625" width="22.375" height="22.375" fill="#D9D9D9"/>
<rect x="28.7305" width="22.375" height="22.375" fill="#D9D9D9"/>
<rect x="206.611" width="22.375" height="22.375" fill="#D9D9D9"/>
<rect x="28.7305" y="44.75" width="22.375" height="22.375" fill="#D9D9D9"/>
<rect x="206.611" y="44.75" width="22.375" height="22.375" fill="#D9D9D9"/>
<rect x="28.7305" y="89.5" width="22.375" height="22.375" fill="#D9D9D9"/>
<rect x="28.7305" y="223.75" width="22.375" height="22.375" fill="#D9D9D9"/>
<rect x="206.611" y="89.5" width="22.375" height="22.375" fill="#D9D9D9"/>
<rect x="206.611" y="223.75" width="22.375" height="22.375" fill="#D9D9D9"/>
<rect x="28.7305" y="134.25" width="22.375" height="22.375" fill="#D9D9D9"/>
<rect x="28.7305" y="268.5" width="22.375" height="22.375" fill="#D9D9D9"/>
<rect x="206.611" y="134.25" width="22.375" height="22.375" fill="#D9D9D9"/>
<rect x="206.611" y="268.5" width="22.375" height="22.375" fill="#D9D9D9"/>
<rect x="28.7305" y="179" width="22.375" height="22.375" fill="#D9D9D9"/>
<rect x="28.7305" y="313.25" width="22.375" height="22.375" fill="#D9D9D9"/>
<rect x="206.611" y="179" width="22.375" height="22.375" fill="#D9D9D9"/>
<rect x="206.611" y="313.25" width="22.375" height="22.375" fill="#D9D9D9"/>
<rect x="6.57812" y="22.375" width="22.375" height="22.375" fill="#D9D9D9"/>
<rect x="184.461" y="22.375" width="22.375" height="22.375" fill="#D9D9D9"/>
<rect x="6.57812" y="67.125" width="22.375" height="22.375" fill="#D9D9D9"/>
<rect x="184.461" y="67.125" width="22.375" height="22.375" fill="#D9D9D9"/>
<rect x="6.57812" y="111.875" width="22.375" height="22.375" fill="#D9D9D9"/>
<rect x="6.57812" y="246.125" width="22.375" height="22.375" fill="#D9D9D9"/>
<rect x="184.461" y="111.875" width="22.375" height="22.375" fill="#D9D9D9"/>
<rect x="184.461" y="246.125" width="22.375" height="22.375" fill="#D9D9D9"/>
<rect x="6.57812" y="156.625" width="22.375" height="22.375" fill="#D9D9D9"/>
<rect x="6.57812" y="290.875" width="22.375" height="22.375" fill="#D9D9D9"/>
<rect x="184.461" y="156.625" width="22.375" height="22.375" fill="#D9D9D9"/>
<rect x="184.461" y="290.875" width="22.375" height="22.375" fill="#D9D9D9"/>
<rect x="6.57812" y="201.375" width="22.375" height="22.375" fill="#D9D9D9"/>
<rect x="6.57812" y="335.625" width="22.375" height="22.375" fill="#D9D9D9"/>
<rect x="184.461" y="201.375" width="22.375" height="22.375" fill="#D9D9D9"/>
<rect x="184.461" y="335.625" width="22.375" height="22.375" fill="#D9D9D9"/>
<rect x="95.1836" width="22.375" height="22.375" fill="white"/>
<rect x="95.1836" y="44.75" width="22.375" height="22.375" fill="white"/>
<rect x="95.1836" y="89.5" width="22.375" height="22.375" fill="white"/>
<rect x="95.1836" y="223.75" width="22.375" height="22.375" fill="white"/>
<rect x="95.1836" y="134.25" width="22.375" height="22.375" fill="white"/>
<rect x="95.1836" y="268.5" width="22.375" height="22.375" fill="white"/>
<rect x="95.1836" y="179" width="22.375" height="22.375" fill="white"/>
<rect x="95.1836" y="313.25" width="22.375" height="22.375" fill="white"/>
<rect x="73.0312" y="22.375" width="22.375" height="22.375" fill="white"/>
<rect x="73.0312" y="67.125" width="22.375" height="22.375" fill="white"/>
<rect x="73.0312" y="111.875" width="22.375" height="22.375" fill="white"/>
<rect x="73.0312" y="246.125" width="22.375" height="22.375" fill="white"/>
<rect x="73.0312" y="156.625" width="22.375" height="22.375" fill="white"/>
<rect x="73.0312" y="290.875" width="22.375" height="22.375" fill="white"/>
<rect x="73.0312" y="201.375" width="22.375" height="22.375" fill="white"/>
<rect x="73.0312" y="335.625" width="22.375" height="22.375" fill="white"/>
<rect x="139.711" width="22.375" height="22.375" fill="white"/>
<rect x="139.711" y="44.75" width="22.375" height="22.375" fill="white"/>
<rect x="139.711" y="89.5" width="22.375" height="22.375" fill="white"/>
<rect x="139.711" y="223.75" width="22.375" height="22.375" fill="white"/>
<rect x="139.711" y="134.25" width="22.375" height="22.375" fill="white"/>
<rect x="139.711" y="268.5" width="22.375" height="22.375" fill="white"/>
<rect x="139.711" y="179" width="22.375" height="22.375" fill="white"/>
<rect x="139.711" y="313.25" width="22.375" height="22.375" fill="white"/>
<rect x="117.559" y="22.375" width="22.375" height="22.375" fill="white"/>
<rect x="117.559" y="67.125" width="22.375" height="22.375" fill="white"/>
<rect x="117.559" y="111.875" width="22.375" height="22.375" fill="white"/>
<rect x="117.559" y="246.125" width="22.375" height="22.375" fill="white"/>
<rect x="117.559" y="156.625" width="22.375" height="22.375" fill="white"/>
<rect x="117.559" y="290.875" width="22.375" height="22.375" fill="white"/>
<rect x="117.559" y="201.375" width="22.375" height="22.375" fill="white"/>
<rect x="117.559" y="335.625" width="22.375" height="22.375" fill="white"/>
<rect x="6.35547" width="22.375" height="22.375" fill="white"/>
<rect x="184.236" width="22.375" height="22.375" fill="white"/>
<rect x="6.35547" y="44.75" width="22.375" height="22.375" fill="white"/>
<rect x="184.236" y="44.75" width="22.375" height="22.375" fill="white"/>
<rect x="6.35547" y="89.5" width="22.375" height="22.375" fill="white"/>
<rect x="6.35547" y="223.75" width="22.375" height="22.375" fill="white"/>
<rect x="184.236" y="89.5" width="22.375" height="22.375" fill="white"/>
<rect x="184.236" y="223.75" width="22.375" height="22.375" fill="white"/>
<rect x="6.35547" y="134.25" width="22.375" height="22.375" fill="white"/>
<rect x="6.35547" y="268.5" width="22.375" height="22.375" fill="white"/>
<rect x="184.236" y="134.25" width="22.375" height="22.375" fill="white"/>
<rect x="184.236" y="268.5" width="22.375" height="22.375" fill="white"/>
<rect x="6.35547" y="179" width="22.375" height="22.375" fill="white"/>
<rect x="6.35547" y="313.25" width="22.375" height="22.375" fill="white"/>
<rect x="184.236" y="179" width="22.375" height="22.375" fill="white"/>
<rect x="184.236" y="313.25" width="22.375" height="22.375" fill="white"/>
<rect x="-15.7969" y="22.375" width="22.375" height="22.375" fill="white"/>
<rect x="162.086" y="22.375" width="22.375" height="22.375" fill="white"/>
<rect x="-15.7969" y="67.125" width="22.375" height="22.375" fill="white"/>
<rect x="162.086" y="67.125" width="22.375" height="22.375" fill="white"/>
<rect x="-15.7969" y="111.875" width="22.375" height="22.375" fill="white"/>
<rect x="-15.7969" y="246.125" width="22.375" height="22.375" fill="white"/>
<rect x="162.086" y="111.875" width="22.375" height="22.375" fill="white"/>
<rect x="162.086" y="246.125" width="22.375" height="22.375" fill="white"/>
<rect x="-15.7969" y="156.625" width="22.375" height="22.375" fill="white"/>
<rect x="-15.7969" y="290.875" width="22.375" height="22.375" fill="white"/>
<rect x="162.086" y="156.625" width="22.375" height="22.375" fill="white"/>
<rect x="162.086" y="290.875" width="22.375" height="22.375" fill="white"/>
<rect x="-15.7969" y="201.375" width="22.375" height="22.375" fill="white"/>
<rect x="-15.7969" y="335.625" width="22.375" height="22.375" fill="white"/>
<rect x="162.086" y="201.375" width="22.375" height="22.375" fill="white"/>
<rect x="162.086" y="335.625" width="22.375" height="22.375" fill="white"/>
<rect x="50.8809" width="22.375" height="22.375" fill="white"/>
<rect x="228.762" width="22.375" height="22.375" fill="white"/>
<rect x="50.8809" y="44.75" width="22.375" height="22.375" fill="white"/>
<rect x="228.762" y="44.75" width="22.375" height="22.375" fill="white"/>
<rect x="50.8809" y="89.5" width="22.375" height="22.375" fill="white"/>
<rect x="50.8809" y="223.75" width="22.375" height="22.375" fill="white"/>
<rect x="228.762" y="89.5" width="22.375" height="22.375" fill="white"/>
<rect x="228.762" y="223.75" width="22.375" height="22.375" fill="white"/>
<rect x="50.8809" y="134.25" width="22.375" height="22.375" fill="white"/>
<rect x="50.8809" y="268.5" width="22.375" height="22.375" fill="white"/>
<rect x="228.762" y="134.25" width="22.375" height="22.375" fill="white"/>
<rect x="228.762" y="268.5" width="22.375" height="22.375" fill="white"/>
<rect x="50.8809" y="179" width="22.375" height="22.375" fill="white"/>
<rect x="50.8809" y="313.25" width="22.375" height="22.375" fill="white"/>
<rect x="228.762" y="179" width="22.375" height="22.375" fill="white"/>
<rect x="228.762" y="313.25" width="22.375" height="22.375" fill="white"/>
<rect x="28.7305" y="22.375" width="22.375" height="22.375" fill="white"/>
<rect x="206.611" y="22.375" width="22.375" height="22.375" fill="white"/>
<rect x="28.7305" y="67.125" width="22.375" height="22.375" fill="white"/>
<rect x="206.611" y="67.125" width="22.375" height="22.375" fill="white"/>
<rect x="28.7305" y="111.875" width="22.375" height="22.375" fill="white"/>
<rect x="28.7305" y="246.125" width="22.375" height="22.375" fill="white"/>
<rect x="206.611" y="111.875" width="22.375" height="22.375" fill="white"/>
<rect x="206.611" y="246.125" width="22.375" height="22.375" fill="white"/>
<rect x="28.7305" y="156.625" width="22.375" height="22.375" fill="white"/>
<rect x="28.7305" y="290.875" width="22.375" height="22.375" fill="white"/>
<rect x="206.611" y="156.625" width="22.375" height="22.375" fill="white"/>
<rect x="206.611" y="290.875" width="22.375" height="22.375" fill="white"/>
<rect x="28.7305" y="201.375" width="22.375" height="22.375" fill="white"/>
<rect x="28.7305" y="335.625" width="22.375" height="22.375" fill="white"/>
<rect x="206.611" y="201.375" width="22.375" height="22.375" fill="white"/>
<rect x="206.611" y="335.625" width="22.375" height="22.375" fill="white"/>
<rect x="251.287" width="22.375" height="22.375" fill="#D9D9D9"/>
<rect x="429.17" width="22.375" height="22.375" fill="#D9D9D9"/>
<rect x="251.287" y="44.75" width="22.375" height="22.375" fill="#D9D9D9"/>
<rect x="429.17" y="44.75" width="22.375" height="22.375" fill="#D9D9D9"/>
<rect x="251.287" y="89.5" width="22.375" height="22.375" fill="#D9D9D9"/>
<rect x="251.287" y="223.75" width="22.375" height="22.375" fill="#D9D9D9"/>
<rect x="429.17" y="89.5" width="22.375" height="22.375" fill="#D9D9D9"/>
<rect x="429.17" y="223.75" width="22.375" height="22.375" fill="#D9D9D9"/>
<rect x="251.287" y="134.25" width="22.375" height="22.375" fill="#D9D9D9"/>
<rect x="251.287" y="268.5" width="22.375" height="22.375" fill="#D9D9D9"/>
<rect x="429.17" y="134.25" width="22.375" height="22.375" fill="#D9D9D9"/>
<rect x="429.17" y="268.5" width="22.375" height="22.375" fill="#D9D9D9"/>
<rect x="251.287" y="179" width="22.375" height="22.375" fill="#D9D9D9"/>
<rect x="251.287" y="313.25" width="22.375" height="22.375" fill="#D9D9D9"/>
<rect x="429.17" y="179" width="22.375" height="22.375" fill="#D9D9D9"/>
<rect x="429.17" y="313.25" width="22.375" height="22.375" fill="#D9D9D9"/>
<rect x="229.137" y="22.375" width="22.375" height="22.375" fill="#D9D9D9"/>
<rect x="407.018" y="22.375" width="22.375" height="22.375" fill="#D9D9D9"/>
<rect x="229.137" y="67.125" width="22.375" height="22.375" fill="#D9D9D9"/>
<rect x="407.018" y="67.125" width="22.375" height="22.375" fill="#D9D9D9"/>
<rect x="229.137" y="111.875" width="22.375" height="22.375" fill="#D9D9D9"/>
<rect x="229.137" y="246.125" width="22.375" height="22.375" fill="#D9D9D9"/>
<rect x="407.018" y="111.875" width="22.375" height="22.375" fill="#D9D9D9"/>
<rect x="407.018" y="246.125" width="22.375" height="22.375" fill="#D9D9D9"/>
<rect x="229.137" y="156.625" width="22.375" height="22.375" fill="#D9D9D9"/>
<rect x="229.137" y="290.875" width="22.375" height="22.375" fill="#D9D9D9"/>
<rect x="407.018" y="156.625" width="22.375" height="22.375" fill="#D9D9D9"/>
<rect x="407.018" y="290.875" width="22.375" height="22.375" fill="#D9D9D9"/>
<rect x="229.137" y="201.375" width="22.375" height="22.375" fill="#D9D9D9"/>
<rect x="229.137" y="335.625" width="22.375" height="22.375" fill="#D9D9D9"/>
<rect x="407.018" y="201.375" width="22.375" height="22.375" fill="#D9D9D9"/>
<rect x="407.018" y="335.625" width="22.375" height="22.375" fill="#D9D9D9"/>
<rect x="295.814" width="22.375" height="22.375" fill="#D9D9D9"/>
<rect x="473.695" width="22.375" height="22.375" fill="#D9D9D9"/>
<rect x="295.814" y="44.75" width="22.375" height="22.375" fill="#D9D9D9"/>
<rect x="473.695" y="44.75" width="22.375" height="22.375" fill="#D9D9D9"/>
<rect x="295.814" y="89.5" width="22.375" height="22.375" fill="#D9D9D9"/>
<rect x="295.814" y="223.75" width="22.375" height="22.375" fill="#D9D9D9"/>
<rect x="473.695" y="89.5" width="22.375" height="22.375" fill="#D9D9D9"/>
<rect x="473.695" y="223.75" width="22.375" height="22.375" fill="#D9D9D9"/>
<rect x="295.814" y="134.25" width="22.375" height="22.375" fill="#D9D9D9"/>
<rect x="295.814" y="268.5" width="22.375" height="22.375" fill="#D9D9D9"/>
<rect x="473.695" y="134.25" width="22.375" height="22.375" fill="#D9D9D9"/>
<rect x="473.695" y="268.5" width="22.375" height="22.375" fill="#D9D9D9"/>
<rect x="295.814" y="179" width="22.375" height="22.375" fill="#D9D9D9"/>
<rect x="295.814" y="313.25" width="22.375" height="22.375" fill="#D9D9D9"/>
<rect x="473.695" y="179" width="22.375" height="22.375" fill="#D9D9D9"/>
<rect x="473.695" y="313.25" width="22.375" height="22.375" fill="#D9D9D9"/>
<rect x="273.662" y="22.375" width="22.375" height="22.375" fill="#D9D9D9"/>
<rect x="451.545" y="22.375" width="22.375" height="22.375" fill="#D9D9D9"/>
<rect x="273.662" y="67.125" width="22.375" height="22.375" fill="#D9D9D9"/>
<rect x="451.545" y="67.125" width="22.375" height="22.375" fill="#D9D9D9"/>
<rect x="273.662" y="111.875" width="22.375" height="22.375" fill="#D9D9D9"/>
<rect x="273.662" y="246.125" width="22.375" height="22.375" fill="#D9D9D9"/>
<rect x="451.545" y="111.875" width="22.375" height="22.375" fill="#D9D9D9"/>
<rect x="451.545" y="246.125" width="22.375" height="22.375" fill="#D9D9D9"/>
<rect x="273.662" y="156.625" width="22.375" height="22.375" fill="#D9D9D9"/>
<rect x="273.662" y="290.875" width="22.375" height="22.375" fill="#D9D9D9"/>
<rect x="451.545" y="156.625" width="22.375" height="22.375" fill="#D9D9D9"/>
<rect x="451.545" y="290.875" width="22.375" height="22.375" fill="#D9D9D9"/>
<rect x="273.662" y="201.375" width="22.375" height="22.375" fill="#D9D9D9"/>
<rect x="273.662" y="335.625" width="22.375" height="22.375" fill="#D9D9D9"/>
<rect x="451.545" y="201.375" width="22.375" height="22.375" fill="#D9D9D9"/>
<rect x="451.545" y="335.625" width="22.375" height="22.375" fill="#D9D9D9"/>
<rect x="340.34" width="22.375" height="22.375" fill="#D9D9D9"/>
<rect x="340.34" y="44.75" width="22.375" height="22.375" fill="#D9D9D9"/>
<rect x="340.34" y="89.5" width="22.375" height="22.375" fill="#D9D9D9"/>
<rect x="340.34" y="223.75" width="22.375" height="22.375" fill="#D9D9D9"/>
<rect x="340.34" y="134.25" width="22.375" height="22.375" fill="#D9D9D9"/>
<rect x="340.34" y="268.5" width="22.375" height="22.375" fill="#D9D9D9"/>
<rect x="340.34" y="179" width="22.375" height="22.375" fill="#D9D9D9"/>
<rect x="340.34" y="313.25" width="22.375" height="22.375" fill="#D9D9D9"/>
<rect x="318.189" y="22.375" width="22.375" height="22.375" fill="#D9D9D9"/>
<rect x="318.189" y="67.125" width="22.375" height="22.375" fill="#D9D9D9"/>
<rect x="318.189" y="111.875" width="22.375" height="22.375" fill="#D9D9D9"/>
<rect x="318.189" y="246.125" width="22.375" height="22.375" fill="#D9D9D9"/>
<rect x="318.189" y="156.625" width="22.375" height="22.375" fill="#D9D9D9"/>
<rect x="318.189" y="290.875" width="22.375" height="22.375" fill="#D9D9D9"/>
<rect x="318.189" y="201.375" width="22.375" height="22.375" fill="#D9D9D9"/>
<rect x="318.189" y="335.625" width="22.375" height="22.375" fill="#D9D9D9"/>
<rect x="384.867" width="22.375" height="22.375" fill="#D9D9D9"/>
<rect x="384.867" y="44.75" width="22.375" height="22.375" fill="#D9D9D9"/>
<rect x="384.867" y="89.5" width="22.375" height="22.375" fill="#D9D9D9"/>
<rect x="384.867" y="223.75" width="22.375" height="22.375" fill="#D9D9D9"/>
<rect x="384.867" y="134.25" width="22.375" height="22.375" fill="#D9D9D9"/>
<rect x="384.867" y="268.5" width="22.375" height="22.375" fill="#D9D9D9"/>
<rect x="384.867" y="179" width="22.375" height="22.375" fill="#D9D9D9"/>
<rect x="384.867" y="313.25" width="22.375" height="22.375" fill="#D9D9D9"/>
<rect x="362.715" y="22.375" width="22.375" height="22.375" fill="#D9D9D9"/>
<rect x="362.715" y="67.125" width="22.375" height="22.375" fill="#D9D9D9"/>
<rect x="362.715" y="111.875" width="22.375" height="22.375" fill="#D9D9D9"/>
<rect x="362.715" y="246.125" width="22.375" height="22.375" fill="#D9D9D9"/>
<rect x="362.715" y="156.625" width="22.375" height="22.375" fill="#D9D9D9"/>
<rect x="362.715" y="290.875" width="22.375" height="22.375" fill="#D9D9D9"/>
<rect x="362.715" y="201.375" width="22.375" height="22.375" fill="#D9D9D9"/>
<rect x="362.715" y="335.625" width="22.375" height="22.375" fill="#D9D9D9"/>
<rect x="273.439" width="22.375" height="22.375" fill="white"/>
<rect x="451.32" width="22.375" height="22.375" fill="white"/>
<rect x="273.439" y="44.75" width="22.375" height="22.375" fill="white"/>
<rect x="451.32" y="44.75" width="22.375" height="22.375" fill="white"/>
<rect x="273.439" y="89.5" width="22.375" height="22.375" fill="white"/>
<rect x="273.439" y="223.75" width="22.375" height="22.375" fill="white"/>
<rect x="451.32" y="89.5" width="22.375" height="22.375" fill="white"/>
<rect x="451.32" y="223.75" width="22.375" height="22.375" fill="white"/>
<rect x="273.439" y="134.25" width="22.375" height="22.375" fill="white"/>
<rect x="273.439" y="268.5" width="22.375" height="22.375" fill="white"/>
<rect x="451.32" y="134.25" width="22.375" height="22.375" fill="white"/>
<rect x="451.32" y="268.5" width="22.375" height="22.375" fill="white"/>
<rect x="273.439" y="179" width="22.375" height="22.375" fill="white"/>
<rect x="273.439" y="313.25" width="22.375" height="22.375" fill="white"/>
<rect x="451.32" y="179" width="22.375" height="22.375" fill="white"/>
<rect x="451.32" y="313.25" width="22.375" height="22.375" fill="white"/>
<rect x="251.287" y="22.375" width="22.375" height="22.375" fill="white"/>
<rect x="429.17" y="22.375" width="22.375" height="22.375" fill="white"/>
<rect x="251.287" y="67.125" width="22.375" height="22.375" fill="white"/>
<rect x="429.17" y="67.125" width="22.375" height="22.375" fill="white"/>
<rect x="251.287" y="111.875" width="22.375" height="22.375" fill="white"/>
<rect x="251.287" y="246.125" width="22.375" height="22.375" fill="white"/>
<rect x="429.17" y="111.875" width="22.375" height="22.375" fill="white"/>
<rect x="429.17" y="246.125" width="22.375" height="22.375" fill="white"/>
<rect x="251.287" y="156.625" width="22.375" height="22.375" fill="white"/>
<rect x="251.287" y="290.875" width="22.375" height="22.375" fill="white"/>
<rect x="429.17" y="156.625" width="22.375" height="22.375" fill="white"/>
<rect x="429.17" y="290.875" width="22.375" height="22.375" fill="white"/>
<rect x="251.287" y="201.375" width="22.375" height="22.375" fill="white"/>
<rect x="251.287" y="335.625" width="22.375" height="22.375" fill="white"/>
<rect x="429.17" y="201.375" width="22.375" height="22.375" fill="white"/>
<rect x="429.17" y="335.625" width="22.375" height="22.375" fill="white"/>
<rect x="317.965" width="22.375" height="22.375" fill="white"/>
<rect x="317.965" y="44.75" width="22.375" height="22.375" fill="white"/>
<rect x="317.965" y="89.5" width="22.375" height="22.375" fill="white"/>
<rect x="317.965" y="223.75" width="22.375" height="22.375" fill="white"/>
<rect x="317.965" y="134.25" width="22.375" height="22.375" fill="white"/>
<rect x="317.965" y="268.5" width="22.375" height="22.375" fill="white"/>
<rect x="317.965" y="179" width="22.375" height="22.375" fill="white"/>
<rect x="317.965" y="313.25" width="22.375" height="22.375" fill="white"/>
<rect x="295.814" y="22.375" width="22.375" height="22.375" fill="white"/>
<rect x="473.695" y="22.375" width="22.375" height="22.375" fill="white"/>
<rect x="295.814" y="67.125" width="22.375" height="22.375" fill="white"/>
<rect x="473.695" y="67.125" width="22.375" height="22.375" fill="white"/>
<rect x="295.814" y="111.875" width="22.375" height="22.375" fill="white"/>
<rect x="295.814" y="246.125" width="22.375" height="22.375" fill="white"/>
<rect x="473.695" y="111.875" width="22.375" height="22.375" fill="white"/>
<rect x="473.695" y="246.125" width="22.375" height="22.375" fill="white"/>
<rect x="295.814" y="156.625" width="22.375" height="22.375" fill="white"/>
<rect x="295.814" y="290.875" width="22.375" height="22.375" fill="white"/>
<rect x="473.695" y="156.625" width="22.375" height="22.375" fill="white"/>
<rect x="473.695" y="290.875" width="22.375" height="22.375" fill="white"/>
<rect x="295.814" y="201.375" width="22.375" height="22.375" fill="white"/>
<rect x="295.814" y="335.625" width="22.375" height="22.375" fill="white"/>
<rect x="473.695" y="201.375" width="22.375" height="22.375" fill="white"/>
<rect x="473.695" y="335.625" width="22.375" height="22.375" fill="white"/>
<rect x="362.492" width="22.375" height="22.375" fill="white"/>
<rect x="362.492" y="44.75" width="22.375" height="22.375" fill="white"/>
<rect x="362.492" y="89.5" width="22.375" height="22.375" fill="white"/>
<rect x="362.492" y="223.75" width="22.375" height="22.375" fill="white"/>
<rect x="362.492" y="134.25" width="22.375" height="22.375" fill="white"/>
<rect x="362.492" y="268.5" width="22.375" height="22.375" fill="white"/>
<rect x="362.492" y="179" width="22.375" height="22.375" fill="white"/>
<rect x="362.492" y="313.25" width="22.375" height="22.375" fill="white"/>
<rect x="340.34" y="22.375" width="22.375" height="22.375" fill="white"/>
<rect x="340.34" y="67.125" width="22.375" height="22.375" fill="white"/>
<rect x="340.34" y="111.875" width="22.375" height="22.375" fill="white"/>
<rect x="340.34" y="246.125" width="22.375" height="22.375" fill="white"/>
<rect x="340.34" y="156.625" width="22.375" height="22.375" fill="white"/>
<rect x="340.34" y="290.875" width="22.375" height="22.375" fill="white"/>
<rect x="340.34" y="201.375" width="22.375" height="22.375" fill="white"/>
<rect x="340.34" y="335.625" width="22.375" height="22.375" fill="white"/>
<rect x="407.018" width="22.375" height="22.375" fill="white"/>
<rect x="407.018" y="44.75" width="22.375" height="22.375" fill="white"/>
<rect x="407.018" y="89.5" width="22.375" height="22.375" fill="white"/>
<rect x="407.018" y="223.75" width="22.375" height="22.375" fill="white"/>
<rect x="407.018" y="134.25" width="22.375" height="22.375" fill="white"/>
<rect x="407.018" y="268.5" width="22.375" height="22.375" fill="white"/>
<rect x="407.018" y="179" width="22.375" height="22.375" fill="white"/>
<rect x="407.018" y="313.25" width="22.375" height="22.375" fill="white"/>
<rect x="384.867" y="22.375" width="22.375" height="22.375" fill="white"/>
<rect x="384.867" y="67.125" width="22.375" height="22.375" fill="white"/>
<rect x="384.867" y="111.875" width="22.375" height="22.375" fill="white"/>
<rect x="384.867" y="246.125" width="22.375" height="22.375" fill="white"/>
<rect x="384.867" y="156.625" width="22.375" height="22.375" fill="white"/>
<rect x="384.867" y="290.875" width="22.375" height="22.375" fill="white"/>
<rect x="384.867" y="201.375" width="22.375" height="22.375" fill="white"/>
<rect x="384.867" y="335.625" width="22.375" height="22.375" fill="white"/>
</g>
</svg>
