<svg width="596" height="426" viewBox="0 0 596 426" fill="none" xmlns="http://www.w3.org/2000/svg">
<rect width="596" height="426" fill="url(#paint0_radial_1085_3364)"/>
<circle cx="550" cy="50" r="12" fill="#FD4B28"/>
<path d="M510 22H578V82M510 411H578V352.5M88 22H18V82M88 411H18V352.5" stroke="white"/>
<path d="M364.37 59H355.496V57.524L359.582 57.542V46.13L355.73 48.632L355.748 46.94L359.618 44.438H361.112V57.524H364.37V59ZM375.38 44.438V45.914C371.42 49.658 370.16 55.796 370.16 58.856V59H368.702V58.856C368.702 55.598 370.106 49.352 373.274 45.914H365.3V44.438H375.38ZM384.38 44.438H386L378.944 59H377.324L384.38 44.438ZM393.179 44.132C396.779 44.132 398.687 46.976 398.687 51.71C398.687 56.534 396.779 59.288 393.179 59.288C389.615 59.288 387.671 56.534 387.671 51.71C387.671 47.048 389.597 44.132 393.179 44.132ZM393.179 57.812C395.483 57.812 397.211 56.282 397.211 51.71C397.211 47.21 395.483 45.608 393.179 45.608C390.929 45.608 389.147 47.246 389.147 51.71C389.147 56.3 390.929 57.812 393.179 57.812ZM408.281 59H399.407V57.524L403.493 57.542V46.13L399.641 48.632L399.659 46.94L403.529 44.438H405.023V57.524H408.281V59ZM417.303 44.438H418.923L411.867 59H410.247L417.303 44.438ZM425.347 44.132C428.605 44.132 430.063 46.022 430.063 48.542C430.063 50.828 428.767 52.268 426.085 52.88C423.565 53.474 422.413 53.132 422.413 57.542L430.261 57.542V59L420.937 59C420.937 58.262 420.919 58.37 420.919 57.542C420.919 52.772 422.251 52.232 425.545 51.494C428.209 50.9 428.569 49.73 428.569 48.254C428.569 46.886 427.561 45.608 425.689 45.608C423.979 45.608 422.161 46.238 421.981 48.146H420.523C420.649 45.914 422.377 44.132 425.347 44.132ZM436.808 44.132C440.408 44.132 442.316 46.976 442.316 51.71C442.316 56.534 440.408 59.288 436.808 59.288C433.244 59.288 431.3 56.534 431.3 51.71C431.3 47.048 433.226 44.132 436.808 44.132ZM436.808 57.812C439.112 57.812 440.84 56.282 440.84 51.71C440.84 47.21 439.112 45.608 436.808 45.608C434.558 45.608 432.776 47.246 432.776 51.71C432.776 56.3 434.558 57.812 436.808 57.812ZM448.04 44.132C451.298 44.132 452.756 46.022 452.756 48.542C452.756 50.828 451.46 52.268 448.778 52.88C446.258 53.474 445.106 53.132 445.106 57.542H452.954V59H443.63C443.63 58.262 443.612 58.37 443.612 57.542C443.612 52.772 444.944 52.232 448.238 51.494C450.902 50.9 451.262 49.73 451.262 48.254C451.262 46.886 450.254 45.608 448.382 45.608C446.672 45.608 444.854 46.238 444.674 48.146H443.216C443.342 45.914 445.07 44.132 448.04 44.132ZM464.338 54.788H462.268V59H460.792V54.788H453.736V53.024L460.234 44.438H462.268V53.312H464.338V54.788ZM460.792 53.312V45.59L454.924 53.312H460.792ZM476.833 44.132C480.091 44.132 481.549 46.022 481.549 48.542C481.549 50.828 480.253 52.268 477.571 52.88C475.051 53.474 473.899 53.132 473.899 57.542H481.747V59H472.423C472.423 58.262 472.405 58.37 472.405 57.542C472.405 52.772 473.737 52.232 477.031 51.494C479.695 50.9 480.055 49.73 480.055 48.254C480.055 46.886 479.047 45.608 477.175 45.608C475.465 45.608 473.647 46.238 473.467 48.146H472.009C472.135 45.914 473.863 44.132 476.833 44.132ZM488.294 44.132C491.894 44.132 493.802 46.976 493.802 51.71C493.802 56.534 491.894 59.288 488.294 59.288C484.73 59.288 482.786 56.534 482.786 51.71C482.786 47.048 484.712 44.132 488.294 44.132ZM488.294 57.812C490.598 57.812 492.326 56.282 492.326 51.71C492.326 47.21 490.598 45.608 488.294 45.608C486.044 45.608 484.262 47.246 484.262 51.71C484.262 56.3 486.044 57.812 488.294 57.812ZM497.031 59H495.105V57.02H497.031V59ZM497.031 51.584H495.105V49.604H497.031V51.584ZM509.197 54.788H507.127V59H505.651V54.788H498.595V53.024L505.093 44.438H507.127V53.312H509.197V54.788ZM505.651 53.312V45.59L499.783 53.312H505.651ZM516.347 50.864C516.347 50.864 519.317 51.17 519.317 54.716C519.317 57.776 517.517 59.288 514.529 59.288C511.811 59.288 510.029 57.758 509.885 55.202H511.325C511.811 57.182 512.693 57.848 514.925 57.848C516.887 57.848 517.841 56.426 517.841 54.482C517.841 53.24 516.887 51.8 514.583 51.548V50.252C516.203 50.018 516.959 49.208 516.959 48.146C516.959 46.346 515.987 45.608 514.403 45.608C513.071 45.608 512.387 46.238 512.063 47.444H510.605C510.749 45.536 512.099 44.132 514.403 44.132C517.193 44.132 518.453 45.968 518.453 47.786C518.453 50.63 516.347 50.864 516.347 50.864Z" fill="white"/>
<path d="M61.4442 93.564C61.694 92.8146 62.6057 91.3158 64.2544 91.3158C65.903 91.3158 66.6899 92.8146 66.8772 93.564C66.8772 97.1236 66.8772 106.341 66.8772 114.734C66.8772 123.127 59.3834 124.726 55.6365 124.476C49.6413 124.476 46.0193 121.978 44.7704 120.916L35.4031 108.552C35.0284 107.802 34.5788 105.929 35.7778 104.43C36.9768 102.931 38.9002 103.806 39.7121 104.43L44.3957 109.114V90.5664C44.3957 89.817 44.9203 88.3183 47.0186 88.3183C49.1168 88.3183 50.0161 89.817 50.2034 90.5664M61.4442 93.564V104.43M61.4442 93.564V88.3183C61.2568 87.6938 60.4325 86.4449 58.634 86.4449C56.8355 86.4449 55.8863 87.6938 55.6365 88.3183M55.6365 88.3183V103.119M55.6365 88.3183C55.4491 87.444 54.6248 85.658 52.8263 85.5081C51.0278 85.3582 50.3283 87.3191 50.2034 88.3183V90.5664M50.2034 102.369V90.5664" stroke="white" stroke-linecap="round" stroke-linejoin="round"/>
<path d="M60.5 66.5V69.5C60.5 70.0523 60.0523 70.5 59.5 70.5H35.5C34.9477 70.5 34.5 70.0523 34.5 69.5V53.5C34.5 52.9477 34.9477 52.5 35.5 52.5H40H53.5H59.5C60.0523 52.5 60.5 52.9477 60.5 53.5V57M60.5 66.5H63M60.5 66.5V57M63 66.5V57M63 66.5L67.0211 68.6934C67.6875 69.0568 68.5 68.5745 68.5 67.8155V55.3217C68.5 54.5326 67.6288 54.0544 66.9631 54.478L63 57M63 57H60.5M55.5 60C56.1667 60 57.5 59.5 57.5 58C57.5 56.8 56.5 56 55.5 56C54.8333 56 53.5 56.4 53.5 58C53.5 59.6 54.8333 60 55.5 60ZM55 63H56C56.5523 63 57 63.4477 57 64V65.5C57 66.0523 56.5523 66.5 56 66.5H55C54.4477 66.5 54 66.0523 54 65.5V64C54 63.4477 54.4477 63 55 63ZM38 61V65.5C38 66.0523 38.4477 66.5 39 66.5H49.5C50.0523 66.5 50.5 66.0523 50.5 65.5V61C50.5 60.4477 50.0523 60 49.5 60H39C38.4477 60 38 60.4477 38 61Z" stroke="white"/>
<circle cx="40" cy="47" r="5.53846" stroke="white" stroke-width="0.923077"/>
<circle cx="40" cy="47" r="2.5" stroke="white"/>
<circle cx="52.5" cy="45.5" r="4" stroke="white"/>
<circle cx="52.5" cy="45.5" r="7" stroke="white"/>
<defs>
<radialGradient id="paint0_radial_1085_3364" cx="0" cy="0" r="1" gradientUnits="userSpaceOnUse" gradientTransform="translate(298 213) rotate(90) scale(213 298)">
<stop offset="0.845338" stop-opacity="0"/>
<stop offset="1"/>
</radialGradient>
</defs>
</svg>
